#N canvas -8 -8 1680 968 10;
#X obj 643 -89 ctlin;
#X floatatom 613 -63 5 0 0 0 - - -;
#X floatatom 648 -63 5 0 0 0 - - -;
#X floatatom 683 -63 5 0 0 0 - - -;
#X obj 630 12 tgl 15 0 empty empty empty 17 7 0 10 -262144 -1 -1 1
1;
#X msg 630 31 \; pd dsp \$1;
#X obj 630 -16 loadbang;
#X obj 768 -55 adc~;
#X obj 768 -27 pvu~;
#X obj 773 -4 vu 15 120 empty empty -1 -8 0 10 -66577 -1 1 0;
#X obj 111 420 dac~;
#X obj 651 11 s lb;
#X obj 697 -4 bng 15 250 50 0 empty empty empty 17 7 0 10 -262144 -1
-1;
#X obj 113 304 *~ 1;
#X obj 265 -46 scope~ 101 61 256 3 128 -1 1 0 0 0 0 102 255 51 135
135 135 0;
#X obj 166 284 tgl 15 0 empty empty empty 17 7 0 10 -262144 -1 -1 0
1;
#X obj 327 163 scope~ 467 110 256 3 100 -1 1 0 0 0 0 102 255 51 135
135 135 0;
#X obj 888 111 autoscale 50 400;
#X obj 894 86 snapshot~;
#X obj 957 65 bang~;
#X floatatom 890 135 5 0 0 0 - - -;
#X obj 203 -26 *~ 1;
#X obj 203 -45 clip~ 0 1;
#X obj 15 -46 scope~ 101 61 256 3 128 -1 1 0 0 0 0 102 255 51 135 135
135 0;
#X obj 120 -26 *~ 1;
#X obj 185 -85 *~ 1;
#X obj 120 -45 clip~ -1 0;
#X obj 326 281 scope~ 468 114 256 3 100 -1 1 0 0 0 0 102 255 51 135
135 135 0;
#X obj 96 244 +~;
#X text 239 -75 +;
#X text 122 -81 -;
#X obj 125 0 *~ -1;
#X obj 329 408 scope~ 466 123 256 3 100 -1 1 0 0 0 0 102 255 51 135
135 135 0;
#X msg 346 117 bufsize 100;
#X msg 423 118 range -1 1;
#X obj 409 87 r lb;
#X obj 103 120 osc~;
#X obj 177 149 osc~;
#X obj 82 43 *~ 400;
#X obj 177 -264 *~;
#X obj 221 -228 *~;
#X obj 328 -116 scope~ 101 61 256 3 128 -1 1 0 0 0 0 102 255 51 135
135 135 0;
#X obj 97 178 hip~ 10;
#X obj 177 174 hip~ 10;
#X obj 100 148 *~ -1;
#X obj 164 -291 osc~ 1;
#X obj 217 -276 osc~ 0.5;
#X obj 35 -126 osc~ 100;
#X obj -10 -193 *~ 7;
#X obj 106 76 +~ 50;
#X obj 179 78 +~ 50;
#X obj 55 83 *~ 1;
#X obj -16 59 tgl 15 0 empty empty empty 17 7 0 10 -262144 -1 -1 1
1;
#X obj 231 89 *~ 1;
#X obj 279 61 tgl 15 0 empty empty empty 17 7 0 10 -262144 -1 -1 1
1;
#X obj 41 125 *~ 1;
#X obj -30 101 tgl 15 0 empty empty empty 17 7 0 10 -262144 -1 -1 1
1;
#X obj 236 117 *~ 1;
#X obj 284 89 tgl 15 0 empty empty empty 17 7 0 10 -262144 -1 -1 1
1;
#X obj 216 -200 *~;
#X text 175 -109 pitch modulation input;
#X obj 107 100 +~;
#X obj 178 130 +~;
#X obj 93 386 freeverb~;
#X text 1195 7 stereo reverb using the Schroeder/Moorer model;
#X msg 1194 35 roomsize \$1;
#X msg 1194 57 damping \$1;
#X msg 1194 79 width \$1;
#X msg 1194 101 wet \$1;
#X msg 1194 123 dry \$1;
#X msg 1194 145 print;
#X msg 1194 167 freeze \$1;
#X text 1257 144 - print the current values of the above parameters
;
#X text 1270 167 - start/stop freeze of reverb tail \, using 1 or 0
;
#X text 1274 188 - bypass the reverb processing \, using a 1 or 0;
#X text 1255 122 - level of unprocessed signal \, between 0 and 1 (default:
0);
#X text 1259 101 - level of reverbed signal \, between 0 and 1 (default:
0.3);
#X text 1281 56 - amount of damping of room's surfaces (default: 0.5)
;
#X text 1263 80 - stereo width of reverb (default: 1);
#X text 1285 34 - size of the room to be simulated (default=0.85);
#X obj 1099 234 s revparam;
#X obj 33 313 r revparam;
#X obj 188 356 vsl 30 70 0 1 0 0 empty empty empty 0 -9 0 10 -262144
-1 -1 1100 1;
#X obj 89 359 *~ 1;
#X obj 132 360 *~ 1;
#X msg 1197 225 bypass 0;
#X msg 1202 247 bypass 1;
#X obj 55 -286 osc~ 1;
#X obj 60 -250 +~ 1;
#X obj -10 -216 +~;
#X obj 82 -176 *~ 1;
#X obj 130 -204 tgl 15 0 empty empty empty 17 7 0 10 -262144 -1 -1
0 1;
#X obj 1128 -147 hsl 128 15 0 1 0 0 empty empty empty -2 -8 0 10 -262144
-1 -1 0 1;
#X obj 1095 -96 expr 1-$f1;
#X floatatom 1095 -54 5 0 0 0 - - -;
#X obj -28 -268 osc~ 0.5;
#X obj 183 40 *~ 400;
#X obj 1114 -220 r lb;
#X msg 1110 -192 0;
#X obj 263 -243 osc~ 0.1;
#X obj 329 581 skoop;
#X connect 0 0 1 0;
#X connect 0 1 2 0;
#X connect 0 2 3 0;
#X connect 4 0 5 0;
#X connect 6 0 4 0;
#X connect 6 0 11 0;
#X connect 7 0 8 0;
#X connect 7 1 8 0;
#X connect 8 0 9 0;
#X connect 12 0 11 0;
#X connect 13 0 83 0;
#X connect 13 0 84 0;
#X connect 15 0 13 1;
#X connect 17 0 20 0;
#X connect 18 0 17 0;
#X connect 19 0 18 0;
#X connect 21 0 14 0;
#X connect 21 0 96 0;
#X connect 22 0 21 0;
#X connect 24 0 23 0;
#X connect 24 0 31 0;
#X connect 25 0 22 0;
#X connect 25 0 26 0;
#X connect 25 0 41 0;
#X connect 26 0 24 0;
#X connect 28 0 13 0;
#X connect 28 0 32 0;
#X connect 28 0 100 0;
#X connect 31 0 38 0;
#X connect 33 0 16 0;
#X connect 33 0 27 0;
#X connect 33 0 32 0;
#X connect 34 0 16 0;
#X connect 34 0 27 0;
#X connect 34 0 32 0;
#X connect 35 0 33 0;
#X connect 35 0 34 0;
#X connect 36 0 44 0;
#X connect 37 0 43 0;
#X connect 38 0 49 0;
#X connect 38 0 51 0;
#X connect 39 0 40 0;
#X connect 40 0 59 1;
#X connect 42 0 28 0;
#X connect 42 0 27 0;
#X connect 43 0 16 0;
#X connect 43 0 28 1;
#X connect 44 0 42 0;
#X connect 45 0 39 0;
#X connect 46 0 39 1;
#X connect 47 0 25 0;
#X connect 48 0 59 0;
#X connect 49 0 55 0;
#X connect 50 0 57 0;
#X connect 51 0 61 1;
#X connect 52 0 51 1;
#X connect 53 0 62 0;
#X connect 54 0 53 1;
#X connect 55 0 61 0;
#X connect 56 0 55 1;
#X connect 57 0 62 1;
#X connect 58 0 57 1;
#X connect 59 0 47 0;
#X connect 61 0 36 0;
#X connect 62 0 37 0;
#X connect 63 0 10 0;
#X connect 63 1 10 1;
#X connect 65 0 80 0;
#X connect 66 0 80 0;
#X connect 67 0 80 0;
#X connect 68 0 80 0;
#X connect 69 0 80 0;
#X connect 70 0 80 0;
#X connect 71 0 80 0;
#X connect 81 0 63 0;
#X connect 82 0 84 1;
#X connect 82 0 83 1;
#X connect 83 0 63 0;
#X connect 84 0 63 1;
#X connect 85 0 80 0;
#X connect 86 0 80 0;
#X connect 87 0 88 0;
#X connect 88 0 90 0;
#X connect 89 0 48 0;
#X connect 90 0 89 1;
#X connect 91 0 90 1;
#X connect 92 0 93 0;
#X connect 92 0 68 0;
#X connect 93 0 94 0;
#X connect 94 0 69 0;
#X connect 95 0 89 0;
#X connect 96 0 50 0;
#X connect 96 0 53 0;
#X connect 97 0 98 0;
#X connect 98 0 92 0;
#X connect 99 0 40 1;
