#N canvas 363 148 1279 281 10;
#X obj 54 132 ctlin 2;
#X obj 151 132 ctlin 3;
#X obj 248 132 ctlin 4;
#X obj 345 132 ctlin 5;
#X obj 441 132 ctlin 6;
#X obj 544 132 ctlin 8;
#X obj 641 132 ctlin 9;
#X obj 740 134 ctlin 12;
#X obj 840 132 ctlin 13;
#X obj 54 221 s s1;
#X obj 148 221 s s2;
#X obj 248 218 s s3;
#X obj 345 220 s s4;
#X obj 444 220 s s5;
#X obj 547 217 s s6;
#X obj 642 218 s s7;
#X obj 740 218 s s8;
#X obj 835 219 s s9;
#X obj 50 12 ctlin 14;
#X obj 147 12 ctlin 15;
#X obj 244 12 ctlin 16;
#X obj 341 12 ctlin 17;
#X obj 437 12 ctlin 18;
#X obj 540 12 ctlin 19;
#X obj 637 12 ctlin 20;
#X obj 736 14 ctlin 21;
#X obj 836 12 ctlin 22;
#X obj 50 101 s k1;
#X obj 144 101 s k2;
#X obj 244 98 s k3;
#X obj 341 100 s k4;
#X obj 440 100 s k5;
#X obj 543 97 s k6;
#X obj 638 98 s k7;
#X obj 736 98 s k8;
#X obj 831 99 s k9;
#X connect 0 0 9 0;
#X connect 1 0 10 0;
#X connect 2 0 11 0;
#X connect 3 0 12 0;
#X connect 4 0 13 0;
#X connect 5 0 14 0;
#X connect 6 0 15 0;
#X connect 7 0 16 0;
#X connect 8 0 17 0;
#X connect 18 0 27 0;
#X connect 19 0 28 0;
#X connect 20 0 29 0;
#X connect 21 0 30 0;
#X connect 22 0 31 0;
#X connect 23 0 32 0;
#X connect 24 0 33 0;
#X connect 25 0 34 0;
#X connect 26 0 35 0;
