#N canvas -8 -8 1920 998 10;
#X obj 777 -52 tgl 15 0 empty empty empty 17 7 0 10 -262144 -1 -1 1
1;
#X msg 777 -33 \; pd dsp \$1;
#X obj 777 -80 loadbang;
#X obj 114 274 dac~;
#X obj 798 -53 s lb;
#X obj 844 -68 bng 15 250 50 0 empty empty empty 17 7 0 10 -262144
-1 -1;
#X obj 114 255 *~ 1;
#X obj 116 -25 *~;
#X obj 116 39 *~;
#X obj 39 -50 osc~ 432;
#X obj 135 -62 osc~ 0.5;
#X obj 414 253 hsl 128 15 0 1 0 0 empty empty empty -2 -8 0 10 -262144
-1 -1 5210 1;
#X obj 417 302 >=;
#X obj 422 275 hsl 128 15 0 1 0 0 empty empty empty -2 -8 0 10 -262144
-1 -1 9800 1;
#X floatatom 416 323 5 0 0 0 - - -;
#X obj 906 196 line~;
#X msg 907 175 \$1 10;
#X obj 886 219 *~;
#X obj 1130 237 moog~;
#X obj 1162 202 sig~;
#X obj 1163 55 vsl 15 128 1 4 0 0 empty empty empty 0 -9 0 10 -262144
-1 -1 4233 1;
#X obj 415 345 s gateopener;
#X obj 907 152 r gateopener;
#X obj 158 -4 throw~ tosummer;
#X obj 158 25 throw~ tosummer;
#X obj 158 54 throw~ tosummer;
#X obj 286 25 s~ summed;
#X obj 827 149 r~ summed;
#X obj 1042 195 r~ summed;
#X obj 1044 30 r gateopener;
#X obj 1044 139 line~;
#X obj 1044 57 autoscale 0 20000;
#X obj 1124 274 s~ filtergatedout;
#X obj 879 261 s~ volumegatedout;
#X obj 108 206 r~ filtergatedout;
#X obj 1221 13 r lb;
#X obj 116 7 *~;
#X obj 411 233 autoscale 0 1;
#X obj 552 188 bng 15 250 50 0 empty empty empty 17 7 0 10 -262144
-1 -1;
#X obj 41 5 osc~ 864;
#X obj 61 33 tgl 15 0 empty empty empty 17 7 0 10 -262144 -1 -1 1 1
;
#X obj 552 159 r lb;
#X msg 1207 51 2;
#X obj 289 -127 catch~ tosummer;
#X obj 308 -43 env~;
#X floatatom 308 -22 5 0 0 0 - - -;
#X obj 110 -79 tgl 15 0 empty empty empty 17 7 0 10 -262144 -1 -1 1
1;
#X obj 427 -63 hsl 128 15 0 1 0 0 empty empty empty -2 -8 0 10 -262144
-1 -1 10497 1;
#X obj 427 18 hsl 128 15 0 1 0 0 empty empty empty -2 -8 0 10 -262144
-1 -1 2203 1;
#X obj 424 -36 -;
#X msg 460 -41 1;
#X obj 424 -7 * -1;
#X obj 424 -84 / 96.98;
#X obj 308 -64 *~;
#X obj 408 76 line~;
#X msg 411 53 \$1 20;
#X obj 228 -55 s~ precomp;
#X obj 411 166 r~ precomp;
#X obj 411 199 env~;
#X obj 29 -20 osc~ 0.2;
#X obj 42 66 osc~ 0.1;
#X obj 54 91 osc~ 435;
#X msg 1044 117 \$1 100;
#X obj 232 115 *~ 1;
#X connect 0 0 1 0;
#X connect 2 0 0 0;
#X connect 2 0 4 0;
#X connect 5 0 4 0;
#X connect 6 0 3 0;
#X connect 6 0 3 1;
#X connect 7 0 23 0;
#X connect 7 0 63 0;
#X connect 8 0 25 0;
#X connect 8 0 63 0;
#X connect 9 0 7 0;
#X connect 10 0 7 1;
#X connect 11 0 12 0;
#X connect 12 0 14 0;
#X connect 13 0 12 1;
#X connect 14 0 21 0;
#X connect 15 0 17 1;
#X connect 16 0 15 0;
#X connect 17 0 33 0;
#X connect 18 0 32 0;
#X connect 19 0 18 2;
#X connect 20 0 19 0;
#X connect 22 0 16 0;
#X connect 27 0 17 0;
#X connect 28 0 18 0;
#X connect 29 0 31 0;
#X connect 30 0 18 1;
#X connect 31 0 62 0;
#X connect 34 0 6 0;
#X connect 35 0 42 0;
#X connect 36 0 24 0;
#X connect 36 0 63 0;
#X connect 37 0 11 0;
#X connect 38 0 37 3;
#X connect 39 0 36 0;
#X connect 41 0 38 0;
#X connect 42 0 20 0;
#X connect 44 0 45 0;
#X connect 45 0 52 0;
#X connect 47 0 50 0;
#X connect 47 0 49 0;
#X connect 48 0 55 0;
#X connect 49 0 51 0;
#X connect 50 0 49 1;
#X connect 51 0 48 0;
#X connect 52 0 47 0;
#X connect 53 0 44 0;
#X connect 53 0 26 0;
#X connect 54 0 53 1;
#X connect 55 0 54 0;
#X connect 57 0 58 0;
#X connect 58 0 37 0;
#X connect 59 0 36 1;
#X connect 60 0 8 1;
#X connect 61 0 8 0;
#X connect 62 0 30 0;
#X connect 63 0 53 0;
#X connect 63 0 56 0;
