#N canvas 756 0 1795 1348 10;
#X obj 713 416 moses 0;
#X floatatom 717 356 5 0 0 0 - - -;
#X obj 702 445 bang;
#X obj 687 504 spigot;
#X obj 759 518 spigot;
#X obj 782 444 bang;
#X msg 686 469 1;
#X msg 722 470 0;
#X msg 775 472 1;
#X msg 811 473 0;
#X floatatom 731 554 5 0 0 0 - - -;
#X obj 695 527 * 0.01;
#X text 813 223 Leaky ReLU;
#X text 761 248 leaks 1/100th of the signal when under threshold;
#X obj 1054 395 diode~ 1;
#X obj 1001 355 osc~ 10;
#X obj 1096 612 skop;
#X obj 955 385 *~ -1;
#X obj 945 415 diode~ 1;
#X obj 948 449 *~ -1;
#X obj 948 471 *~ 0.01;
#X obj 1093 438 atod;
#X connect 0 0 2 0;
#X connect 0 0 3 0;
#X connect 0 1 5 0;
#X connect 0 1 4 0;
#X connect 1 0 0 0;
#X connect 2 0 6 0;
#X connect 2 0 7 0;
#X connect 3 0 11 0;
#X connect 4 0 10 0;
#X connect 5 0 8 0;
#X connect 5 0 9 0;
#X connect 6 0 3 1;
#X connect 7 0 4 1;
#X connect 8 0 4 1;
#X connect 9 0 3 1;
#X connect 11 0 10 0;
#X connect 15 0 14 0;
#X connect 15 0 17 0;
#X connect 17 0 18 0;
#X connect 18 0 19 0;
#X connect 19 0 20 0;
