#N canvas 552 139 1492 858 10;
#X obj -116 329 bng 15 250 50 0 empty empty empty 17 7 0 10 -262144
-1 -1;
#X text -147 359 scrivi QUI nomefile;
#X msg -117 379 open spectre1.wav;
#X obj -93 215 openpanel;
#X obj -93 196 bng 15 250 50 0 empty empty empty 17 7 0 10 -262144
-1 -1;
#X msg -93 261 set open E:/codio.wav;
#X msg -93 238 set set open \$1;
#X msg -93 289 open E:/codio.wav;
#X obj -114 508 writesf~ 1;
#X obj 54 294 bng 15 250 50 0 empty empty empty 17 7 0 10 -262144 -1
-1;
#X obj -37 48 bng 15 250 50 0 empty empty empty 17 7 0 10 -262144 -1
-1;
#X msg -37 113 set open C:/Users/ninja/Desktop/fgsdf.wav;
#X msg -37 90 set set open \$1;
#X msg -37 141 open C:/Users/ninja/Desktop/fgsdf.wav;
#X obj 120 76 t b b;
#X obj -37 67 savepanel;
#X obj 358 519 f \$1;
#X text 72 744 questo fa cose qui dentro!;
#X msg 83 641 300;
#X obj 319 300 bng 15 250 50 0 empty empty empty 17 7 0 10 -262144
-1 -1;
#X obj 191 571 until;
#X obj 191 593 f;
#X obj 218 593 + 1;
#X obj 191 528 f \$1;
#X obj 191 639 + 300;
#X obj 117 529 t b b;
#X obj 191 549 - 1;
#X msg 232 528 1;
#X floatatom 212 444 5 0 0 0 - - -;
#X text 253 445 argument;
#X obj 117 492 t b;
#X msg 358 540 obj 300 200 writesf~ \$1;
#X obj 319 327 loadbang;
#X text 47 496 crea inlets;
#X obj 319 405 t b b b;
#X text 403 516 crea writesf;
#X text 54 512 1 0;
#X text 55 532 2 0;
#X text 51 557 ecc...;
#X msg 83 695 obj \$1 50 inlet~;
#X obj 319 359 t b b;
#X text 510 541 50 0;
#X obj 83 716 send pd-rec.pd;
#X obj 358 560 send pd-rec.pd;
#N canvas 2074 531 450 673 conn 1;
#X obj 141 452 send pd-rec.pd;
#X floatatom 206 128 5 0 0 0 - - -;
#X text 247 129 argument;
#X obj 141 249 until;
#X obj 141 268 f;
#X obj 168 268 + 1;
#X obj 140 204 f \$1;
#X obj 141 226 - 1;
#X msg 174 204 1;
#X obj 140 55 inlet;
#X obj 140 131 t b b;
#X obj 141 344 pack f f;
#X obj 140 177 t b b;
#X obj 141 301 t f f;
#X obj 228 278 ==;
#X msg 206 85 12;
#X obj 141 323 + 55;
#X msg 141 377 connect \$1 0 54 \$2;
#X msg 283 379 connect 15 0 54 0;
#X msg 216 165 connect 55 0 54 0;
#X msg 287 416 connect 52 0 54 0;
#X msg 270 443 connect 53 0 54 0;
#X obj 298 336 t b b b;
#X obj 201 32 bng 15 250 50 0 empty empty empty 17 7 0 10 -262144 -1
-1;
#X floatatom 295 286 5 0 0 0 - - -;
#X obj 96 103 tgl 15 0 empty empty empty 17 7 0 10 -262144 -1 -1 0
1;
#X obj 228 306 select 1;
#X connect 1 0 6 1;
#X connect 3 0 4 0;
#X connect 4 0 5 0;
#X connect 4 0 13 0;
#X connect 5 0 4 1;
#X connect 6 0 7 0;
#X connect 7 0 3 0;
#X connect 7 0 14 1;
#X connect 8 0 4 1;
#X connect 9 0 10 0;
#X connect 9 0 15 0;
#X connect 9 0 25 0;
#X connect 10 0 12 0;
#X connect 10 1 19 0;
#X connect 11 0 17 0;
#X connect 12 0 6 0;
#X connect 12 1 8 0;
#X connect 13 0 16 0;
#X connect 13 1 11 1;
#X connect 13 1 14 0;
#X connect 14 0 24 0;
#X connect 14 0 26 0;
#X connect 15 0 1 0;
#X connect 16 0 11 0;
#X connect 17 0 0 0;
#X connect 18 0 0 0;
#X connect 19 0 0 0;
#X connect 20 0 0 0;
#X connect 21 0 0 0;
#X connect 22 0 21 0;
#X connect 22 1 20 0;
#X connect 22 2 18 0;
#X connect 23 0 10 0;
#X connect 23 0 15 0;
#X connect 26 0 22 0;
#X restore 248 713 pd conn;
#X obj 191 616 * 50;
#X obj 248 639 ==;
#X obj -64 17 inlet;
#X msg 212 400 12;
#X obj 38 15 inlet;
#X obj 111 16 inlet;
#X msg 38 42 start;
#X msg 107 45 stop;
#X obj 248 660 select 1;
#X obj 300 200 writesf~ 12;
#X obj 300 50 inlet~;
#X obj 350 50 inlet~;
#X obj 400 50 inlet~;
#X obj 450 50 inlet~;
#X obj 500 50 inlet~;
#X obj 550 50 inlet~;
#X obj 600 50 inlet~;
#X obj 650 50 inlet~;
#X obj 700 50 inlet~;
#X obj 750 50 inlet~;
#X obj 800 50 inlet~;
#X obj 850 50 inlet~;
#X obj 25 185 writesf~ 1;
#X connect 0 0 2 0;
#X connect 2 0 8 0;
#X connect 3 0 6 0;
#X connect 4 0 3 0;
#X connect 5 0 7 0;
#X connect 6 0 5 0;
#X connect 6 0 9 0;
#X connect 7 0 8 0;
#X connect 9 0 7 0;
#X connect 10 0 15 0;
#X connect 11 0 13 0;
#X connect 12 0 11 0;
#X connect 12 0 14 0;
#X connect 13 0 67 0;
#X connect 14 0 13 0;
#X connect 14 1 11 0;
#X connect 15 0 12 0;
#X connect 16 0 31 0;
#X connect 18 0 39 0;
#X connect 19 0 32 0;
#X connect 20 0 21 0;
#X connect 21 0 22 0;
#X connect 21 0 45 0;
#X connect 21 0 46 0;
#X connect 22 0 21 1;
#X connect 23 0 26 0;
#X connect 24 0 39 0;
#X connect 25 0 23 0;
#X connect 25 1 18 0;
#X connect 26 0 20 0;
#X connect 26 0 46 1;
#X connect 27 0 21 1;
#X connect 28 0 23 1;
#X connect 28 0 16 1;
#X connect 30 0 27 0;
#X connect 30 0 25 0;
#X connect 31 0 43 0;
#X connect 32 0 40 0;
#X connect 34 1 30 0;
#X connect 34 2 16 0;
#X connect 39 0 42 0;
#X connect 40 0 34 0;
#X connect 40 1 48 0;
#X connect 45 0 24 0;
#X connect 46 0 53 0;
#X connect 47 0 10 0;
#X connect 48 0 28 0;
#X connect 49 0 51 0;
#X connect 50 0 52 0;
#X connect 51 0 67 0;
#X connect 52 0 67 0;
#X connect 53 0 44 0;
