#N canvas 138 320 923 601 10;
#N canvas 921 285 809 833 writer 1;
#X obj 334 239 f \$1;
#X msg 59 361 300;
#X obj 242 20 bng 15 250 50 0 empty empty empty 17 7 0 10 -262144 -1
-1;
#X obj 167 291 until;
#X obj 167 313 f;
#X obj 194 313 + 1;
#X obj 167 248 f \$1;
#X obj 167 359 + 300;
#X obj 93 249 t b b;
#X obj 167 269 - 1;
#X msg 208 248 1;
#X floatatom 188 164 5 0 0 0 - - -;
#X text 229 165 argument;
#X obj 93 212 t b;
#X msg 334 260 obj 300 200 writesf~ \$1;
#X obj 295 50 loadbang;
#X text 19 212 crea inlets;
#X text 377 239 crea writesf;
#X msg 59 415 obj \$1 50 inlet~;
#X obj 295 79 t b b;
#X obj 167 336 * 50;
#X obj 59 683 send pd-recc.pd;
#X obj 334 280 send pd-recc.pd;
#X text 407 227 1;
#X text 49 198 2;
#X obj 233 553 pack f f;
#X obj 233 437 f \$1;
#X obj 233 459 until;
#X obj 233 481 f;
#X obj 260 481 + 1;
#X obj 233 413 t b b;
#X msg 275 437 0;
#X obj 233 503 t f f;
#X text 276 413 crea connections;
#X text 316 402 3;
#X obj 295 125 t b b b b;
#X obj 538 417 t b b b;
#X text 271 504 inletnum (0-x);
#X floatatom 398 557 5 0 0 0 - - -;
#X text 379 533 ultimo inlet;
#X obj 96 162 bng 15 250 50 0 empty empty empty 17 7 0 10 -262144 -1
-1;
#X obj 383 178 bng 15 250 50 0 empty empty empty 17 7 0 10 -262144
-1 -1;
#X obj 269 362 bng 15 250 50 0 empty empty empty 17 7 0 10 -262144
-1 -1;
#X text 600 431 collega cose al writesf;
#X msg 577 452 \; pd-recc.pd connect 9 0 11 0 \; pd-recc.pd connect
10 0 11 0 \; pd-recc.pd connect 7 0 11 0;
#X obj 233 528 + 12;
#X msg 233 577 connect \$1 0 11 \$2;
#X msg 188 120 7;
#X connect 0 0 14 0;
#X connect 1 0 18 0;
#X connect 2 0 19 0;
#X connect 3 0 4 0;
#X connect 4 0 5 0;
#X connect 4 0 20 0;
#X connect 5 0 4 1;
#X connect 6 0 9 0;
#X connect 7 0 18 0;
#X connect 8 0 6 0;
#X connect 8 1 1 0;
#X connect 9 0 3 0;
#X connect 10 0 4 1;
#X connect 11 0 6 1;
#X connect 11 0 0 1;
#X connect 11 0 26 1;
#X connect 13 0 10 0;
#X connect 13 0 8 0;
#X connect 14 0 22 0;
#X connect 15 0 19 0;
#X connect 18 0 21 0;
#X connect 19 0 35 0;
#X connect 19 1 47 0;
#X connect 20 0 7 0;
#X connect 25 0 46 0;
#X connect 26 0 27 0;
#X connect 27 0 28 0;
#X connect 28 0 29 0;
#X connect 28 0 32 0;
#X connect 29 0 28 1;
#X connect 30 0 26 0;
#X connect 30 1 31 0;
#X connect 31 0 28 1;
#X connect 32 0 25 1;
#X connect 32 0 45 0;
#X connect 35 0 36 0;
#X connect 35 1 30 0;
#X connect 35 2 13 0;
#X connect 35 3 0 0;
#X connect 36 2 44 0;
#X connect 40 0 13 0;
#X connect 41 0 0 0;
#X connect 42 0 30 0;
#X connect 45 0 25 0;
#X connect 45 0 38 0;
#X connect 46 0 21 0;
#X restore 3 2 pd writer;
#X obj 15 40 inlet;
#X obj 15 94 savepanel;
#X msg 15 123 set set open \$1;
#X obj 117 169 t b b;
#X obj 117 148 bng 15 250 50 0 empty empty empty 17 7 0 10 -262144
-1 -1;
#X msg 27 176;
#X msg 30 236;
#X obj 15 62 route start stop;
#X msg 122 94 start;
#X msg 176 94 stop;
#X connect 1 0 8 0;
#X connect 2 0 3 0;
#X connect 3 0 6 0;
#X connect 3 0 5 0;
#X connect 4 0 7 0;
#X connect 4 1 6 0;
#X connect 5 0 4 0;
#X connect 6 0 7 0;
#X connect 6 0 7 0;
#X connect 6 0 7 0;
#X connect 8 0 9 0;
#X connect 8 1 10 0;
#X connect 8 2 2 0;
