#N canvas 1120 564 1278 808 10;
#X obj 158 152 samphold~;
#X obj 209 96 vline~;
#X msg 209 70 1 1 \, 0 0 1;
#X obj 209 47 bang;
#X obj 157 182 /~ 2;
#X text 203 191 << shift range into (0 | 1);
#X text 223 153 << sample and hold;
#X text 218 125 << noise source;
#X text 269 89 << bang to trigger for the s&h;
#X obj 209 22 inlet;
#X obj 157 203 +~ 0.5;
#X obj 157 241 outlet~;
#X obj 369 22 inlet~;
#X obj 158 -26 inlet~;
#X text 59 -26 signal input >>;
#X text 81 21 bang-sample input >>;
#X text 419 22 << direct signal-sample input;
#X connect 0 0 4 0;
#X connect 1 0 0 1;
#X connect 2 0 1 0;
#X connect 3 0 2 0;
#X connect 4 0 10 0;
#X connect 9 0 3 0;
#X connect 10 0 11 0;
#X connect 12 0 0 1;
#X connect 13 0 0 0;
