#N canvas 308 360 845 376 10;
#X obj -5049 57 t b b;
#X obj -5049 101 timer;
#N canvas 0 0 450 300 (subpatch) 0;
#X array \$0-tt 6 float 2;
#X coords 0 1000 6 -1 40 50 1;
#X restore -4855 120 graph;
#X obj -4826 238 f;
#X msg -4784 207 0;
#X obj -4799 296 + 1;
#X obj -4826 268 t f f;
#X obj -4907 294 tabwrite \$0-tt;
#X obj -4784 175 loadbang;
#X obj -5048 282 until;
#X msg -5001 315 0;
#X obj -5048 348 f;
#X obj -5048 430 tabread \$0-tt;
#X obj -5048 459 + 0;
#X obj -5048 380 t f f;
#X obj -5021 407 + 1;
#X obj -5048 485 t f f;
#X obj -5136 390 f;
#X obj -5048 218 t b b b;
#X msg -4968 314 0;
#X obj -5049 141 t b b f b;
#X obj -5136 530 expr 60000 / $f1;
#X obj -5049 10 inlet bang;
#X obj -5260 591 outlet ms;
#X obj -5136 589 outlet bpm;
#X obj -4799 324 sel 6;
#X msg -5048 257 6;
#X obj -5136 416 / 6;
#X connect 0 0 1 0;
#X connect 0 1 1 1;
#X connect 1 0 20 0;
#X connect 3 0 6 0;
#X connect 4 0 3 1;
#X connect 5 0 25 0;
#X connect 6 0 7 1;
#X connect 6 1 5 0;
#X connect 8 0 4 0;
#X connect 9 0 11 0;
#X connect 10 0 11 1;
#X connect 11 0 14 0;
#X connect 12 0 13 0;
#X connect 13 0 16 0;
#X connect 14 0 12 0;
#X connect 14 1 15 0;
#X connect 15 0 11 1;
#X connect 16 0 17 1;
#X connect 16 1 13 1;
#X connect 17 0 27 0;
#X connect 18 0 26 0;
#X connect 18 1 10 0;
#X connect 18 2 19 0;
#X connect 19 0 13 1;
#X connect 20 0 17 0;
#X connect 20 1 18 0;
#X connect 20 2 7 0;
#X connect 20 3 3 0;
#X connect 21 0 24 0;
#X connect 22 0 0 0;
#X connect 25 0 4 0;
#X connect 25 1 3 1;
#X connect 26 0 9 0;
#X connect 27 0 21 0;
#X connect 27 0 23 0;
