#N canvas 687 353 911 475 10;
#X obj 153 63 timer;
#X floatatom 153 87 5 0 0 0 - - -;
#X obj 120 -128 bng 15 250 50 0 empty empty empty 17 7 0 10 -262144
-1 -1;
#X obj 123 -88 t b b;
#X obj 124 -38 spigot;
#X obj 171 -64 tgl 15 0 empty empty empty 17 7 0 10 -262144 -1 -1 0
1;
#X obj 217 -67 -;
#X msg 203 -90 1;
#X obj 199 -123 bng 15 250 50 0 empty empty empty 17 7 0 10 -262144
-1 -1;
#X obj 214 -41 tgl 15 0 empty empty empty 17 7 0 10 -262144 -1 -1 1
1;
#X obj 184 -17 spigot;
#X obj 123 -4 bng 15 250 50 0 empty empty empty 17 7 0 10 -262144 -1
-1;
#X obj 180 24 bng 15 250 50 0 empty empty empty 17 7 0 10 -262144 -1
-1;
#X obj 107 -201 inlet;
#X obj 142 123 outlet;
#X text 36 -199 bang TAP in;
#X text 191 87 time between taps in ms;
#X connect 0 0 1 0;
#X connect 1 0 14 0;
#X connect 2 0 3 0;
#X connect 3 0 4 0;
#X connect 3 0 10 0;
#X connect 3 1 5 0;
#X connect 4 0 11 0;
#X connect 5 0 4 1;
#X connect 5 0 6 1;
#X connect 5 0 8 0;
#X connect 6 0 9 0;
#X connect 7 0 6 0;
#X connect 8 0 7 0;
#X connect 9 0 10 1;
#X connect 10 0 12 0;
#X connect 11 0 0 0;
#X connect 12 0 0 1;
#X connect 13 0 2 0;
