#N canvas 1343 606 450 300 10;
#X obj 29 96 timer;
#X obj 29 69 sel 1 0;
#X obj 29 50 tgl 15 0 empty empty empty 17 7 0 10 -262144 -1 -1 1 1
;
#X obj 29 11 inlet;
#X obj 29 119 outlet;
#X obj 29 31 bang;
#X obj 79 98 metro;
#X obj 79 119 outlet;
#X obj 106 69 change;
#X connect 0 0 4 0;
#X connect 0 0 8 0;
#X connect 1 0 0 0;
#X connect 1 1 0 1;
#X connect 2 0 1 0;
#X connect 3 0 5 0;
#X connect 5 0 2 0;
#X connect 5 0 6 0;
#X connect 6 0 7 0;
#X connect 8 0 6 1;
