#N canvas 652 0 1899 1348 10;
#X obj 757 -80 ctlin;
#X floatatom 727 -54 5 0 0 0 - - -;
#X floatatom 762 -54 5 0 0 0 - - -;
#X floatatom 797 -54 5 0 0 0 - - -;
#X obj 806 39 tgl 15 0 empty empty empty 17 7 0 10 -262144 -1 -1 1
1;
#X msg 743 33 \; pd dsp \$1;
#X obj 743 -29 loadbang;
#X obj 747 108 dac~;
#X obj 760 -8 s lb;
#X obj 802 -28 bng 15 250 50 0 empty empty empty 17 7 0 10 -262144
-1 -1;
#X obj 747 89 *~ 1;
#X obj 442 732 output~;
#X obj 442 708 *~ 1;
#X obj 793 90 adc~;
#X msg 743 11 1;
#X msg 781 11 0;
#X obj 161 -7 coinflipp;
#X obj 161 393 vline~;
#X msg 161 370 \$1 \$2;
#X obj 161 345 pack f f;
#X obj 155 -44 metroo;
#X obj 161 42 f;
#X obj 212 41 f;
#X msg 337 16 0;
#X obj 232 593 atod;
#X floatatom 233 629 5 0 0 0 - - -;
#X obj 141 16 bng 15 250 50 0 empty empty empty 17 7 0 10 -262144 -1
-1;
#X obj 228 12 bng 15 250 50 0 empty empty empty 17 7 0 10 -262144 -1
-1;
#X msg 87 -66 stop;
#X msg 140 -75 start;
#X obj 389 185 vsl 15 128 -1 1 0 0 empty empty empty 0 -9 0 10 -262144
-1 -1 9379 1;
#X obj 338 -15 r lb;
#X obj 481 54 s maintempo;
#X obj 206 316 r maintempo;
#X obj 217 -69 r maintempo;
#X obj 174 113 nn;
#X obj 287 140 > 1;
#X obj 198 206 select 1;
#X obj 198 237 bng 15 250 50 0 empty empty empty 17 7 0 10 -262144
-1 -1;
#X obj 300 195 select 1;
#X obj 300 226 bng 15 250 50 0 empty empty empty 17 7 0 10 -262144
-1 -1;
#X obj 199 165 < -1;
#X msg 480 -13 200;
#X obj 479 -41 r lb;
#X msg 197 262 -1;
#X msg 283 250 1;
#X floatatom 484 22 5 0 0 0 - - -;
#X obj 153 78 - 0.1;
#X obj 212 74 + 0.1;
#X obj 179 493 tanh~;
#X obj 441 681 hip~ 20;
#X obj 441 657 lop~ 20000;
#X floatatom 496 460 5 0 0 0 - - -;
#N canvas 0 50 450 250 (subpatch) 0;
#X array arra 100 float 3;
#A 0 0.6 0.6 0.6 0.6 0.6 0.6 0.6 0.6 0.6 0.6 0.6 0.6 0.6 0.6 0.6 0.6
0.6 0.6 0.6 0.6 0.6 0.6 0.6 0.6 0.6 0.6 0.6 0.6 0.6 0.6 0.6 0.6 0.6
0.6 0.6 0.6 0.6 0.6 0.6 0.6 0.6 0.6 0.6 0.6 0.6 0.6 0.6 0.6 0.6 0.6
0.6 0.6 0.6 0.6 0.6 0.6 0.6 0.6 0.6 0.6 0.6 0.6 0.6 0.6 0.6 0.6 0.6
0.6 0.6 0.6 0.6 0.6 0.6 0.6 0.6 0.6 0.6 0.6 0.6 0.6 0.6 0.6 0.6 0.6
0.6 0.6 0.6 0.6 0.6 0.6 0.6 0.6 0.6 0.6 0.6 0.6 0.6 0.6 0.6 0.6;
#X coords 0 1 100 -1 200 140 1 0 0;
#X restore 928 352 graph;
#X obj 694 341 tabwrite~ arra;
#X obj 652 440 tabread4~ arra;
#X obj 686 299 sig~;
#X obj 763 268 metroo 2;
#X floatatom 759 397 5 0 0 0 - - -;
#X connect 0 0 1 0;
#X connect 0 1 2 0;
#X connect 0 2 3 0;
#X connect 6 0 8 0;
#X connect 6 0 14 0;
#X connect 9 0 8 0;
#X connect 10 0 7 0;
#X connect 10 0 7 1;
#X connect 12 0 11 0;
#X connect 12 0 11 1;
#X connect 14 0 5 0;
#X connect 14 0 4 0;
#X connect 15 0 5 0;
#X connect 15 0 4 0;
#X connect 16 0 21 0;
#X connect 16 0 26 0;
#X connect 16 1 22 0;
#X connect 16 1 27 0;
#X connect 17 0 49 0;
#X connect 18 0 17 0;
#X connect 19 0 18 0;
#X connect 20 0 16 0;
#X connect 21 0 47 0;
#X connect 22 0 48 0;
#X connect 23 0 21 1;
#X connect 23 0 22 1;
#X connect 24 0 25 0;
#X connect 24 0 30 0;
#X connect 28 0 20 0;
#X connect 29 0 20 0;
#X connect 31 0 23 0;
#X connect 33 0 19 1;
#X connect 34 0 20 1;
#X connect 35 0 19 0;
#X connect 35 0 36 0;
#X connect 35 0 41 0;
#X connect 35 0 52 0;
#X connect 35 0 55 0;
#X connect 35 0 56 0;
#X connect 36 0 39 0;
#X connect 37 0 38 0;
#X connect 38 0 44 0;
#X connect 39 0 40 0;
#X connect 40 0 45 0;
#X connect 41 0 37 0;
#X connect 42 0 46 0;
#X connect 43 0 42 0;
#X connect 44 0 21 1;
#X connect 44 0 22 1;
#X connect 45 0 21 1;
#X connect 45 0 22 1;
#X connect 46 0 32 0;
#X connect 47 0 21 1;
#X connect 47 0 22 1;
#X connect 47 0 35 0;
#X connect 48 0 21 1;
#X connect 48 0 22 1;
#X connect 48 0 35 0;
#X connect 49 0 24 0;
#X connect 50 0 12 0;
#X connect 51 0 50 0;
#X connect 56 0 54 0;
#X connect 57 0 54 0;
#X connect 58 0 55 1;
