#N canvas 917 531 911 475 10;
#X obj 757 -80 ctlin;
#X floatatom 727 -54 5 0 0 0 - - -;
#X floatatom 762 -54 5 0 0 0 - - -;
#X floatatom 797 -54 5 0 0 0 - - -;
#X obj 806 39 tgl 15 0 empty empty empty 17 7 0 10 -262144 -1 -1 1
1;
#X msg 743 33 \; pd dsp \$1;
#X obj 743 -29 loadbang;
#X obj 747 108 dac~;
#X obj 760 -8 s lb;
#X obj 802 -28 bng 15 250 50 0 empty empty empty 17 7 0 10 -262144
-1 -1;
#X obj 747 89 *~ 1;
#X obj 741 175 output~;
#X obj 741 151 *~ 1;
#X obj 793 90 adc~;
#X msg 743 11 1;
#X msg 781 11 0;
#X obj 237 -36 noise~;
#X obj 233 55 atod;
#X obj 237 186 vsl 15 128 0 1 0 0 empty empty empty 0 -9 0 10 -262144
-1 -1 12438 1;
#X floatatom 174 219 5 0 0 0 - - -;
#X obj 266 26 shhhh;
#X obj 324 -33 metro;
#X obj 142 -59 tgl 15 0 empty empty empty 17 7 0 10 -262144 -1 -1 1
1;
#X obj 283 165 atod;
#X obj 283 187 vsl 15 128 0 1 0 0 empty empty empty 0 -9 0 10 -262144
-1 -1 6823 1;
#X obj 297 93 linn;
#X obj 148 -24 metroo 10;
#X msg 336 58 50;
#X obj 383 101 *~ 2;
#X obj 330 166 atod;
#X obj 330 188 vsl 15 128 0 1 0 0 empty empty empty 0 -9 0 10 -262144
-1 -1 7297 1;
#X obj 383 83 -~ 0.5;
#X obj 383 120 +~ 0.5;
#X connect 0 0 1 0;
#X connect 0 1 2 0;
#X connect 0 2 3 0;
#X connect 6 0 8 0;
#X connect 6 0 14 0;
#X connect 9 0 8 0;
#X connect 10 0 7 0;
#X connect 10 0 7 1;
#X connect 12 0 11 0;
#X connect 12 0 11 1;
#X connect 14 0 5 0;
#X connect 14 0 4 0;
#X connect 15 0 5 0;
#X connect 15 0 4 0;
#X connect 16 0 20 0;
#X connect 17 0 18 0;
#X connect 17 0 19 0;
#X connect 17 0 25 0;
#X connect 20 0 17 0;
#X connect 22 0 26 0;
#X connect 23 0 24 0;
#X connect 25 0 23 0;
#X connect 25 0 31 0;
#X connect 26 0 20 1;
#X connect 27 0 25 1;
#X connect 28 0 32 0;
#X connect 29 0 30 0;
#X connect 31 0 28 0;
#X connect 32 0 29 0;
