#N canvas 187 403 450 300 10;
#X obj 87 125 vline~;
#X obj 87 85 pack f f;
#X msg 87 105 1 \$1 \, 0 \$2 \$2;
#X obj 87 55 inlet;
#X obj 132 55 inlet;
#X obj 72 20 inlet~;
#X obj 72 148 *~;
#X obj 72 169 outlet~;
#X connect 0 0 6 1;
#X connect 1 0 2 0;
#X connect 2 0 0 0;
#X connect 3 0 1 0;
#X connect 4 0 1 1;
#X connect 5 0 6 0;
#X connect 6 0 7 0;
