#N canvas 190 339 911 475 10;
#X obj 202 242 *~;
#X msg 181 178 0 50;
#X obj 181 204 line~;
#X obj 181 112 t b b;
#X obj 181 135 delay 25;
#X obj 203 282 outlet~;
#X obj 181 64 inlet;
#X msg 208 157 1 2;
#X obj 240 64 inlet;
#X obj 181 87 bang;
#X obj 240 204 osc~ \$1;
#X msg 272 177 432;
#X obj 336 89 loadbang;
#X obj 336 110 f \$1;
#X obj 272 137 == 0;
#X obj 336 177 spigot;
#X msg 369 157 0;
#X msg 341 157 1;
#X obj 272 157 select 1;
#X obj 341 136 select 0;
#X connect 0 0 5 0;
#X connect 1 0 2 0;
#X connect 2 0 0 1;
#X connect 3 0 4 0;
#X connect 3 1 7 0;
#X connect 4 0 1 0;
#X connect 6 0 9 0;
#X connect 7 0 2 0;
#X connect 8 0 10 0;
#X connect 9 0 3 0;
#X connect 10 0 0 0;
#X connect 11 0 10 0;
#X connect 12 0 13 0;
#X connect 13 0 14 0;
#X connect 13 0 15 0;
#X connect 14 0 18 0;
#X connect 14 0 19 0;
#X connect 15 0 10 0;
#X connect 16 0 15 1;
#X connect 17 0 15 1;
#X connect 18 0 11 0;
#X connect 18 0 16 0;
#X connect 19 0 17 0;
