#N canvas 304 394 911 475 10;
#X obj 231 168 *~;
#X msg 210 104 0 50;
#X obj 210 130 line~;
#X obj 210 38 t b b;
#X obj 210 61 delay 25;
#X obj 232 208 outlet~;
#X obj 210 -10 inlet;
#X msg 237 83 1 2;
#X obj 269 -10 inlet;
#X obj 210 13 bang;
#X obj 269 130 osc~ \$1;
#X msg 313 85 432;
#X obj 323 50 loadbang;
#X connect 0 0 5 0;
#X connect 1 0 2 0;
#X connect 2 0 0 1;
#X connect 3 0 4 0;
#X connect 3 1 7 0;
#X connect 4 0 1 0;
#X connect 6 0 9 0;
#X connect 7 0 2 0;
#X connect 8 0 10 0;
#X connect 9 0 3 0;
#X connect 10 0 0 0;
#X connect 11 0 10 0;
#X connect 12 0 11 0;
