#N canvas 0 50 450 300 10;
#X obj 59 119 print;
#X msg 59 80 ------------------------------------------;
#X obj 59 48 bang;
#X obj 59 25 inlet;
#X connect 1 0 0 0;
#X connect 2 0 1 0;
#X connect 3 0 2 0;
