#N canvas 273 362 450 300 10;
#X obj 14 25 inlet;
#X obj 14 131 outlet;
#X msg 14 93 1;
#X msg 43 93 0;
#X obj 43 72 delay 50;
#X obj 88 50 inlet;
#X obj 14 50 bang;
#X connect 0 0 6 0;
#X connect 2 0 1 0;
#X connect 3 0 1 0;
#X connect 4 0 3 0;
#X connect 5 0 4 1;
#X connect 6 0 4 0;
#X connect 6 0 2 0;
