#N canvas 414 371 450 300 10;
#X obj 33 43 div 1;
#X obj 33 65 + 1;
#X obj 33 89 -;
#X obj 59 66 ==;
#X obj 33 21 inlet;
#X obj 33 110 outlet;
#X connect 0 0 1 0;
#X connect 0 0 3 0;
#X connect 1 0 2 0;
#X connect 2 0 5 0;
#X connect 3 0 2 1;
#X connect 4 0 0 0;
