#N canvas 490 432 450 300 10;
#X obj 156 195 metro;
#X obj 188 111 loadbang;
#X obj 215 155 f \$1;
#X obj 188 133 t b b;
#X obj 142 44 inlet;
#X text 196 41 clock speed override;
#X obj 156 219 outlet;
#X msg 188 87 stop;
#X obj 142 64 route start stop;
#X obj 142 100 bang;
#X connect 0 0 6 0;
#X connect 1 0 3 0;
#X connect 2 0 0 1;
#X connect 3 0 0 0;
#X connect 3 1 2 0;
#X connect 4 0 8 0;
#X connect 7 0 0 0;
#X connect 8 0 9 0;
#X connect 8 1 7 0;
#X connect 8 2 0 1;
#X connect 9 0 3 0;
