#N canvas 882 218 838 958 10;
#X obj 152 77 samphold~;
#X obj 152 50 noise~;
#X obj 203 50 vline~;
#X msg 203 24 1 1 \, 0 0 1;
#X obj 176 -24 bang;
#X obj 152 102 /~ 2;
#X text 198 111 << shift range into (0 | 1);
#X text 217 78 << sample and hold;
#X text 256 48 << bang to trigger for the s&h;
#X obj 176 -47 inlet;
#X obj 152 123 +~ 0.5;
#X text 87 -47 bang input >>;
#X obj 152 234 snapshot~;
#X obj 152 275 >;
#X obj 152 297 select 1;
#X obj 217 297 select 1;
#X obj 217 275 <;
#X obj 176 -2 t b b;
#X text 54 51 noise source >>;
#X obj 251 157 loadbang;
#X text 294 183 << initialize probability at 50%;
#X text 16 234 analog to digital >>;
#X obj 360 140 inlet;
#X text 395 256 << if <0 then 0 || if >100 then 100;
#X obj 79 359 outlet;
#X obj 493 387 outlet;
#X text 548 53 NEEDS DEBUGGING;
#X text 355 10 << initialize the sequence;
#X text 419 79 quando usato in un altra patch butta fuori sempore solo
a DX;
#X obj 290 10 loadbang;
#X obj 59 109 knob 32 32 0 1 0 0 empty empty empty 0 -8 0 8 4.24578e+007
4.24574e+007 4.24574e+007 1100 1;
#X text 62 96 comment;
#X msg 250 180 0.5;
#X text 397 140 << probability (0-1);
#X obj 160 342 bng 15 250 50 0 empty empty empty 17 7 0 10 -262144
-1 -1;
#X obj 227 335 bng 15 250 50 0 empty empty empty 17 7 0 10 -262144
-1 -1;
#X obj 51 -15 bng 15 250 50 0 empty empty empty 17 7 0 10 -262144 -1
-1;
#X connect 0 0 5 0;
#X connect 1 0 0 0;
#X connect 2 0 0 1;
#X connect 3 0 2 0;
#X connect 4 0 17 0;
#X connect 5 0 10 0;
#X connect 9 0 4 0;
#X connect 10 0 12 0;
#X connect 12 0 13 0;
#X connect 12 0 16 0;
#X connect 13 0 14 0;
#X connect 14 0 24 0;
#X connect 14 0 34 0;
#X connect 15 0 25 0;
#X connect 15 0 35 0;
#X connect 16 0 15 0;
#X connect 17 0 12 0;
#X connect 17 1 3 0;
#X connect 19 0 32 0;
#X connect 22 0 30 0;
#X connect 29 0 3 0;
#X connect 30 0 13 1;
#X connect 30 0 16 1;
#X connect 32 0 30 0;
#X connect 36 0 4 0;
#X coords 0 -1 1 1 50 50 2 50 100;
