#N canvas 189 158 838 958 10;
#X obj 152 77 samphold~;
#X obj 152 50 noise~;
#X obj 203 50 vline~;
#X msg 203 24 1 1 \, 0 0 1;
#X obj 176 -24 bang;
#X obj 152 102 /~ 2;
#X text 198 111 << shift range into (0 | 1);
#X text 217 78 << sample and hold;
#X text 256 48 << bang to trigger for the s&h;
#X obj 176 -47 inlet;
#X obj 152 123 +~ 0.5;
#X text 87 -47 bang input >>;
#X obj 152 234 snapshot~;
#X obj 152 401 >;
#X obj 152 423 select 1;
#X obj 217 423 select 1;
#X obj 217 401 <;
#X obj 176 -2 t b b;
#X text 54 51 noise source >>;
#X obj 286 268 loadbang;
#X text 338 287 << initialize probability at 50%;
#X text 16 234 analog to digital >>;
#X obj 261 234 inlet;
#X obj 152 478 outlet;
#X obj 217 478 outlet;
#X text 355 10 << initialize the sequence;
#X obj 290 10 loadbang;
#X text 298 234 << probability (0-1) 0=LEFT 1=RIGHT;
#X obj 168 453 bng 15 250 50 0 empty empty empty 17 7 0 10 -262144
-1 -1;
#X obj 234 454 bng 15 250 50 0 empty empty empty 17 7 0 10 -262144
-1 -1;
#X msg 286 287 0.5;
#X connect 0 0 5 0;
#X connect 1 0 0 0;
#X connect 2 0 0 1;
#X connect 3 0 2 0;
#X connect 4 0 17 0;
#X connect 5 0 10 0;
#X connect 9 0 4 0;
#X connect 10 0 12 0;
#X connect 12 0 13 0;
#X connect 12 0 16 0;
#X connect 13 0 14 0;
#X connect 14 0 23 0;
#X connect 14 0 28 0;
#X connect 15 0 24 0;
#X connect 15 0 29 0;
#X connect 16 0 15 0;
#X connect 17 0 12 0;
#X connect 17 1 3 0;
#X connect 19 0 30 0;
#X connect 22 0 13 1;
#X connect 22 0 16 1;
#X connect 26 0 3 0;
#X connect 30 0 13 1;
#X connect 30 0 16 1;
