#N canvas 1003 204 838 958 10;
#X obj 142 47 coinflipp;
#X floatatom 206 1 5 0 0 0 - - -;
#X obj 131 2 bng 15 250 50 0 empty empty empty 17 7 0 10 -262144 -1
-1;
#X obj 133 96 bng 15 250 50 0 empty empty empty 17 7 0 10 -262144 -1
-1;
#X obj 183 89 bng 15 250 50 0 empty empty empty 17 7 0 10 -262144 -1
-1;
#X connect 0 0 3 0;
#X connect 0 1 4 0;
#X connect 1 0 0 1;
#X connect 2 0 0 0;
