#N canvas 1273 0 1278 1348 10;
#X obj 133 165 crossfader;
#X obj 538 288 tgl 15 0 empty empty empty 17 7 0 10 -262144 -1 -1 1
1;
#X msg 475 282 \; pd dsp \$1;
#X obj 475 220 loadbang;
#X obj 492 241 s lb;
#X obj 534 221 bng 15 250 50 0 empty empty empty 17 7 0 10 -262144
-1 -1;
#X msg 475 260 1;
#X msg 513 260 0;
#X text 366 53 Pure-bAo abstractions library - Alessio Occhiodoro 2018
;
#X text 366 67 https://www.youtube.com/c/minijackaudio;
#X obj 70 125 osc~ 432;
#X obj 164 60 hsl 128 15 0 1 0 0 empty empty empty -2 -8 0 10 -262144
-1 -1 3300 1;
#X obj 133 334 dac~;
#X obj 218 125 osc~ 216;
#X obj 133 313 *~ 0;
#X obj 154 285 tgl 15 0 empty empty empty 17 7 0 10 -262144 -1 -1 0
1;
#X text 173 284 sound ON-OFF;
#X text 364 97 CROSSFADER is... a crossfader. Yupp.;
#X text 364 113 Leftmost and rightmost inlets are audio inputs \, in
the middle the fader itself \, values in the range [0//1];
#X text 365 141 0 = LEFT;
#X text 365 157 1 = RIGHT;
#X floatatom 212 87 5 0 0 0 - - -;
#X connect 0 0 14 0;
#X connect 3 0 4 0;
#X connect 3 0 6 0;
#X connect 5 0 4 0;
#X connect 6 0 2 0;
#X connect 6 0 1 0;
#X connect 7 0 2 0;
#X connect 7 0 1 0;
#X connect 10 0 0 0;
#X connect 11 0 0 1;
#X connect 11 0 21 0;
#X connect 13 0 0 2;
#X connect 14 0 12 0;
#X connect 14 0 12 1;
#X connect 15 0 14 1;
