#N canvas -7 0 1278 1348 10;
#X obj 104 27 inlet~;
#X obj 233 27 inlet~;
#X obj 158 217 outlet~;
#X obj 173 76 -;
#X msg 173 55 1;
#X obj 173 26 inlet;
#X obj 158 175 +~;
#X obj 158 142 *~;
#X obj 173 116 line~;
#X obj 250 76 line~;
#X obj 234 101 *~;
#X msg 173 96 \$1 5;
#X msg 250 54 \$1 5;
#X obj 350 53 loadbang;
#X msg 350 76 0.5;
#X text 407 70 << initialize fader in mid position;
#X connect 0 0 7 0;
#X connect 1 0 10 0;
#X connect 3 0 11 0;
#X connect 4 0 3 0;
#X connect 5 0 4 0;
#X connect 5 0 3 1;
#X connect 5 0 12 0;
#X connect 6 0 2 0;
#X connect 7 0 6 0;
#X connect 8 0 7 1;
#X connect 9 0 10 1;
#X connect 10 0 6 1;
#X connect 11 0 8 0;
#X connect 12 0 9 0;
#X connect 13 0 14 0;
#X connect 14 0 4 0;
#X connect 14 0 3 1;
#X connect 14 0 12 0;
