#N canvas 333 674 760 300 10;
#X obj 118 77 inlet;
#X obj 118 120 f;
#X obj 158 120 + 1;
#X obj 118 98 bang;
#X obj 195 77 inlet;
#X text 193 60 sequence lenght;
#X text 117 59 clock;
#X obj 118 239 outlet;
#X obj 133 175 - 1;
#X obj 118 196 ==;
#X obj 118 218 select 1;
#X obj 118 153 % \$1;
#X msg 227 139 0;
#X obj 227 117 bang;
#X obj 303 80 inlet;
#X text 320 98 reset;
#X connect 0 0 3 0;
#X connect 1 0 2 0;
#X connect 1 0 11 0;
#X connect 2 0 1 1;
#X connect 3 0 1 0;
#X connect 4 0 11 1;
#X connect 8 0 9 1;
#X connect 9 0 10 0;
#X connect 10 0 7 0;
#X connect 11 0 9 0;
#X connect 12 0 1 0;
#X connect 13 0 12 0;
#X connect 14 0 13 0;
