#N canvas 1080 200 841 627 10;
#X obj 382 226 tgl 15 0 empty empty empty 17 7 0 10 -262144 -1 -1 1
1;
#X text 410 229 Q;
#X text 557 248 !Q;
#X text 382 61 set;
#X text 525 66 reset;
#X text 323 42 always set output to "1";
#X msg 382 200 1;
#X obj 513 225 == 0;
#X obj 382 126 select 1;
#X obj 382 103 inlet;
#X obj 382 246 outlet;
#X obj 513 246 outlet;
#X obj 382 180 spigot;
#X msg 415 162 0;
#X obj 415 144 loadbang;
#X text 623 105 active-HIGH;
#X obj 511 125 select 1;
#X obj 511 102 inlet;
#X obj 511 179 spigot;
#X msg 544 161 0;
#X obj 544 143 loadbang;
#X obj 241 87 inlet;
#X text 233 67 ENABLE;
#X text 489 43 always set output to "0";
#X connect 0 0 7 0;
#X connect 0 0 10 0;
#X connect 6 0 0 0;
#X connect 7 0 11 0;
#X connect 8 0 12 0;
#X connect 9 0 8 0;
#X connect 12 0 6 0;
#X connect 13 0 12 1;
#X connect 14 0 13 0;
#X connect 16 0 18 0;
#X connect 17 0 16 0;
#X connect 18 0 0 0;
#X connect 19 0 18 1;
#X connect 20 0 19 0;
#X connect 21 0 12 1;
#X connect 21 0 18 1;
