#N canvas 1080 200 841 627 10;
#X obj 105 442 brk;
#X obj 105 416 bng 15 250 50 0 empty empty empty 17 7 0 10 -262144
-1 -1;
#X obj 233 87 tgl 15 0 empty empty empty 17 7 0 10 -262144 -1 -1 1
1;
#X text 225 65 clock;
#X obj 206 43 metroo 400;
#X obj 382 193 tgl 15 0 empty empty empty 17 7 0 10 -262144 -1 -1 0
1;
#X text 410 196 Q;
#X text 570 216 !Q;
#X text 382 61 set;
#X text 525 66 reset;
#X text 323 42 always set output to "1";
#X text 498 46 inverts the output;
#X msg 382 135 1;
#X obj 526 193 == 0;
#X obj 382 111 select 1;
#X obj 382 87 inlet;
#X obj 517 111 select 1;
#X obj 517 87 inlet;
#X obj 382 213 outlet;
#X obj 526 214 outlet;
#X obj 335 438 tgl 15 0 empty empty empty 17 7 0 10 -262144 -1 -1 0
1;
#X obj 333 388 flipflop-sr;
#X connect 1 0 0 0;
#X connect 4 0 2 0;
#X connect 5 0 13 0;
#X connect 5 0 18 0;
#X connect 12 0 5 0;
#X connect 13 0 19 0;
#X connect 14 0 12 0;
#X connect 15 0 14 0;
#X connect 16 0 5 0;
#X connect 17 0 16 0;
#X connect 21 0 20 0;
