#N canvas 1080 200 841 627 10;
#X obj 105 442 brk;
#X obj 105 416 bng 15 250 50 0 empty empty empty 17 7 0 10 -262144
-1 -1;
#X obj 233 87 tgl 15 0 empty empty empty 17 7 0 10 -262144 -1 -1 0
1;
#X text 225 65 clock;
#X obj 206 43 metroo 400;
#X obj 382 226 tgl 15 0 empty empty empty 17 7 0 10 -262144 -1 -1 1
1;
#X text 410 229 Q;
#X text 557 248 !Q;
#X text 382 61 set;
#X text 525 66 reset;
#X text 323 42 always set output to "1";
#X msg 382 200 1;
#X obj 513 225 == 0;
#X obj 382 126 select 1;
#X obj 382 103 inlet;
#X obj 382 246 outlet;
#X obj 513 246 outlet;
#X obj 433 89 tgl 15 0 empty empty empty 17 7 0 10 -262144 -1 -1 0
1;
#X obj 382 180 spigot;
#X msg 415 162 0;
#X obj 415 144 loadbang;
#X text 505 50 inverts the output's current state;
#X text 709 98 active-HIGH;
#X obj 511 125 select 1;
#X obj 511 102 inlet;
#X obj 562 88 tgl 15 0 empty empty empty 17 7 0 10 -262144 -1 -1 1
1;
#X obj 511 179 spigot;
#X msg 544 161 0;
#X obj 544 143 loadbang;
#X connect 1 0 0 0;
#X connect 2 0 18 1;
#X connect 2 0 26 1;
#X connect 5 0 12 0;
#X connect 5 0 15 0;
#X connect 11 0 5 0;
#X connect 12 0 16 0;
#X connect 13 0 18 0;
#X connect 14 0 13 0;
#X connect 17 0 13 0;
#X connect 18 0 11 0;
#X connect 19 0 18 1;
#X connect 20 0 19 0;
#X connect 23 0 26 0;
#X connect 24 0 23 0;
#X connect 25 0 23 0;
#X connect 26 0 5 0;
#X connect 27 0 26 1;
#X connect 28 0 27 0;
