#N canvas 715 538 841 627 10;
#X obj 118 183 tgl 15 0 empty empty empty 17 7 0 10 -262144 -1 -1 1
1;
#X text 146 186 Q;
#X text 306 206 !Q;
#X text 118 51 set;
#X text 261 54 reset;
#X text 59 32 always set output to "1";
#X msg 118 125 1;
#X obj 262 183 == 0;
#X obj 118 101 select 1;
#X obj 118 77 inlet;
#X obj 253 99 select 1;
#X obj 253 75 inlet;
#X obj 118 203 outlet;
#X obj 262 204 outlet;
#X obj 57 101 loadbang;
#X text 385 102 active-HIGH;
#X text 231 34 always set output to "0";
#X msg 253 120 0;
#X text 376 128 clocked - SR;
#X connect 0 0 7 0;
#X connect 0 0 12 0;
#X connect 6 0 0 0;
#X connect 7 0 13 0;
#X connect 8 0 6 0;
#X connect 9 0 8 0;
#X connect 10 0 17 0;
#X connect 11 0 10 0;
#X connect 14 0 6 0;
#X connect 17 0 0 0;
