#N canvas 1073 743 627 444 10;
#X obj 221 187 f \$1;
#X obj 221 165 loadbang;
#X obj 206 232 f;
#X obj 205 253 - 1;
#X obj 118 343 outlet;
#X obj 201 352 outlet;
#X obj 38 19 inlet;
#X msg 141 129 stop;
#X obj 96 40 route bang;
#X obj 95 85 route start stop;
#X obj 96 63 route 1 0;
#X obj 95 129 bang;
#X obj 141 107 bang;
#X obj 131 198 metro 100;
#X msg 203 331 stop;
#X obj 95 150 t b b;
#X text 240 100 https://github.com/noizhardware/floow;
#X text 236 75 a frag is 4min 48sec = 4.8min = 288000ms;
#X obj 221 208 * 2880;
#X obj 118 309 / 2880;
#X text 231 372 BANG when time's over;
#X obj 229 280 <= 0;
#X obj 229 304 select 1;
#X text 15 375 remaining frags (norm to 1);
#X msg 40 195 stop;
#X obj 34 232 bng 15 250 50 0 empty empty empty 17 7 0 10 -262144 -1
-1;
#X obj -30 87 route pause unpause;
#X obj 242 24 inlet;
#X connect 0 0 18 0;
#X connect 1 0 0 0;
#X connect 2 0 3 0;
#X connect 3 0 2 1;
#X connect 3 0 19 0;
#X connect 3 0 21 0;
#X connect 6 0 9 0;
#X connect 6 0 10 0;
#X connect 6 0 8 0;
#X connect 6 0 26 0;
#X connect 7 0 13 0;
#X connect 8 0 11 0;
#X connect 9 0 11 0;
#X connect 9 1 12 0;
#X connect 10 0 11 0;
#X connect 10 1 7 0;
#X connect 11 0 15 0;
#X connect 12 0 7 0;
#X connect 13 0 2 0;
#X connect 14 0 13 0;
#X connect 15 0 13 0;
#X connect 15 1 0 0;
#X connect 18 0 2 1;
#X connect 19 0 4 0;
#X connect 21 0 22 0;
#X connect 22 0 5 0;
#X connect 22 0 14 0;
#X connect 24 0 13 0;
#X connect 25 0 13 0;
#X connect 26 0 24 0;
#X connect 26 1 13 0;
#X connect 27 0 0 1;
