#N canvas 335 389 450 300 10;
#X obj 120 11 inlet;
#X obj 175 133 f;
#X obj 175 154 + 1;
#X obj 183 42 route reset;
#X msg 185 95 0;
#X obj 332 119 f \$1;
#X obj 332 96 loadbang;
#X obj 179 252 outlet;
#X floatatom 92 204 5 0 0 0 - - -;
#X obj 235 71 bang;
#X obj 183 63 t b b;
#X msg 199 5 reset;
#X obj 171 6 bng 15 250 50 0 empty empty empty 17 7 0 10 -262144 -1
-1;
#X obj 244 114 loadbang;
#X obj 332 140 route 0;
#X msg 332 161 1;
#X msg 41 271 TODO: when you change the increment amount \, it should
not reset!;
#X connect 0 0 3 0;
#X connect 1 0 2 0;
#X connect 1 0 8 0;
#X connect 1 0 7 0;
#X connect 2 0 1 1;
#X connect 3 0 10 0;
#X connect 3 1 9 0;
#X connect 4 0 1 1;
#X connect 5 0 14 0;
#X connect 6 0 5 0;
#X connect 9 0 1 0;
#X connect 10 0 1 0;
#X connect 10 1 4 0;
#X connect 11 0 3 0;
#X connect 12 0 3 0;
#X connect 13 0 4 0;
#X connect 14 0 15 0;
#X connect 14 1 2 1;
#X connect 15 0 2 1;
