#N canvas 593 0 1967 1357 10;
#X obj 99 151 -;
#X msg 99 116 1;
#X obj 99 63 inlet;
#X obj 99 182 outlet;
#X obj 99 93 t b f;
#X connect 0 0 3 0;
#X connect 1 0 0 0;
#X connect 2 0 4 0;
#X connect 4 0 1 0;
#X connect 4 1 0 1;
