#N canvas 376 409 1030 588 10;
#X obj 124 14 inlet;
#X obj 169 71 inlet;
#X obj 252 55 loadbang;
#X obj 123 217 vline~;
#X obj 124 344 outlet~;
#X obj 252 136 f \$1;
#X obj 127 117 pack f f;
#X obj 252 76 t b b;
#X msg 127 138 \$1 \$2;
#X msg 227 108 2;
#X obj 187 96 bang;
#X connect 0 0 6 0;
#X connect 1 0 6 1;
#X connect 1 0 10 0;
#X connect 2 0 7 0;
#X connect 3 0 4 0;
#X connect 5 0 6 1;
#X connect 6 0 8 0;
#X connect 7 0 9 0;
#X connect 7 1 5 0;
#X connect 8 0 3 0;
#X connect 9 0 5 1;
#X connect 10 0 7 0;
