#N canvas 353 38 735 1348 10;
#X msg 155 384 stop;
#X msg 108 384 start;
#X obj 107 141 openpanel;
#X msg 107 297 set open snd/THEAMEN.wav;
#X obj 99 264 t b b;
#X msg 99 325 open snd/THEAMEN.wav;
#X obj 176 413 t b b;
#X obj 107 48 inlet;
#X obj 189 48 inlet;
#X obj 230 48 inlet;
#X obj 99 413 readsf~ 2;
#X obj 100 483 outlet~;
#X obj 156 483 outlet~;
#X obj 108 363 t b b;
#X obj 107 119 bang;
#X obj 212 483 outlet;
#X obj 189 77 bang;
#X obj 230 98 bang;
#X obj 99 244 delay 1;
#X msg 107 188 set set open \$1;
#X obj 107 163 pack s;
#X obj 99 219 bang;
#X obj 148 48 inlet;
#X connect 0 0 10 0;
#X connect 1 0 10 0;
#X connect 2 0 20 0;
#X connect 3 0 5 0;
#X connect 4 0 5 0;
#X connect 4 1 3 0;
#X connect 5 0 10 0;
#X connect 6 0 1 0;
#X connect 6 1 5 0;
#X connect 7 0 14 0;
#X connect 8 0 16 0;
#X connect 9 0 17 0;
#X connect 10 0 11 0;
#X connect 10 1 12 0;
#X connect 10 2 6 0;
#X connect 10 2 15 0;
#X connect 13 0 1 0;
#X connect 13 1 5 0;
#X connect 14 0 2 0;
#X connect 16 0 13 0;
#X connect 17 0 0 0;
#X connect 18 0 4 0;
#X connect 19 0 3 0;
#X connect 19 0 21 0;
#X connect 20 0 19 0;
#X connect 21 0 18 0;
#X connect 22 0 20 0;
