#N canvas 0 0 2556 1357 10;
#X obj 146 304 bng 15 250 50 0 empty empty empty 17 7 0 10 -262144
-1 -1;
#X msg 84 258 stop;
#X msg 37 258 start;
#X obj 29 138 openpanel;
#X obj 29 119 bng 15 250 50 0 empty empty empty 17 7 0 10 -262144 -1
-1;
#X obj 178 134 bng 15 250 50 0 empty empty empty 17 7 0 10 -262144
-1 -1;
#X msg 29 184 set open D:/SAMPLES/drumLoopz/bob01.wav;
#X msg 29 161 set set open \$1;
#X obj 137 108 t b b;
#X msg 29 212 open D:/SAMPLES/drumLoopz/bob01.wav;
#X obj 170 304 t b b;
#X text -5 90 bang to load your own loop;
#X obj -14 40 inlet;
#X obj 74 42 inlet;
#X obj 135 43 inlet;
#X text 345 66 BANG:;
#X text 297 88 load loop - START - STOP;
#X obj 28 287 readsf~ 2;
#X obj 29 357 outlet~;
#X obj 85 357 outlet~;
#X obj 153 244 t b b;
#X connect 0 0 10 0;
#X connect 1 0 17 0;
#X connect 2 0 17 0;
#X connect 3 0 7 0;
#X connect 4 0 3 0;
#X connect 5 0 6 0;
#X connect 6 0 9 0;
#X connect 7 0 6 0;
#X connect 7 0 8 0;
#X connect 8 0 9 0;
#X connect 8 1 5 0;
#X connect 9 0 17 0;
#X connect 10 0 2 0;
#X connect 10 1 9 0;
#X connect 12 0 4 0;
#X connect 13 0 20 0;
#X connect 14 0 1 0;
#X connect 17 0 18 0;
#X connect 17 1 19 0;
#X connect 17 2 0 0;
#X connect 20 0 2 0;
#X connect 20 1 9 0;
