#N canvas 1193 74 735 1348 10;
#X msg 155 384 stop;
#X msg 108 384 start;
#X obj 107 141 openpanel;
#X msg 107 297 set open R:/SAMPLES_000/drumLoopz/bob01.wav;
#X obj 99 264 t b b;
#X msg 99 325 open R:/SAMPLES_000/drumLoopz/bob01.wav;
#X obj 176 413 t b b;
#X obj -43 18 inlet;
#X obj 99 413 readsf~ 2;
#X obj 100 483 outlet~;
#X obj 156 483 outlet~;
#X obj 108 363 t b b;
#X obj 107 119 bang;
#X obj 212 483 outlet;
#X obj 14 86 bang;
#X obj 60 86 bang;
#X obj 99 244 delay 1;
#X msg 107 188 set set open \$1;
#X obj 107 163 pack s;
#X obj 99 219 bang;
#X obj 14 62 route start stop;
#X obj 107 89 route load;
#X obj -43 39 route bang;
#X msg -43 -4 version "201912032310";
#X connect 0 0 8 0;
#X connect 1 0 8 0;
#X connect 2 0 18 0;
#X connect 3 0 5 0;
#X connect 4 0 5 0;
#X connect 4 1 3 0;
#X connect 5 0 8 0;
#X connect 6 0 1 0;
#X connect 6 1 5 0;
#X connect 7 0 22 0;
#X connect 8 0 9 0;
#X connect 8 1 10 0;
#X connect 8 2 6 0;
#X connect 8 2 13 0;
#X connect 11 0 1 0;
#X connect 11 1 5 0;
#X connect 12 0 2 0;
#X connect 14 0 11 0;
#X connect 15 0 0 0;
#X connect 16 0 4 0;
#X connect 17 0 3 0;
#X connect 17 0 19 0;
#X connect 18 0 17 0;
#X connect 19 0 16 0;
#X connect 20 0 14 0;
#X connect 20 1 15 0;
#X connect 20 2 21 0;
#X connect 21 0 12 0;
#X connect 21 1 18 0;
#X connect 22 1 20 0;
