#N canvas 662 676 450 300 10;
#X obj 190 196 metro;
#X obj 298 158 f \$1;
#X obj 298 135 loadbang;
#X obj 121 16 inlet;
#X msg 190 157 stop;
#X obj 190 244 outlet;
#X obj 217 17 inlet;
#X obj 25 61 route bang;
#X obj 121 78 route start stop;
#X obj 150 110 route 1 0;
#X obj 150 157 bang;
#X obj 190 130 bang;
#X connect 0 0 5 0;
#X connect 1 0 0 1;
#X connect 2 0 1 0;
#X connect 2 0 0 0;
#X connect 3 0 8 0;
#X connect 3 0 9 0;
#X connect 3 0 7 0;
#X connect 4 0 0 0;
#X connect 6 0 0 1;
#X connect 7 0 10 0;
#X connect 8 0 10 0;
#X connect 8 1 11 0;
#X connect 9 0 10 0;
#X connect 9 1 4 0;
#X connect 10 0 0 0;
#X connect 11 0 4 0;
