#N canvas -253 147 2560 1357 10;
#X obj 765 487 f \$1;
#X obj 773 449 loadbang;
#X obj 757 523 * 600;
#X obj 755 557 f;
#X obj 756 596 - 1;
#X obj 769 634 select 0;
#X obj 684 727 outlet;
#X obj 770 679 outlet;
#X obj 491 270 inlet;
#X msg 539 422 stop;
#X obj 365 315 route bang;
#X obj 461 332 route start stop;
#X obj 399 276 route 1 0;
#X obj 490 418 bang;
#X obj 539 384 bang;
#X obj 648 531 metro 100;
#X obj 703 677 / 10;
#X obj 572 275 bng 15 250 50 0 empty empty empty 17 7 0 10 -262144
-1 -1;
#X floatatom 771 739 5 0 0 0 - - -;
#X msg 863 473 0.1;
#X obj 652 582 bng 15 250 50 0 empty empty empty 17 7 0 10 -262144
-1 -1;
#X connect 0 0 2 0;
#X connect 1 0 0 0;
#X connect 2 0 3 1;
#X connect 3 0 4 0;
#X connect 4 0 3 1;
#X connect 4 0 5 0;
#X connect 4 0 16 0;
#X connect 5 0 7 0;
#X connect 5 0 9 0;
#X connect 8 0 11 0;
#X connect 8 0 12 0;
#X connect 9 0 15 0;
#X connect 10 0 13 0;
#X connect 11 0 13 0;
#X connect 11 1 14 0;
#X connect 12 0 13 0;
#X connect 12 1 9 0;
#X connect 13 0 15 0;
#X connect 14 0 9 0;
#X connect 15 0 3 0;
#X connect 15 0 20 0;
#X connect 16 0 6 0;
#X connect 16 0 18 0;
#X connect 17 0 15 0;
#X connect 19 0 2 0;
