#N canvas -147 283 2560 1357 10;
#X obj 773 471 f \$1;
#X obj 773 449 loadbang;
#X obj 773 492 * 600;
#X obj 758 516 f;
#X obj 758 541 - 1;
#X obj 712 655 outlet;
#X obj 758 655 outlet;
#X obj 596 276 inlet;
#X msg 699 386 stop;
#X obj 654 297 route bang;
#X obj 653 342 route start stop;
#X obj 654 320 route 1 0;
#X obj 653 386 bang;
#X obj 699 364 bang;
#X obj 675 489 metro 100;
#X obj 712 591 / 10;
#X msg 770 634 stop;
#X obj 653 407 t b b;
#X obj 758 591 select 1;
#X obj 758 569 <= 0;
#X text 770 676 BANG when time's up;
#X text 635 678 remaining seconds;
#X connect 0 0 2 0;
#X connect 1 0 0 0;
#X connect 2 0 3 1;
#X connect 3 0 4 0;
#X connect 4 0 3 1;
#X connect 4 0 15 0;
#X connect 4 0 19 0;
#X connect 7 0 10 0;
#X connect 7 0 11 0;
#X connect 7 0 9 0;
#X connect 8 0 14 0;
#X connect 9 0 12 0;
#X connect 10 0 12 0;
#X connect 10 1 13 0;
#X connect 11 0 12 0;
#X connect 11 1 8 0;
#X connect 12 0 17 0;
#X connect 13 0 8 0;
#X connect 14 0 3 0;
#X connect 15 0 5 0;
#X connect 16 0 14 0;
#X connect 17 0 14 0;
#X connect 17 1 0 0;
#X connect 18 0 6 0;
#X connect 18 0 16 0;
#X connect 19 0 18 0;
