#N canvas 674 652 450 300 10;
#X obj 84 51 inlet~;
#X obj 147 50 inlet~;
#X obj 208 54 inlet~;
#X obj 271 53 inlet~;
#X obj 333 52 inlet~;
#X obj 103 122 *~;
#X obj 180 130 *~;
#X obj 198 197 *~;
#X obj 275 205 *~;
#X obj 274 245 outlet~;
#X connect 0 0 5 0;
#X connect 1 0 5 1;
#X connect 2 0 6 1;
#X connect 3 0 7 1;
#X connect 4 0 8 1;
#X connect 5 0 6 0;
#X connect 6 0 7 0;
#X connect 7 0 8 0;
#X connect 8 0 9 0;
