#N canvas 210 95 1091 1167 10;
#X obj 330 561 ==;
#X obj 363 503 t b f;
#X obj 328 528 f 0;
#X obj 403 414 t b f;
#X obj 362 449 &;
#X obj 342 414 f;
#X text 438 435 AND;
#X text 405 526 NOT;
#X obj 363 333 inlet;
#X obj 429 340 inlet;
#X obj 330 582 outlet;
#X obj 349 376 f;
#X obj 412 377 f;
#X obj 343 172 loadbang;
#X msg 324 199 0;
#X obj 275 292 bang~;
#X connect 0 0 10 0;
#X connect 1 0 2 0;
#X connect 1 1 0 1;
#X connect 2 0 0 0;
#X connect 3 0 5 0;
#X connect 3 1 4 1;
#X connect 4 0 1 0;
#X connect 5 0 4 0;
#X connect 8 0 11 1;
#X connect 9 0 12 1;
#X connect 11 0 5 0;
#X connect 12 0 3 0;
#X connect 13 0 14 0;
#X connect 14 0 11 1;
#X connect 14 0 12 1;
#X connect 15 0 11 0;
#X connect 15 0 12 0;
