#N canvas -7 0 1278 1348 10;
#X obj 660 234 tgl 15 0 empty empty empty 17 7 0 10 -262144 -1 -1 1
1;
#X msg 597 228 \; pd dsp \$1;
#X obj 597 166 loadbang;
#X obj 614 187 s lb;
#X obj 656 167 bng 15 250 50 0 empty empty empty 17 7 0 10 -262144
-1 -1;
#X msg 597 206 1;
#X msg 635 206 0;
#X text 488 32 Pure-bAo abstractions library - Alessio Occhiodoro 2018
;
#X text 488 46 https://www.youtube.com/c/minijackaudio;
#X text 486 76 ATOD performs Analog TO Digital conversion.;
#X text 487 95 A signal in the inlet is converted in a stream of floating
point values on the outlet at DSP-cycle frequency.;
#X obj 185 108 nanok3;
#X obj 82 272 r s1f1;
#X obj 82 299 vsl 15 64 0 127 0 0 empty empty empty 0 -9 0 10 -262144
-1 -1 0 1;
#X obj 125 299 vsl 15 64 0 127 0 0 empty empty empty 0 -9 0 10 -262144
-1 -1 0 1;
#X obj 125 272 r s1f2;
#X obj 168 299 vsl 15 64 0 127 0 0 empty empty empty 0 -9 0 10 -262144
-1 -1 0 1;
#X obj 211 299 vsl 15 64 0 127 0 0 empty empty empty 0 -9 0 10 -262144
-1 -1 0 1;
#X obj 254 299 vsl 15 64 0 127 0 0 empty empty empty 0 -9 0 10 -262144
-1 -1 0 1;
#X obj 297 299 vsl 15 64 0 127 0 0 empty empty empty 0 -9 0 10 -262144
-1 -1 0 1;
#X obj 340 299 vsl 15 64 0 127 0 0 empty empty empty 0 -9 0 10 -262144
-1 -1 0 1;
#X obj 383 299 vsl 15 64 0 127 0 0 empty empty empty 0 -9 0 10 -262144
-1 -1 0 1;
#X obj 426 299 vsl 15 64 0 127 0 0 empty empty empty 0 -9 0 10 -262144
-1 -1 0 1;
#X obj 168 272 r s1f3;
#X obj 211 272 r s1f4;
#X obj 253 272 r s1f5;
#X obj 297 272 r s1f6;
#X obj 340 272 r s1f7;
#X obj 383 272 r s1f8;
#X obj 426 272 r s1f9;
#X obj 85 249 hsl 32 15 0 127 0 0 empty empty empty -2 -8 0 10 -262144
-1 -1 0 1;
#X obj 82 229 r s1k1;
#X obj 128 249 hsl 32 15 0 127 0 0 empty empty empty -2 -8 0 10 -262144
-1 -1 0 1;
#X obj 172 249 hsl 32 15 0 127 0 0 empty empty empty -2 -8 0 10 -262144
-1 -1 0 1;
#X obj 215 249 hsl 32 15 0 127 0 0 empty empty empty -2 -8 0 10 -262144
-1 -1 0 1;
#X obj 258 249 hsl 32 15 0 127 0 0 empty empty empty -2 -8 0 10 -262144
-1 -1 0 1;
#X obj 301 249 hsl 32 15 0 127 0 0 empty empty empty -2 -8 0 10 -262144
-1 -1 0 1;
#X obj 345 249 hsl 32 15 0 127 0 0 empty empty empty -2 -8 0 10 -262144
-1 -1 0 1;
#X obj 388 249 hsl 32 15 0 127 0 0 empty empty empty -2 -8 0 10 -262144
-1 -1 0 1;
#X obj 431 248 hsl 32 15 0 127 0 0 empty empty empty -2 -8 0 10 -262144
-1 -1 0 1;
#X obj 125 229 r s1k2;
#X obj 169 229 r s1k3;
#X obj 212 229 r s1k4;
#X obj 255 229 r s1k5;
#X obj 298 229 r s1k6;
#X obj 342 229 r s1k7;
#X obj 428 228 r s1k9;
#X obj 385 229 r s1k8;
#X obj 181 484 r s1b1;
#X obj 181 517 bng 15 250 50 0 empty empty empty 17 7 0 10 -262144
-1 -1;
#X connect 2 0 3 0;
#X connect 2 0 5 0;
#X connect 4 0 3 0;
#X connect 5 0 1 0;
#X connect 5 0 0 0;
#X connect 6 0 1 0;
#X connect 6 0 0 0;
#X connect 12 0 13 0;
#X connect 15 0 14 0;
#X connect 23 0 16 0;
#X connect 24 0 17 0;
#X connect 25 0 18 0;
#X connect 26 0 19 0;
#X connect 27 0 20 0;
#X connect 28 0 21 0;
#X connect 29 0 22 0;
#X connect 31 0 30 0;
#X connect 40 0 32 0;
#X connect 41 0 33 0;
#X connect 42 0 34 0;
#X connect 43 0 35 0;
#X connect 44 0 36 0;
#X connect 45 0 37 0;
#X connect 46 0 39 0;
#X connect 47 0 38 0;
#X connect 48 0 49 0;
