#N canvas 513 77 1279 575 10;
#X obj 51 89 ctlin 2;
#X obj 148 89 ctlin 3;
#X obj 245 89 ctlin 4;
#X obj 342 89 ctlin 5;
#X obj 438 89 ctlin 6;
#X obj 541 89 ctlin 8;
#X obj 638 89 ctlin 9;
#X obj 737 91 ctlin 12;
#X obj 837 89 ctlin 13;
#X obj 52 122 s s1;
#X obj 146 122 s s2;
#X obj 246 119 s s3;
#X obj 343 121 s s4;
#X obj 442 121 s s5;
#X obj 545 118 s s6;
#X obj 640 119 s s7;
#X obj 738 119 s s8;
#X obj 833 120 s s9;
#X obj 50 12 ctlin 14;
#X obj 147 12 ctlin 15;
#X obj 244 12 ctlin 16;
#X obj 341 12 ctlin 17;
#X obj 437 12 ctlin 18;
#X obj 540 12 ctlin 19;
#X obj 637 12 ctlin 20;
#X obj 736 14 ctlin 21;
#X obj 836 12 ctlin 22;
#X obj 52 50 s k1;
#X obj 146 50 s k2;
#X obj 246 47 s k3;
#X obj 343 49 s k4;
#X obj 442 49 s k5;
#X obj 545 46 s k6;
#X obj 640 47 s k7;
#X obj 738 47 s k8;
#X obj 833 48 s k9;
#X obj 45 151 ctlin 14;
#X obj 162 151 ctlin 15;
#X obj 264 151 ctlin 16;
#X obj 362 152 ctlin 17;
#X obj 461 151 ctlin 18;
#X obj 564 150 ctlin 19;
#X obj 662 153 ctlin 20;
#X obj 768 152 ctlin 21;
#X obj 867 152 ctlin 22;
#X obj 45 216 s uk1;
#X obj 45 184 expr ($f1/127);
#X obj 160 182 expr ($f1/127);
#X obj 264 185 expr ($f1/127);
#X obj 366 186 expr ($f1/127);
#X obj 463 186 expr ($f1/127);
#X obj 565 185 expr ($f1/127);
#X obj 665 185 expr ($f1/127);
#X obj 767 185 expr ($f1/127);
#X obj 867 185 expr ($f1/127);
#X obj 161 214 s uk2;
#X obj 264 217 s uk3;
#X obj 366 218 s uk4;
#X obj 463 218 s uk5;
#X obj 565 217 s uk6;
#X obj 767 217 s uk8;
#X obj 867 217 s uk9;
#X obj 43 296 expr ($f1/127);
#X obj 158 294 expr ($f1/127);
#X obj 262 297 expr ($f1/127);
#X obj 364 298 expr ($f1/127);
#X obj 461 298 expr ($f1/127);
#X obj 563 297 expr ($f1/127);
#X obj 663 297 expr ($f1/127);
#X obj 765 297 expr ($f1/127);
#X obj 865 297 expr ($f1/127);
#X obj 44 255 ctlin 2;
#X obj 162 259 ctlin 3;
#X obj 268 259 ctlin 4;
#X obj 365 260 ctlin 5;
#X obj 465 260 ctlin 6;
#X obj 566 260 ctlin 8;
#X obj 666 263 ctlin 9;
#X obj 763 263 ctlin 12;
#X obj 864 258 ctlin 13;
#X obj 43 328 s us1;
#X obj 159 326 s us2;
#X obj 262 329 s us3;
#X obj 364 330 s us4;
#X obj 461 330 s us5;
#X obj 563 329 s us6;
#X obj 663 329 s us7;
#X obj 765 329 s us8;
#X obj 865 329 s us9;
#X obj 665 217 s uk7;
#X obj 1036 27 r k5;
#X floatatom 1039 61 5 0 0 0 - - -;
#X obj 828 423 float;
#X obj 866 425 + 1;
#X obj 826 445 mod 2;
#X obj 835 478 spigot;
#X obj 835 501 bng 15 250 50 0 empty empty empty 17 7 0 10 -262144
-1 -1;
#X obj 828 376 ctlin 33;
#X msg 879 457 1;
#X obj 827 399 t b b;
#X obj 918 439 loadbang;
#X obj 835 520 s ab1;
#X connect 0 0 9 0;
#X connect 1 0 10 0;
#X connect 2 0 11 0;
#X connect 3 0 12 0;
#X connect 4 0 13 0;
#X connect 5 0 14 0;
#X connect 6 0 15 0;
#X connect 7 0 16 0;
#X connect 8 0 17 0;
#X connect 18 0 27 0;
#X connect 19 0 28 0;
#X connect 20 0 29 0;
#X connect 21 0 30 0;
#X connect 22 0 31 0;
#X connect 23 0 32 0;
#X connect 24 0 33 0;
#X connect 25 0 34 0;
#X connect 26 0 35 0;
#X connect 36 0 46 0;
#X connect 37 0 47 0;
#X connect 38 0 48 0;
#X connect 39 0 49 0;
#X connect 40 0 50 0;
#X connect 41 0 51 0;
#X connect 42 0 52 0;
#X connect 43 0 53 0;
#X connect 44 0 54 0;
#X connect 46 0 45 0;
#X connect 47 0 55 0;
#X connect 48 0 56 0;
#X connect 49 0 57 0;
#X connect 50 0 58 0;
#X connect 51 0 59 0;
#X connect 52 0 89 0;
#X connect 53 0 60 0;
#X connect 54 0 61 0;
#X connect 62 0 80 0;
#X connect 63 0 81 0;
#X connect 64 0 82 0;
#X connect 65 0 83 0;
#X connect 66 0 84 0;
#X connect 67 0 85 0;
#X connect 68 0 86 0;
#X connect 69 0 87 0;
#X connect 70 0 88 0;
#X connect 71 0 62 0;
#X connect 72 0 63 0;
#X connect 73 0 64 0;
#X connect 74 0 65 0;
#X connect 75 0 66 0;
#X connect 76 0 67 0;
#X connect 77 0 68 0;
#X connect 78 0 69 0;
#X connect 79 0 70 0;
#X connect 90 0 91 0;
#X connect 92 0 93 0;
#X connect 92 0 94 0;
#X connect 93 0 92 1;
#X connect 94 0 95 1;
#X connect 95 0 96 0;
#X connect 96 0 101 0;
#X connect 97 0 99 0;
#X connect 98 0 95 1;
#X connect 99 0 92 0;
#X connect 99 1 95 0;
#X connect 100 0 98 0;
