#N canvas -7 0 1278 1348 10;
#X obj 643 -89 ctlin;
#X floatatom 621 -65 5 0 0 0 - - -;
#X floatatom 656 -65 5 0 0 0 - - -;
#X floatatom 691 -65 5 0 0 0 - - -;
#X obj 114 263 float;
#X obj 152 263 + 1;
#X obj 114 282 mod 2;
#X obj 114 301 spigot;
#X obj 114 221 ctlin 33;
#X msg 164 301 1;
#X obj 114 244 t b b;
#X obj 164 282 loadbang;
#X obj 1268 268 loadbang;
#X obj 1268 490 loadbang;
#X text 992 9 senda blocchetti di controllo \, scena + valore/bang
;
#X text 995 33 ad es \, s1b3 è il tasto 3 nella scena 1;
#X text 997 56 s2f4 è il fader 4 della scena 2;
#X obj 117 -135 float;
#X obj 156 -135 + 1;
#X obj 117 -115 mod 2;
#X obj 84 -93 spigot;
#X obj 84 -74 bng 15 250 50 0 empty empty empty 17 7 0 10 -262144 -1
-1;
#X msg 156 -93 1;
#X obj 117 -155 t b b;
#X obj 156 -115 loadbang;
#X obj 117 -176 ctlin 47;
#X obj 84 -54 s rew;
#X obj 268 -134 float;
#X obj 306 -132 + 1;
#X obj 266 -112 mod 2;
#X obj 275 -79 spigot;
#X obj 275 -56 bng 15 250 50 0 empty empty empty 17 7 0 10 -262144
-1 -1;
#X msg 319 -100 1;
#X obj 267 -158 t b b;
#X obj 340 -120 loadbang;
#X obj 268 -181 ctlin 45;
#X obj 277 -32 s plaay;
#X obj 412 -138 float;
#X obj 450 -136 + 1;
#X obj 410 -116 mod 2;
#X obj 419 -83 spigot;
#X obj 419 -60 bng 15 250 50 0 empty empty empty 17 7 0 10 -262144
-1 -1;
#X msg 463 -104 1;
#X obj 411 -162 t b b;
#X obj 484 -124 loadbang;
#X obj 412 -185 ctlin 48;
#X obj 421 -36 s ffw;
#X obj 121 47 float;
#X obj 159 49 + 1;
#X obj 119 69 mod 2;
#X obj 128 102 spigot;
#X obj 128 125 bng 15 250 50 0 empty empty empty 17 7 0 10 -262144
-1 -1;
#X msg 172 81 1;
#X obj 120 23 t b b;
#X obj 193 61 loadbang;
#X obj 271 44 float;
#X obj 309 46 + 1;
#X obj 269 66 mod 2;
#X obj 278 99 spigot;
#X obj 278 122 bng 15 250 50 0 empty empty empty 17 7 0 10 -262144
-1 -1;
#X msg 322 78 1;
#X obj 270 20 t b b;
#X obj 343 58 loadbang;
#X obj 415 40 float;
#X obj 453 42 + 1;
#X obj 413 62 mod 2;
#X obj 422 95 spigot;
#X obj 422 118 bng 15 250 50 0 empty empty empty 17 7 0 10 -262144
-1 -1;
#X msg 466 74 1;
#X obj 414 16 t b b;
#X obj 487 54 loadbang;
#X obj 121 0 ctlin 49;
#X obj 128 148 s woo;
#X obj 271 -3 ctlin 46;
#X obj 278 145 s stoop;
#X obj 415 -7 ctlin 44;
#X obj 424 142 s reec;
#X text 898 -31 i tasti speciali sono REW PLAAY FFW WOO STOOP REEC
;
#X obj 115 684 float;
#X obj 153 686 + 1;
#X obj 113 706 mod 2;
#X obj 122 739 spigot;
#X obj 122 762 bng 15 250 50 0 empty empty empty 17 7 0 10 -262144
-1 -1;
#X msg 166 718 1;
#X obj 114 660 t b b;
#X obj 187 698 loadbang;
#X obj 251 686 float;
#X obj 289 688 + 1;
#X obj 249 708 mod 2;
#X obj 258 741 spigot;
#X obj 258 764 bng 15 250 50 0 empty empty empty 17 7 0 10 -262144
-1 -1;
#X msg 302 720 1;
#X obj 250 662 t b b;
#X obj 323 698 loadbang;
#X obj 384 683 float;
#X obj 422 685 + 1;
#X obj 382 705 mod 2;
#X obj 391 738 spigot;
#X obj 391 761 bng 15 250 50 0 empty empty empty 17 7 0 10 -262144
-1 -1;
#X msg 435 717 1;
#X obj 383 659 t b b;
#X obj 456 697 loadbang;
#X obj 519 681 float;
#X obj 557 683 + 1;
#X obj 517 703 mod 2;
#X obj 526 736 spigot;
#X obj 526 759 bng 15 250 50 0 empty empty empty 17 7 0 10 -262144
-1 -1;
#X msg 570 715 1;
#X obj 518 657 t b b;
#X obj 591 693 loadbang;
#X obj 652 678 float;
#X obj 690 680 + 1;
#X obj 650 700 mod 2;
#X obj 659 733 spigot;
#X obj 659 756 bng 15 250 50 0 empty empty empty 17 7 0 10 -262144
-1 -1;
#X msg 703 712 1;
#X obj 651 654 t b b;
#X obj 724 692 loadbang;
#X obj 788 678 float;
#X obj 826 680 + 1;
#X obj 786 700 mod 2;
#X obj 795 733 spigot;
#X obj 795 756 bng 15 250 50 0 empty empty empty 17 7 0 10 -262144
-1 -1;
#X msg 839 712 1;
#X obj 787 654 t b b;
#X obj 860 690 loadbang;
#X obj 923 680 float;
#X obj 961 682 + 1;
#X obj 921 702 mod 2;
#X obj 930 735 spigot;
#X obj 930 758 bng 15 250 50 0 empty empty empty 17 7 0 10 -262144
-1 -1;
#X msg 974 714 1;
#X obj 922 656 t b b;
#X obj 995 694 loadbang;
#X obj 1059 677 float;
#X obj 1097 679 + 1;
#X obj 1057 699 mod 2;
#X obj 1066 732 spigot;
#X obj 1066 755 bng 15 250 50 0 empty empty empty 17 7 0 10 -262144
-1 -1;
#X msg 1110 711 1;
#X obj 1058 653 t b b;
#X obj 1131 689 loadbang;
#X obj 1197 677 float;
#X obj 1235 679 + 1;
#X obj 1195 699 mod 2;
#X obj 1204 732 spigot;
#X obj 1204 755 bng 15 250 50 0 empty empty empty 17 7 0 10 -262144
-1 -1;
#X msg 1248 711 1;
#X obj 1196 653 t b b;
#X obj 1269 689 loadbang;
#X obj 115 637 ctlin 116;
#X obj 252 638 ctlin 117;
#X obj 384 636 ctlin 118;
#X obj 519 633 ctlin 119;
#X obj 652 631 ctlin 120;
#X obj 789 631 ctlin 121;
#X obj 923 633 ctlin 122;
#X obj 1058 628 ctlin 123;
#X obj 1197 630 ctlin 124;
#X obj 122 793 s s3b1;
#X obj 258 795 s s3b2;
#X obj 391 792 s s3b3;
#X obj 526 790 s s3b4;
#X obj 659 787 s s3b5;
#X obj 795 787 s s3b6;
#X obj 930 789 s s3b7;
#X obj 1066 786 s s3b8;
#X obj 1190 777 s s3b9;
#X obj 116 849 ctlin 17 1;
#X obj 116 874 tgl 15 0 empty empty empty 17 7 0 10 -262144 -1 -1 0
31;
#X obj 116 922 s s4b1;
#X text 955 105 la scena 4 ha i pulsanti latching \, e nanok senda
un toggle 0/1;
#X obj 238 876 tgl 15 0 empty empty empty 17 7 0 10 -262144 -1 -1 0
127;
#X obj 357 877 tgl 15 0 empty empty empty 17 7 0 10 -262144 -1 -1 0
127;
#X obj 479 879 tgl 15 0 empty empty empty 17 7 0 10 -262144 -1 -1 0
127;
#X obj 570 881 tgl 15 0 empty empty empty 17 7 0 10 -262144 -1 -1 0
127;
#X obj 692 880 tgl 15 0 empty empty empty 17 7 0 10 -262144 -1 -1 0
127;
#X obj 811 881 tgl 15 0 empty empty empty 17 7 0 10 -262144 -1 -1 0
127;
#X obj 933 883 tgl 15 0 empty empty empty 17 7 0 10 -262144 -1 -1 0
127;
#X obj 1027 885 tgl 15 0 empty empty empty 17 7 0 10 -262144 -1 -1
0 127;
#X obj 238 851 ctlin 17 2;
#X obj 357 852 ctlin 17 3;
#X obj 479 854 ctlin 17 4;
#X obj 570 854 ctlin 17 5;
#X obj 692 855 ctlin 17 6;
#X obj 811 856 ctlin 17 7;
#X obj 933 858 ctlin 17 8;
#X obj 1027 860 ctlin 17 9;
#X obj 238 921 s s4b2;
#X obj 357 921 s s4b3;
#X obj 479 921 s s4b4;
#X obj 570 921 s s4b5;
#X obj 692 921 s s4b6;
#X obj 811 921 s s4b7;
#X obj 933 921 s s4b8;
#X obj 1027 921 s s4b9;
#X obj 1401 211 ctlin 2;
#X floatatom 1401 240 5 0 0 0 - - -;
#X obj 1401 265 s s1f1;
#X floatatom 1469 240 5 0 0 0 - - -;
#X floatatom 1535 240 5 0 0 0 - - -;
#X floatatom 1595 241 5 0 0 0 - - -;
#X floatatom 1663 241 5 0 0 0 - - -;
#X floatatom 1729 241 5 0 0 0 - - -;
#X floatatom 1791 238 5 0 0 0 - - -;
#X floatatom 1859 238 5 0 0 0 - - -;
#X floatatom 1925 238 5 0 0 0 - - -;
#X obj 2429 167 tgl 15 0 empty empty empty 17 7 0 10 -262144 -1 -1
0 1;
#X obj 2396 973 tgl 15 0 empty empty empty 17 7 0 10 -262144 -1 -1
0 1;
#X obj 1469 211 ctlin 3;
#X obj 1535 211 ctlin 4;
#X obj 1595 212 ctlin 5;
#X obj 1663 212 ctlin 6;
#X obj 1729 212 ctlin 8;
#X obj 1791 209 ctlin 9;
#X obj 1859 209 ctlin 12;
#X obj 1925 209 ctlin 13;
#X obj 1469 265 s s1f2;
#X obj 1535 265 s s1f3;
#X obj 1595 266 s s1f4;
#X obj 1663 265 s s1f5;
#X obj 1729 266 s s1f6;
#X obj 1791 263 s s1f7;
#X obj 1859 263 s s1f8;
#X obj 1925 263 s s1f9;
#X floatatom 1401 324 5 0 0 0 - - -;
#X floatatom 1470 324 5 0 0 0 - - -;
#X floatatom 1535 324 5 0 0 0 - - -;
#X floatatom 1595 325 5 0 0 0 - - -;
#X floatatom 1663 325 5 0 0 0 - - -;
#X floatatom 1729 325 5 0 0 0 - - -;
#X floatatom 1791 322 5 0 0 0 - - -;
#X floatatom 1859 322 5 0 0 0 - - -;
#X floatatom 1925 322 5 0 0 0 - - -;
#X obj 1662 584 ctlin;
#X floatatom 1635 616 5 0 0 0 - - -;
#X floatatom 1670 616 5 0 0 0 - - -;
#X floatatom 1705 616 5 0 0 0 - - -;
#X obj 1401 295 ctlin 42;
#X obj 1470 294 ctlin 43;
#X obj 1535 295 ctlin 50;
#X obj 1595 296 ctlin 51;
#X obj 1663 296 ctlin 52;
#X obj 1729 296 ctlin 53;
#X obj 1791 293 ctlin 54;
#X obj 1859 293 ctlin 55;
#X obj 1925 293 ctlin 56;
#X obj 1401 349 s s2f1;
#X obj 1470 349 s s2f2;
#X obj 1535 349 s s2f3;
#X obj 1595 350 s s2f4;
#X obj 1663 349 s s2f5;
#X obj 1729 350 s s2f6;
#X obj 1791 347 s s2f7;
#X obj 1859 347 s s2f8;
#X obj 1925 347 s s2f9;
#X floatatom 1472 407 5 0 0 0 - - -;
#X floatatom 1538 407 5 0 0 0 - - -;
#X floatatom 1598 408 5 0 0 0 - - -;
#X floatatom 1666 408 5 0 0 0 - - -;
#X floatatom 1732 408 5 0 0 0 - - -;
#X floatatom 1794 405 5 0 0 0 - - -;
#X floatatom 1862 405 5 0 0 0 - - -;
#X floatatom 1928 405 5 0 0 0 - - -;
#X floatatom 1407 492 5 0 0 0 - - -;
#X floatatom 1476 492 5 0 0 0 - - -;
#X floatatom 1541 492 5 0 0 0 - - -;
#X floatatom 1601 493 5 0 0 0 - - -;
#X floatatom 1669 493 5 0 0 0 - - -;
#X floatatom 1735 493 5 0 0 0 - - -;
#X floatatom 1797 490 5 0 0 0 - - -;
#X floatatom 1865 490 5 0 0 0 - - -;
#X floatatom 1931 490 5 0 0 0 - - -;
#X text 1263 -101 tasto 4 non va mai;
#X obj 1472 378 ctlin 86;
#X obj 1538 378 ctlin 87;
#X obj 1598 379 ctlin 88;
#X obj 1666 379 ctlin 89;
#X obj 1732 379 ctlin 90;
#X obj 1794 376 ctlin 91;
#X obj 1862 376 ctlin 92;
#X obj 1928 376 ctlin 93;
#X text 1259 -115 scene3 fader1 non va \, lo fa muovere nella scena
1 lol;
#X obj 1407 463 ctlin 7 1;
#X obj 1472 432 s s3f2;
#X obj 1538 432 s s3f3;
#X obj 1598 433 s s3f4;
#X obj 1666 432 s s3f5;
#X obj 1732 433 s s3f6;
#X obj 1794 430 s s3f7;
#X obj 1862 430 s s3f8;
#X obj 1928 430 s s3f9;
#X obj 1476 462 ctlin 7 2;
#X obj 1541 463 ctlin 7 3;
#X obj 1601 464 ctlin 7 4;
#X obj 1669 464 ctlin 7 5;
#X obj 1735 464 ctlin 7 6;
#X obj 1797 461 ctlin 7 7;
#X obj 1865 461 ctlin 7 8;
#X obj 1931 461 ctlin 7 9;
#X obj 1407 517 s s4f1;
#X obj 1476 517 s s4f2;
#X obj 1540 518 s s4f3;
#X obj 1601 518 s s4f4;
#X obj 1669 517 s s4f5;
#X obj 1735 518 s s4f6;
#X obj 1797 515 s s4f7;
#X obj 1865 515 s s4f8;
#X obj 1931 515 s s4f9;
#X text 999 75 s3k5 è il pot 5 della scena 3;
#X floatatom 1393 707 5 0 0 0 - - -;
#X floatatom 1461 707 5 0 0 0 - - -;
#X floatatom 1527 707 5 0 0 0 - - -;
#X floatatom 1587 708 5 0 0 0 - - -;
#X floatatom 1655 708 5 0 0 0 - - -;
#X floatatom 1721 708 5 0 0 0 - - -;
#X floatatom 1783 705 5 0 0 0 - - -;
#X floatatom 1851 705 5 0 0 0 - - -;
#X floatatom 1917 705 5 0 0 0 - - -;
#X floatatom 1393 802 5 0 0 0 - - -;
#X floatatom 1461 802 5 0 0 0 - - -;
#X floatatom 1527 802 5 0 0 0 - - -;
#X floatatom 1587 803 5 0 0 0 - - -;
#X floatatom 1655 803 5 0 0 0 - - -;
#X floatatom 1721 803 5 0 0 0 - - -;
#X floatatom 1783 800 5 0 0 0 - - -;
#X floatatom 1851 800 5 0 0 0 - - -;
#X floatatom 1917 800 5 0 0 0 - - -;
#X floatatom 1396 895 5 0 0 0 - - -;
#X floatatom 1464 895 5 0 0 0 - - -;
#X floatatom 1530 895 5 0 0 0 - - -;
#X floatatom 1590 896 5 0 0 0 - - -;
#X floatatom 1658 896 5 0 0 0 - - -;
#X floatatom 1724 896 5 0 0 0 - - -;
#X floatatom 1786 893 5 0 0 0 - - -;
#X floatatom 1854 893 5 0 0 0 - - -;
#X floatatom 1920 893 5 0 0 0 - - -;
#X floatatom 1396 990 5 0 0 0 - - -;
#X floatatom 1464 990 5 0 0 0 - - -;
#X floatatom 1530 990 5 0 0 0 - - -;
#X floatatom 1590 991 5 0 0 0 - - -;
#X floatatom 1658 991 5 0 0 0 - - -;
#X floatatom 1724 991 5 0 0 0 - - -;
#X floatatom 1786 988 5 0 0 0 - - -;
#X floatatom 1854 988 5 0 0 0 - - -;
#X floatatom 1920 988 5 0 0 0 - - -;
#X obj 1393 678 ctlin 14;
#X obj 1461 678 ctlin 15;
#X obj 1527 678 ctlin 16;
#X obj 1587 679 ctlin 17;
#X obj 1655 679 ctlin 18;
#X obj 1721 679 ctlin 19;
#X obj 1783 676 ctlin 20;
#X obj 1851 676 ctlin 21;
#X obj 1917 676 ctlin 22;
#X obj 1393 732 s s1k1;
#X obj 1461 732 s s1k2;
#X obj 1527 732 s s1k3;
#X obj 1587 733 s s1k4;
#X obj 1655 732 s s1k5;
#X obj 1721 733 s s1k6;
#X obj 1783 730 s s1k7;
#X obj 1851 730 s s1k8;
#X obj 1917 730 s s1k9;
#X obj 1393 773 ctlin 57;
#X obj 1462 772 ctlin 58;
#X obj 1527 773 ctlin 59;
#X obj 1587 774 ctlin 60;
#X obj 1655 774 ctlin 61;
#X obj 1721 774 ctlin 62;
#X obj 1783 771 ctlin 63;
#X obj 1851 771 ctlin 65;
#X obj 1917 771 ctlin 66;
#X obj 1393 827 s s2k1;
#X obj 1461 827 s s2k2;
#X obj 1527 827 s s2k3;
#X obj 1587 828 s s2k4;
#X obj 1655 827 s s2k5;
#X obj 1721 828 s s2k6;
#X obj 1783 825 s s2k7;
#X obj 1851 825 s s2k8;
#X obj 1917 825 s s2k9;
#X obj 1396 866 ctlin 94;
#X obj 1464 866 ctlin 95;
#X obj 1530 866 ctlin 96;
#X obj 1590 867 ctlin 97;
#X obj 1658 867 ctlin 102;
#X obj 1724 867 ctlin 103;
#X obj 1786 864 ctlin 104;
#X obj 1854 864 ctlin 105;
#X obj 1920 864 ctlin 106;
#X obj 1396 961 ctlin 10 1;
#X obj 1465 960 ctlin 10 2;
#X obj 1529 962 ctlin 10 3;
#X obj 1590 962 ctlin 10 4;
#X obj 1658 962 ctlin 10 5;
#X obj 1724 962 ctlin 10 6;
#X obj 1786 959 ctlin 10 7;
#X obj 1854 959 ctlin 10 8;
#X obj 1920 959 ctlin 10 9;
#X obj 1396 920 s s3k1;
#X obj 1464 920 s s3k2;
#X obj 1530 920 s s3k3;
#X obj 1590 921 s s3k4;
#X obj 1658 920 s s3k5;
#X obj 1724 921 s s3k6;
#X obj 1786 918 s s3k7;
#X obj 1854 918 s s3k8;
#X obj 1920 918 s s3k9;
#X obj 1396 1016 s s4k1;
#X obj 1464 1015 s s4k2;
#X obj 1530 1015 s s4k3;
#X obj 1590 1016 s s4k4;
#X obj 1658 1015 s s4k5;
#X obj 1724 1016 s s4k6;
#X obj 1786 1013 s s4k7;
#X obj 1854 1013 s s4k8;
#X obj 1920 1013 s s4k9;
#X text 1433 22 da testare \, poi eliminare tutti i number cells!;
#X obj 64 282 == 127;
#X obj 114 324 s s1bb1;
#X text 991 -61 BB=buttonBang BH=buttonHold F=fader K=knob;
#X obj 64 324 s s1bh1;
#X obj 237 324 float;
#X obj 275 324 + 1;
#X obj 237 343 mod 2;
#X obj 237 362 spigot;
#X msg 287 362 1;
#X obj 237 305 t b b;
#X obj 287 343 loadbang;
#X obj 187 343 == 127;
#X obj 237 282 ctlin 34;
#X obj 187 385 s s1bh2;
#X obj 237 385 s s1bb2;
#X obj 373 262 float;
#X obj 411 262 + 1;
#X obj 373 281 mod 2;
#X obj 373 300 spigot;
#X msg 423 300 1;
#X obj 373 243 t b b;
#X obj 423 281 loadbang;
#X obj 323 281 == 127;
#X obj 492 323 float;
#X obj 530 323 + 1;
#X obj 492 342 mod 2;
#X obj 492 361 spigot;
#X msg 542 361 1;
#X obj 492 304 t b b;
#X obj 542 342 loadbang;
#X obj 442 342 == 127;
#X obj 492 281 ctlin 36;
#X obj 373 220 ctlin 35;
#X obj 323 323 s s1bh3;
#X obj 373 323 s s1bb3;
#X obj 442 384 s s1bh4;
#X obj 492 384 s s1bb4;
#X obj 632 262 float;
#X obj 670 262 + 1;
#X obj 632 281 mod 2;
#X obj 632 300 spigot;
#X msg 682 300 1;
#X obj 632 243 t b b;
#X obj 682 281 loadbang;
#X obj 582 281 == 127;
#X obj 756 323 float;
#X obj 794 323 + 1;
#X obj 756 342 mod 2;
#X obj 756 361 spigot;
#X msg 806 361 1;
#X obj 756 304 t b b;
#X obj 806 342 loadbang;
#X obj 706 342 == 127;
#X obj 877 262 float;
#X obj 915 262 + 1;
#X obj 877 281 mod 2;
#X obj 877 300 spigot;
#X msg 927 300 1;
#X obj 877 243 t b b;
#X obj 927 281 loadbang;
#X obj 827 281 == 127;
#X obj 994 324 float;
#X obj 1032 324 + 1;
#X obj 994 343 mod 2;
#X obj 994 362 spigot;
#X msg 1044 362 1;
#X obj 994 305 t b b;
#X obj 1044 343 loadbang;
#X obj 944 343 == 127;
#X obj 1127 263 float;
#X obj 1165 263 + 1;
#X obj 1127 282 mod 2;
#X obj 1127 301 spigot;
#X msg 1177 301 1;
#X obj 1127 244 t b b;
#X obj 1177 282 loadbang;
#X obj 1077 282 == 127;
#X obj 1077 324 s s1bh9;
#X obj 1127 324 s s1bb9;
#X obj 994 385 s s1bb8;
#X obj 944 385 s s1bh8;
#X obj 877 322 s s1bb7;
#X obj 827 323 s s1bh7;
#X obj 756 384 s s1bb6;
#X obj 706 384 s s1bh6;
#X obj 632 323 s s1bb5;
#X obj 582 323 s s1bh5;
#X obj 632 220 ctlin 37;
#X obj 756 281 ctlin 38;
#X obj 877 220 ctlin 39;
#X obj 994 282 ctlin 40;
#X obj 1127 221 ctlin 41;
#X obj 113 452 float;
#X obj 151 452 + 1;
#X obj 113 471 mod 2;
#X obj 113 490 spigot;
#X obj 113 410 ctlin 33;
#X msg 163 490 1;
#X obj 113 433 t b b;
#X obj 163 471 loadbang;
#X obj 63 471 == 127;
#X obj 113 513 s s1bb1;
#X obj 63 513 s s1bh1;
#X obj 236 513 float;
#X obj 274 513 + 1;
#X obj 236 532 mod 2;
#X obj 236 551 spigot;
#X msg 286 551 1;
#X obj 236 494 t b b;
#X obj 286 532 loadbang;
#X obj 186 532 == 127;
#X obj 236 471 ctlin 34;
#X obj 186 574 s s1bh2;
#X obj 236 574 s s1bb2;
#X obj 372 451 float;
#X obj 410 451 + 1;
#X obj 372 470 mod 2;
#X obj 372 489 spigot;
#X msg 422 489 1;
#X obj 372 432 t b b;
#X obj 422 470 loadbang;
#X obj 322 470 == 127;
#X obj 491 512 float;
#X obj 529 512 + 1;
#X obj 491 531 mod 2;
#X obj 491 550 spigot;
#X msg 541 550 1;
#X obj 491 493 t b b;
#X obj 541 531 loadbang;
#X obj 441 531 == 127;
#X obj 491 470 ctlin 36;
#X obj 372 409 ctlin 35;
#X obj 322 512 s s1bh3;
#X obj 372 512 s s1bb3;
#X obj 441 573 s s1bh4;
#X obj 491 573 s s1bb4;
#X obj 631 451 float;
#X obj 669 451 + 1;
#X obj 631 470 mod 2;
#X obj 631 489 spigot;
#X msg 681 489 1;
#X obj 631 432 t b b;
#X obj 681 470 loadbang;
#X obj 581 470 == 127;
#X obj 755 512 float;
#X obj 793 512 + 1;
#X obj 755 531 mod 2;
#X obj 755 550 spigot;
#X msg 805 550 1;
#X obj 755 493 t b b;
#X obj 805 531 loadbang;
#X obj 705 531 == 127;
#X obj 876 451 float;
#X obj 914 451 + 1;
#X obj 876 470 mod 2;
#X obj 876 489 spigot;
#X msg 926 489 1;
#X obj 876 432 t b b;
#X obj 926 470 loadbang;
#X obj 826 470 == 127;
#X obj 993 513 float;
#X obj 1031 513 + 1;
#X obj 993 532 mod 2;
#X obj 993 551 spigot;
#X msg 1043 551 1;
#X obj 993 494 t b b;
#X obj 1043 532 loadbang;
#X obj 943 532 == 127;
#X obj 1126 452 float;
#X obj 1164 452 + 1;
#X obj 1126 471 mod 2;
#X obj 1126 490 spigot;
#X msg 1176 490 1;
#X obj 1126 433 t b b;
#X obj 1176 471 loadbang;
#X obj 1076 471 == 127;
#X obj 1076 513 s s1bh9;
#X obj 1126 513 s s1bb9;
#X obj 993 574 s s1bb8;
#X obj 943 574 s s1bh8;
#X obj 876 511 s s1bb7;
#X obj 826 512 s s1bh7;
#X obj 755 573 s s1bb6;
#X obj 705 573 s s1bh6;
#X obj 631 512 s s1bb5;
#X obj 581 512 s s1bh5;
#X obj 631 409 ctlin 37;
#X obj 755 470 ctlin 38;
#X obj 876 409 ctlin 39;
#X obj 993 471 ctlin 40;
#X obj 1126 410 ctlin 41;
#X connect 0 0 1 0;
#X connect 0 1 2 0;
#X connect 0 2 3 0;
#X connect 4 0 5 0;
#X connect 4 0 6 0;
#X connect 5 0 4 1;
#X connect 6 0 7 1;
#X connect 7 0 420 0;
#X connect 8 0 10 0;
#X connect 8 0 419 0;
#X connect 9 0 7 1;
#X connect 10 0 4 0;
#X connect 10 1 7 0;
#X connect 11 0 9 0;
#X connect 17 0 18 0;
#X connect 17 0 19 0;
#X connect 18 0 17 1;
#X connect 19 0 20 1;
#X connect 20 0 21 0;
#X connect 21 0 26 0;
#X connect 22 0 20 1;
#X connect 23 0 17 0;
#X connect 23 1 20 0;
#X connect 24 0 22 0;
#X connect 25 0 23 0;
#X connect 27 0 28 0;
#X connect 27 0 29 0;
#X connect 28 0 27 1;
#X connect 29 0 30 1;
#X connect 30 0 31 0;
#X connect 31 0 36 0;
#X connect 32 0 30 1;
#X connect 33 0 27 0;
#X connect 33 1 30 0;
#X connect 34 0 32 0;
#X connect 35 0 33 0;
#X connect 37 0 38 0;
#X connect 37 0 39 0;
#X connect 38 0 37 1;
#X connect 39 0 40 1;
#X connect 40 0 41 0;
#X connect 41 0 46 0;
#X connect 42 0 40 1;
#X connect 43 0 37 0;
#X connect 43 1 40 0;
#X connect 44 0 42 0;
#X connect 45 0 43 0;
#X connect 47 0 48 0;
#X connect 47 0 49 0;
#X connect 48 0 47 1;
#X connect 49 0 50 1;
#X connect 50 0 51 0;
#X connect 51 0 72 0;
#X connect 52 0 50 1;
#X connect 53 0 47 0;
#X connect 53 1 50 0;
#X connect 54 0 52 0;
#X connect 55 0 56 0;
#X connect 55 0 57 0;
#X connect 56 0 55 1;
#X connect 57 0 58 1;
#X connect 58 0 59 0;
#X connect 59 0 74 0;
#X connect 60 0 58 1;
#X connect 61 0 55 0;
#X connect 61 1 58 0;
#X connect 62 0 60 0;
#X connect 63 0 64 0;
#X connect 63 0 65 0;
#X connect 64 0 63 1;
#X connect 65 0 66 1;
#X connect 66 0 67 0;
#X connect 67 0 76 0;
#X connect 68 0 66 1;
#X connect 69 0 63 0;
#X connect 69 1 66 0;
#X connect 70 0 68 0;
#X connect 71 0 53 0;
#X connect 73 0 61 0;
#X connect 75 0 69 0;
#X connect 78 0 79 0;
#X connect 78 0 80 0;
#X connect 79 0 78 1;
#X connect 80 0 81 1;
#X connect 81 0 82 0;
#X connect 82 0 159 0;
#X connect 83 0 81 1;
#X connect 84 0 78 0;
#X connect 84 1 81 0;
#X connect 85 0 83 0;
#X connect 86 0 87 0;
#X connect 86 0 88 0;
#X connect 87 0 86 1;
#X connect 88 0 89 1;
#X connect 89 0 90 0;
#X connect 90 0 160 0;
#X connect 91 0 89 1;
#X connect 92 0 86 0;
#X connect 92 1 89 0;
#X connect 93 0 91 0;
#X connect 94 0 95 0;
#X connect 94 0 96 0;
#X connect 95 0 94 1;
#X connect 96 0 97 1;
#X connect 97 0 98 0;
#X connect 98 0 161 0;
#X connect 99 0 97 1;
#X connect 100 0 94 0;
#X connect 100 1 97 0;
#X connect 101 0 99 0;
#X connect 102 0 103 0;
#X connect 102 0 104 0;
#X connect 103 0 102 1;
#X connect 104 0 105 1;
#X connect 105 0 106 0;
#X connect 106 0 162 0;
#X connect 107 0 105 1;
#X connect 108 0 102 0;
#X connect 108 1 105 0;
#X connect 109 0 107 0;
#X connect 110 0 111 0;
#X connect 110 0 112 0;
#X connect 111 0 110 1;
#X connect 112 0 113 1;
#X connect 113 0 114 0;
#X connect 114 0 163 0;
#X connect 115 0 113 1;
#X connect 116 0 110 0;
#X connect 116 1 113 0;
#X connect 117 0 115 0;
#X connect 118 0 119 0;
#X connect 118 0 120 0;
#X connect 119 0 118 1;
#X connect 120 0 121 1;
#X connect 121 0 122 0;
#X connect 122 0 164 0;
#X connect 123 0 121 1;
#X connect 124 0 118 0;
#X connect 124 1 121 0;
#X connect 125 0 123 0;
#X connect 126 0 127 0;
#X connect 126 0 128 0;
#X connect 127 0 126 1;
#X connect 128 0 129 1;
#X connect 129 0 130 0;
#X connect 130 0 165 0;
#X connect 131 0 129 1;
#X connect 132 0 126 0;
#X connect 132 1 129 0;
#X connect 133 0 131 0;
#X connect 134 0 135 0;
#X connect 134 0 136 0;
#X connect 135 0 134 1;
#X connect 136 0 137 1;
#X connect 137 0 138 0;
#X connect 138 0 166 0;
#X connect 139 0 137 1;
#X connect 140 0 134 0;
#X connect 140 1 137 0;
#X connect 141 0 139 0;
#X connect 142 0 143 0;
#X connect 142 0 144 0;
#X connect 143 0 142 1;
#X connect 144 0 145 1;
#X connect 145 0 146 0;
#X connect 146 0 167 0;
#X connect 147 0 145 1;
#X connect 148 0 142 0;
#X connect 148 1 145 0;
#X connect 149 0 147 0;
#X connect 150 0 84 0;
#X connect 151 0 92 0;
#X connect 152 0 100 0;
#X connect 153 0 108 0;
#X connect 154 0 116 0;
#X connect 155 0 124 0;
#X connect 156 0 132 0;
#X connect 157 0 140 0;
#X connect 158 0 148 0;
#X connect 168 0 169 0;
#X connect 169 0 170 0;
#X connect 172 0 188 0;
#X connect 173 0 189 0;
#X connect 174 0 190 0;
#X connect 175 0 191 0;
#X connect 176 0 192 0;
#X connect 177 0 193 0;
#X connect 178 0 194 0;
#X connect 179 0 195 0;
#X connect 180 0 172 0;
#X connect 181 0 173 0;
#X connect 182 0 174 0;
#X connect 183 0 175 0;
#X connect 184 0 176 0;
#X connect 185 0 177 0;
#X connect 186 0 178 0;
#X connect 187 0 179 0;
#X connect 196 0 197 0;
#X connect 197 0 198 0;
#X connect 199 0 217 0;
#X connect 200 0 218 0;
#X connect 201 0 219 0;
#X connect 202 0 220 0;
#X connect 203 0 221 0;
#X connect 204 0 222 0;
#X connect 205 0 223 0;
#X connect 206 0 224 0;
#X connect 209 0 199 0;
#X connect 210 0 200 0;
#X connect 211 0 201 0;
#X connect 212 0 202 0;
#X connect 213 0 203 0;
#X connect 214 0 204 0;
#X connect 215 0 205 0;
#X connect 216 0 206 0;
#X connect 225 0 247 0;
#X connect 226 0 248 0;
#X connect 227 0 249 0;
#X connect 228 0 250 0;
#X connect 229 0 251 0;
#X connect 230 0 252 0;
#X connect 231 0 253 0;
#X connect 232 0 254 0;
#X connect 233 0 255 0;
#X connect 234 0 235 0;
#X connect 234 1 236 0;
#X connect 234 2 237 0;
#X connect 238 0 225 0;
#X connect 239 0 226 0;
#X connect 240 0 227 0;
#X connect 241 0 228 0;
#X connect 242 0 229 0;
#X connect 243 0 230 0;
#X connect 244 0 231 0;
#X connect 245 0 232 0;
#X connect 246 0 233 0;
#X connect 256 0 284 0;
#X connect 257 0 285 0;
#X connect 258 0 286 0;
#X connect 259 0 287 0;
#X connect 260 0 288 0;
#X connect 261 0 289 0;
#X connect 262 0 290 0;
#X connect 263 0 291 0;
#X connect 264 0 300 0;
#X connect 265 0 301 0;
#X connect 266 0 302 0;
#X connect 267 0 303 0;
#X connect 268 0 304 0;
#X connect 269 0 305 0;
#X connect 270 0 306 0;
#X connect 271 0 307 0;
#X connect 272 0 308 0;
#X connect 274 0 256 0;
#X connect 275 0 257 0;
#X connect 276 0 258 0;
#X connect 277 0 259 0;
#X connect 278 0 260 0;
#X connect 279 0 261 0;
#X connect 280 0 262 0;
#X connect 281 0 263 0;
#X connect 283 0 264 0;
#X connect 292 0 265 0;
#X connect 293 0 266 0;
#X connect 294 0 267 0;
#X connect 295 0 268 0;
#X connect 296 0 269 0;
#X connect 297 0 270 0;
#X connect 298 0 271 0;
#X connect 299 0 272 0;
#X connect 310 0 355 0;
#X connect 311 0 356 0;
#X connect 312 0 357 0;
#X connect 313 0 358 0;
#X connect 314 0 359 0;
#X connect 315 0 360 0;
#X connect 316 0 361 0;
#X connect 317 0 362 0;
#X connect 318 0 363 0;
#X connect 319 0 373 0;
#X connect 320 0 374 0;
#X connect 321 0 375 0;
#X connect 322 0 376 0;
#X connect 323 0 377 0;
#X connect 324 0 378 0;
#X connect 325 0 379 0;
#X connect 326 0 380 0;
#X connect 327 0 381 0;
#X connect 328 0 400 0;
#X connect 329 0 401 0;
#X connect 330 0 402 0;
#X connect 331 0 403 0;
#X connect 332 0 404 0;
#X connect 333 0 405 0;
#X connect 334 0 406 0;
#X connect 335 0 407 0;
#X connect 336 0 408 0;
#X connect 337 0 409 0;
#X connect 338 0 410 0;
#X connect 339 0 411 0;
#X connect 340 0 412 0;
#X connect 341 0 413 0;
#X connect 342 0 414 0;
#X connect 343 0 415 0;
#X connect 344 0 416 0;
#X connect 345 0 417 0;
#X connect 346 0 310 0;
#X connect 347 0 311 0;
#X connect 348 0 312 0;
#X connect 349 0 313 0;
#X connect 350 0 314 0;
#X connect 351 0 315 0;
#X connect 352 0 316 0;
#X connect 353 0 317 0;
#X connect 354 0 318 0;
#X connect 364 0 319 0;
#X connect 365 0 320 0;
#X connect 366 0 321 0;
#X connect 367 0 322 0;
#X connect 368 0 323 0;
#X connect 369 0 324 0;
#X connect 370 0 325 0;
#X connect 371 0 326 0;
#X connect 372 0 327 0;
#X connect 382 0 328 0;
#X connect 383 0 329 0;
#X connect 384 0 330 0;
#X connect 385 0 331 0;
#X connect 386 0 332 0;
#X connect 387 0 333 0;
#X connect 388 0 334 0;
#X connect 389 0 335 0;
#X connect 390 0 336 0;
#X connect 391 0 337 0;
#X connect 392 0 338 0;
#X connect 393 0 339 0;
#X connect 394 0 340 0;
#X connect 395 0 341 0;
#X connect 396 0 342 0;
#X connect 397 0 343 0;
#X connect 398 0 344 0;
#X connect 399 0 345 0;
#X connect 419 0 422 0;
#X connect 423 0 424 0;
#X connect 423 0 425 0;
#X connect 424 0 423 1;
#X connect 425 0 426 1;
#X connect 426 0 433 0;
#X connect 427 0 426 1;
#X connect 428 0 423 0;
#X connect 428 1 426 0;
#X connect 429 0 427 0;
#X connect 430 0 432 0;
#X connect 431 0 428 0;
#X connect 431 0 430 0;
#X connect 434 0 435 0;
#X connect 434 0 436 0;
#X connect 435 0 434 1;
#X connect 436 0 437 1;
#X connect 437 0 453 0;
#X connect 438 0 437 1;
#X connect 439 0 434 0;
#X connect 439 1 437 0;
#X connect 440 0 438 0;
#X connect 441 0 452 0;
#X connect 442 0 443 0;
#X connect 442 0 444 0;
#X connect 443 0 442 1;
#X connect 444 0 445 1;
#X connect 445 0 455 0;
#X connect 446 0 445 1;
#X connect 447 0 442 0;
#X connect 447 1 445 0;
#X connect 448 0 446 0;
#X connect 449 0 454 0;
#X connect 450 0 447 0;
#X connect 450 0 449 0;
#X connect 451 0 439 0;
#X connect 451 0 441 0;
#X connect 456 0 457 0;
#X connect 456 0 458 0;
#X connect 457 0 456 1;
#X connect 458 0 459 1;
#X connect 459 0 504 0;
#X connect 460 0 459 1;
#X connect 461 0 456 0;
#X connect 461 1 459 0;
#X connect 462 0 460 0;
#X connect 463 0 505 0;
#X connect 464 0 465 0;
#X connect 464 0 466 0;
#X connect 465 0 464 1;
#X connect 466 0 467 1;
#X connect 467 0 502 0;
#X connect 468 0 467 1;
#X connect 469 0 464 0;
#X connect 469 1 467 0;
#X connect 470 0 468 0;
#X connect 471 0 503 0;
#X connect 472 0 473 0;
#X connect 472 0 474 0;
#X connect 473 0 472 1;
#X connect 474 0 475 1;
#X connect 475 0 500 0;
#X connect 476 0 475 1;
#X connect 477 0 472 0;
#X connect 477 1 475 0;
#X connect 478 0 476 0;
#X connect 479 0 501 0;
#X connect 480 0 481 0;
#X connect 480 0 482 0;
#X connect 481 0 480 1;
#X connect 482 0 483 1;
#X connect 483 0 498 0;
#X connect 484 0 483 1;
#X connect 485 0 480 0;
#X connect 485 1 483 0;
#X connect 486 0 484 0;
#X connect 487 0 499 0;
#X connect 488 0 489 0;
#X connect 488 0 490 0;
#X connect 489 0 488 1;
#X connect 490 0 491 1;
#X connect 491 0 497 0;
#X connect 492 0 491 1;
#X connect 493 0 488 0;
#X connect 493 1 491 0;
#X connect 494 0 492 0;
#X connect 495 0 496 0;
#X connect 506 0 461 0;
#X connect 506 0 463 0;
#X connect 507 0 469 0;
#X connect 507 0 471 0;
#X connect 508 0 477 0;
#X connect 508 0 479 0;
#X connect 509 0 485 0;
#X connect 509 0 487 0;
#X connect 510 0 493 0;
#X connect 510 0 495 0;
#X connect 511 0 512 0;
#X connect 511 0 513 0;
#X connect 512 0 511 1;
#X connect 513 0 514 1;
#X connect 514 0 520 0;
#X connect 515 0 517 0;
#X connect 515 0 519 0;
#X connect 516 0 514 1;
#X connect 517 0 511 0;
#X connect 517 1 514 0;
#X connect 518 0 516 0;
#X connect 519 0 521 0;
#X connect 522 0 523 0;
#X connect 522 0 524 0;
#X connect 523 0 522 1;
#X connect 524 0 525 1;
#X connect 525 0 532 0;
#X connect 526 0 525 1;
#X connect 527 0 522 0;
#X connect 527 1 525 0;
#X connect 528 0 526 0;
#X connect 529 0 531 0;
#X connect 530 0 527 0;
#X connect 530 0 529 0;
#X connect 533 0 534 0;
#X connect 533 0 535 0;
#X connect 534 0 533 1;
#X connect 535 0 536 1;
#X connect 536 0 552 0;
#X connect 537 0 536 1;
#X connect 538 0 533 0;
#X connect 538 1 536 0;
#X connect 539 0 537 0;
#X connect 540 0 551 0;
#X connect 541 0 542 0;
#X connect 541 0 543 0;
#X connect 542 0 541 1;
#X connect 543 0 544 1;
#X connect 544 0 554 0;
#X connect 545 0 544 1;
#X connect 546 0 541 0;
#X connect 546 1 544 0;
#X connect 547 0 545 0;
#X connect 548 0 553 0;
#X connect 549 0 546 0;
#X connect 549 0 548 0;
#X connect 550 0 538 0;
#X connect 550 0 540 0;
#X connect 555 0 556 0;
#X connect 555 0 557 0;
#X connect 556 0 555 1;
#X connect 557 0 558 1;
#X connect 558 0 603 0;
#X connect 559 0 558 1;
#X connect 560 0 555 0;
#X connect 560 1 558 0;
#X connect 561 0 559 0;
#X connect 562 0 604 0;
#X connect 563 0 564 0;
#X connect 563 0 565 0;
#X connect 564 0 563 1;
#X connect 565 0 566 1;
#X connect 566 0 601 0;
#X connect 567 0 566 1;
#X connect 568 0 563 0;
#X connect 568 1 566 0;
#X connect 569 0 567 0;
#X connect 570 0 602 0;
#X connect 571 0 572 0;
#X connect 571 0 573 0;
#X connect 572 0 571 1;
#X connect 573 0 574 1;
#X connect 574 0 599 0;
#X connect 575 0 574 1;
#X connect 576 0 571 0;
#X connect 576 1 574 0;
#X connect 577 0 575 0;
#X connect 578 0 600 0;
#X connect 579 0 580 0;
#X connect 579 0 581 0;
#X connect 580 0 579 1;
#X connect 581 0 582 1;
#X connect 582 0 597 0;
#X connect 583 0 582 1;
#X connect 584 0 579 0;
#X connect 584 1 582 0;
#X connect 585 0 583 0;
#X connect 586 0 598 0;
#X connect 587 0 588 0;
#X connect 587 0 589 0;
#X connect 588 0 587 1;
#X connect 589 0 590 1;
#X connect 590 0 596 0;
#X connect 591 0 590 1;
#X connect 592 0 587 0;
#X connect 592 1 590 0;
#X connect 593 0 591 0;
#X connect 594 0 595 0;
#X connect 605 0 560 0;
#X connect 605 0 562 0;
#X connect 606 0 568 0;
#X connect 606 0 570 0;
#X connect 607 0 576 0;
#X connect 607 0 578 0;
#X connect 608 0 584 0;
#X connect 608 0 586 0;
#X connect 609 0 592 0;
#X connect 609 0 594 0;
