#N canvas 548 0 2003 1348 10;
#X obj 450 725 *~ 0;
#X obj 109 108 knob 20 20 0 127 0 0 empty empty empty 0 -8 0 8 1.04222e+007
1.04222e+007 1.04222e+007 1200 1;
#X obj 514 776 +~;
#X obj 1156 709 bng 15 250 50 0 empty empty empty 17 7 0 10 -262144
-1 -1;
#X obj 134 145 vsl 15 64 -1 1 0 0 empty empty empty 0 -9 0 10 -262144
-1 -1 1546 1;
#X obj 422 816 atod;
#X obj 1152 669 threshold~;
#X floatatom 1176 498 5 0 0 0 - - -;
#X obj 202 144 vsl 15 64 -1 1 0 0 empty empty empty 0 -9 0 10 -262144
-1 -1 4000 1;
#X obj 1188 576 pack f f;
#X msg 1187 617 set \$1 100 \$2 100;
#X obj 1195 715 bng 15 250 50 0 empty empty empty 17 7 0 10 -262144
-1 -1;
#X obj 1141 886 tgl 15 0 empty empty empty 17 7 0 10 -262144 -1 -1
0 1;
#X obj 1312 526 - 0.1;
#X obj 449 599 inlet~;
#X obj 156 262 knob 26 26 0 2000 0 0 empty empty empty 0 -8 0 8 1.04222e+007
1.04222e+007 1.04222e+007 0 1;
#X floatatom 109 271 5 0 0 0 - - -;
#X text 116 254 ms;
#X obj 1137 835 bng 15 250 50 0 empty empty empty 17 7 0 10 -262144
-1 -1;
#X obj 1179 832 bng 15 250 50 0 empty empty empty 17 7 0 10 -262144
-1 -1;
#X obj 178 238 tgl 15 0 empty empty empty 17 7 0 10 -262144 -1 -1 0
1;
#X obj 1145 799 del 0;
#X obj 1183 793 del 0;
#X obj 151 238 tgl 15 0 empty empty empty 17 7 0 10 -262144 -1 -1 0
1;
#X obj 234 158 knob 20 20 -1 1 0 0 empty empty empty 0 -8 0 8 1.04222e+007
1.04222e+007 1.04222e+007 950 1;
#X text 220 178 -1;
#X text 251 178 1;
#X text 266 148 bias;
#X text 184 255 output delay;
#X text 197 216 THreshold;
#X text 841 118 intended for -1 | 1 signals;
#X text 446 179 all [-1 | +1];
#X obj 275 166 bng 15 250 50 0 empty empty empty 17 7 0 10 -262144
-1 -1;
#X text 266 182 zero;
#X msg 528 42 0;
#X obj 471 701 / 127;
#X text 109 235 active;
#X text 197 235 delayed;
#X obj 201 270 bng 15 250 50 0 empty empty empty 17 7 0 10 -262144
-1 -1;
#X text 195 283 zero;
#X msg 309 388 0;
#X obj 1195 966 outlet;
#X obj 1000 1134 outlet~;
#X obj 1067 956 vline~;
#X obj 1007 982 *~;
#X msg 1067 934 \$1 20;
#X obj 1020 862 tgl 15 0 empty empty empty 17 7 0 10 -262144 -1 -1
1 1;
#X obj 1226 857 loadbang;
#X msg 1228 886 0;
#X obj 1017 835 == 0;
#X obj 1016 912 vline~;
#X obj 956 938 *~;
#X msg 1016 890 \$1 20;
#X obj 1000 1048 +~;
#X text 1035 1046 Leaky ReLU;
#X obj 921 907 *~ 0.1;
#X text 1041 1075 1/10th of the signal goes thru when under threshold
;
#X text 835 154 activation: upward crossing of threshold;
#X obj 1019 599 inlet;
#X text 1007 574 LEAK parameter override;
#X obj 1086 995 outlet;
#X text 1128 998 activation trigger;
#X text 1237 962 activation gate;
#X text 710 228 sigle version;
#X text 123 213 input;
#X connect 0 0 2 0;
#X connect 1 0 35 0;
#X connect 2 0 55 0;
#X connect 2 0 44 0;
#X connect 2 0 5 0;
#X connect 3 0 21 0;
#X connect 3 0 23 0;
#X connect 5 0 4 0;
#X connect 6 0 3 0;
#X connect 6 1 11 0;
#X connect 7 0 9 0;
#X connect 7 0 13 0;
#X connect 8 0 7 0;
#X connect 9 0 10 0;
#X connect 10 0 6 0;
#X connect 11 0 22 0;
#X connect 11 0 23 0;
#X connect 12 0 20 0;
#X connect 12 0 41 0;
#X connect 12 0 45 0;
#X connect 12 0 49 0;
#X connect 13 0 9 1;
#X connect 14 0 0 0;
#X connect 15 0 16 0;
#X connect 15 0 21 1;
#X connect 15 0 22 1;
#X connect 18 0 12 0;
#X connect 18 0 60 0;
#X connect 19 0 12 0;
#X connect 21 0 18 0;
#X connect 22 0 19 0;
#X connect 24 0 2 1;
#X connect 32 0 34 0;
#X connect 34 0 24 0;
#X connect 35 0 0 1;
#X connect 38 0 40 0;
#X connect 40 0 15 0;
#X connect 43 0 44 1;
#X connect 44 0 53 1;
#X connect 45 0 43 0;
#X connect 46 0 52 0;
#X connect 47 0 48 0;
#X connect 48 0 12 0;
#X connect 49 0 46 0;
#X connect 50 0 51 1;
#X connect 51 0 53 0;
#X connect 52 0 50 0;
#X connect 53 0 42 0;
#X connect 55 0 51 0;
#X connect 58 0 55 1;
#X coords 0 -1 1 1 200 200 2 100 100;
