#N canvas 500 0 2051 1348 10;
#X obj 380 339 *~ 0;
#X obj 109 169 knob 32 32 0 127 0 0 empty empty empty 0 -8 0 8 -262144
-99865 -1 1500 1;
#X obj 401 315 / 12.7;
#X obj 302 339 *~ 0;
#X obj 109 117 knob 32 32 0 127 0 0 empty empty empty 0 -8 0 8 -262144
-99865 -1 900 1;
#X obj 323 315 / 12.7;
#X obj 465 339 *~ 0;
#X obj 108 220 knob 32 32 0 127 0 0 empty empty empty 0 -8 0 8 -262144
-99865 -1 0 1;
#X obj 486 315 / 12.7;
#X obj 366 390 +~;
#X obj 366 411 +~;
#X obj 699 534 bng 15 250 50 0 empty empty empty 17 7 0 10 -262144
-1 -1;
#X obj 149 122 vsl 15 128 -10 10 0 0 empty empty empty 0 -9 0 10 -262144
-1 -1 6350 1;
#X obj 356 458 atod;
#X obj 695 494 threshold~;
#X floatatom 719 323 5 0 0 0 - - -;
#X obj 179 122 vsl 15 128 -10 10 0 0 empty empty empty 0 -9 0 10 -262144
-1 -1 7400 1;
#X obj 731 401 pack f f;
#X msg 730 442 set \$1 100 \$2 100;
#X obj 738 540 bng 15 250 50 0 empty empty empty 17 7 0 10 -262144
-1 -1;
#X obj 684 711 tgl 15 0 empty empty empty 17 7 0 10 -262144 -1 -1 0
1;
#X obj 682 735 sig~;
#X obj 855 351 - 0.1;
#X obj 301 213 inlet~;
#X obj 375 210 inlet~;
#X obj 488 210 inlet~;
#X obj 689 796 outlet~;
#X text 148 106 vu;
#X text 179 103 TH;
#X obj 158 297 knob 26 26 0 2000 0 0 empty empty empty 0 -8 0 8 -262144
-99865 -1 0 1;
#X floatatom 111 302 5 0 0 0 - - -;
#X text 118 285 ms;
#X obj 680 660 bng 15 250 50 0 empty empty empty 17 7 0 10 -262144
-1 -1;
#X obj 722 657 bng 15 250 50 0 empty empty empty 17 7 0 10 -262144
-1 -1;
#X obj 316 151 osc~ 0.1;
#X obj 403 149 osc~ 0.5;
#X obj 513 145 osc~ 0.05;
#X obj 179 269 tgl 15 0 empty empty empty 17 7 0 10 -262144 -1 -1 0
1;
#X obj 688 624 del 0;
#X obj 726 618 del 0;
#X obj 149 269 tgl 15 0 empty empty empty 17 7 0 10 -262144 -1 -1 0
1;
#X connect 0 0 9 1;
#X connect 1 0 2 0;
#X connect 2 0 0 1;
#X connect 3 0 9 0;
#X connect 4 0 5 0;
#X connect 5 0 3 1;
#X connect 6 0 10 1;
#X connect 7 0 8 0;
#X connect 8 0 6 1;
#X connect 9 0 10 0;
#X connect 10 0 13 0;
#X connect 10 0 14 0;
#X connect 11 0 38 0;
#X connect 11 0 40 0;
#X connect 13 0 12 0;
#X connect 14 0 11 0;
#X connect 14 1 19 0;
#X connect 15 0 17 0;
#X connect 15 0 22 0;
#X connect 16 0 15 0;
#X connect 17 0 18 0;
#X connect 18 0 14 0;
#X connect 19 0 39 0;
#X connect 19 0 40 0;
#X connect 20 0 21 0;
#X connect 20 0 37 0;
#X connect 21 0 26 0;
#X connect 22 0 17 1;
#X connect 23 0 3 0;
#X connect 24 0 0 0;
#X connect 25 0 6 0;
#X connect 29 0 30 0;
#X connect 29 0 38 1;
#X connect 29 0 39 1;
#X connect 32 0 20 0;
#X connect 33 0 20 0;
#X connect 38 0 32 0;
#X connect 39 0 33 0;
#X coords 0 -1 1 1 100 230 2 100 100;
