#N canvas 548 0 2003 1348 10;
#X obj 528 725 *~ 0;
#X obj 136 108 knob 20 20 0 127 0 0 empty empty empty 0 -8 0 8 4.45457e+007
4.43264e+007 4.4546e+007 0 1;
#X obj 450 725 *~ 0;
#X obj 109 108 knob 20 20 0 127 0 0 empty empty empty 0 -8 0 8 4.45457e+007
4.43264e+007 4.4546e+007 900 1;
#X obj 613 725 *~ 0;
#X obj 164 108 knob 20 20 0 127 0 0 empty empty empty 0 -8 0 8 4.45457e+007
4.43264e+007 4.4546e+007 0 1;
#X obj 514 776 +~;
#X obj 514 797 +~;
#X obj 1156 709 bng 15 250 50 0 empty empty empty 17 7 0 10 -262144
-1 -1;
#X obj 134 145 vsl 15 64 -1 1 0 0 empty empty empty 0 -9 0 10 -262144
-1 -1 6300 1;
#X obj 680 922 atod;
#X obj 1152 669 threshold~;
#X floatatom 1176 498 5 0 0 0 - - -;
#X obj 202 144 vsl 15 64 -1 1 0 0 empty empty empty 0 -9 0 10 -262144
-1 -1 0 1;
#X obj 1188 576 pack f f;
#X msg 1187 617 set \$1 100 \$2 100;
#X obj 1195 715 bng 15 250 50 0 empty empty empty 17 7 0 10 -262144
-1 -1;
#X obj 1141 886 tgl 15 0 empty empty empty 17 7 0 10 -262144 -1 -1
1 1;
#X obj 1312 526 - 0.1;
#X obj 449 599 inlet~;
#X obj 526 599 inlet~;
#X obj 614 599 inlet~;
#X obj 156 262 knob 26 26 0 2000 0 0 empty empty empty 0 -8 0 8 4.45457e+007
4.43264e+007 4.4546e+007 0 1;
#X floatatom 109 271 5 0 0 0 - - -;
#X text 116 254 ms;
#X obj 1137 835 bng 15 250 50 0 empty empty empty 17 7 0 10 -262144
-1 -1;
#X obj 1179 832 bng 15 250 50 0 empty empty empty 17 7 0 10 -262144
-1 -1;
#X obj 178 238 tgl 15 0 empty empty empty 17 7 0 10 -262144 -1 -1 1
1;
#X obj 1145 799 del 0;
#X obj 1183 793 del 0;
#X obj 151 238 tgl 15 0 empty empty empty 17 7 0 10 -262144 -1 -1 1
1;
#X obj 246 159 knob 20 20 -1 1 0 0 empty empty empty 0 -8 0 8 4.45457e+007
4.45457e+007 4.45457e+007 0 1;
#X text 232 179 -1;
#X text 263 179 1;
#X text 273 150 bias;
#X obj 220 108 knob 20 20 0 127 0 0 empty empty empty 0 -8 0 8 4.45457e+007
4.43264e+007 4.4546e+007 0 1;
#X obj 192 108 knob 20 20 0 127 0 0 empty empty empty 0 -8 0 8 4.45457e+007
4.43264e+007 4.4546e+007 0 1;
#X obj 249 108 knob 20 20 0 127 0 0 empty empty empty 0 -8 0 8 4.45457e+007
4.43264e+007 4.4546e+007 0 1;
#X obj 277 108 knob 20 20 0 127 0 0 empty empty empty 0 -8 0 8 4.45457e+007
4.43264e+007 4.4546e+007 0 1;
#X obj 774 725 *~ 0;
#X obj 696 725 *~ 0;
#X obj 859 725 *~ 0;
#X obj 760 776 +~;
#X obj 760 797 +~;
#X obj 695 599 inlet~;
#X obj 772 599 inlet~;
#X obj 860 599 inlet~;
#X obj 647 817 +~;
#X obj 949 725 *~ 0;
#X obj 950 599 inlet~;
#X obj 706 836 +~;
#X text 184 255 output delay;
#X text 105 216 total inputs;
#X text 197 216 THreshold;
#X obj 719 880 +~;
#X text 841 118 intended for -1 | 1 signals;
#X text 446 179 all [-1 | +1];
#X obj 278 166 bng 15 250 50 0 empty empty empty 17 7 0 10 -262144
-1 -1;
#X text 273 177 zero;
#X msg 528 42 0;
#X obj 471 701 / 127;
#X obj 549 701 / 127;
#X obj 634 701 / 127;
#X obj 717 701 / 127;
#X obj 795 701 / 127;
#X obj 880 701 / 127;
#X obj 970 701 / 127;
#X text 109 235 active;
#X text 197 235 delayed;
#X obj 201 270 bng 15 250 50 0 empty empty empty 17 7 0 10 -262144
-1 -1;
#X text 195 283 zero;
#X msg 309 388 0;
#X obj 1146 971 outlet;
#X obj 1000 1134 outlet~;
#X obj 1067 956 vline~;
#X obj 1007 982 *~;
#X msg 1067 934 \$1 20;
#X obj 1020 862 tgl 15 0 empty empty empty 17 7 0 10 -262144 -1 -1
0 1;
#X obj 1226 857 loadbang;
#X msg 1228 886 0;
#X obj 1017 835 == 0;
#X obj 1016 912 vline~;
#X obj 956 938 *~;
#X msg 1016 890 \$1 20;
#X obj 1000 1048 +~;
#X text 1035 1046 Leaky ReLU;
#X obj 921 907 *~ 0.1;
#X text 1041 1075 1/10th of the signal goes thru when under threshold
;
#X text 835 154 activation: upward crossing of threshold;
#X obj 1019 599 inlet;
#X text 1007 574 LEAK parameter override;
#X text 1208 966 activation trigger;
#X connect 0 0 6 1;
#X connect 1 0 61 0;
#X connect 2 0 6 0;
#X connect 3 0 60 0;
#X connect 4 0 7 1;
#X connect 5 0 62 0;
#X connect 6 0 7 0;
#X connect 7 0 47 0;
#X connect 8 0 28 0;
#X connect 8 0 30 0;
#X connect 10 0 9 0;
#X connect 11 0 8 0;
#X connect 11 1 16 0;
#X connect 12 0 14 0;
#X connect 12 0 18 0;
#X connect 13 0 12 0;
#X connect 14 0 15 0;
#X connect 15 0 11 0;
#X connect 16 0 29 0;
#X connect 16 0 30 0;
#X connect 17 0 27 0;
#X connect 17 0 72 0;
#X connect 17 0 76 0;
#X connect 17 0 80 0;
#X connect 18 0 14 1;
#X connect 19 0 2 0;
#X connect 20 0 0 0;
#X connect 21 0 4 0;
#X connect 22 0 23 0;
#X connect 22 0 28 1;
#X connect 22 0 29 1;
#X connect 25 0 17 0;
#X connect 26 0 17 0;
#X connect 28 0 25 0;
#X connect 29 0 26 0;
#X connect 31 0 54 1;
#X connect 35 0 64 0;
#X connect 36 0 63 0;
#X connect 37 0 65 0;
#X connect 38 0 66 0;
#X connect 39 0 42 1;
#X connect 40 0 42 0;
#X connect 41 0 43 1;
#X connect 42 0 43 0;
#X connect 43 0 47 1;
#X connect 44 0 40 0;
#X connect 45 0 39 0;
#X connect 46 0 41 0;
#X connect 47 0 50 0;
#X connect 48 0 50 1;
#X connect 49 0 48 0;
#X connect 50 0 54 0;
#X connect 54 0 11 0;
#X connect 54 0 10 0;
#X connect 54 0 75 0;
#X connect 54 0 86 0;
#X connect 57 0 59 0;
#X connect 59 0 31 0;
#X connect 60 0 2 1;
#X connect 61 0 0 1;
#X connect 62 0 4 1;
#X connect 63 0 40 1;
#X connect 64 0 39 1;
#X connect 65 0 41 1;
#X connect 66 0 48 1;
#X connect 69 0 71 0;
#X connect 71 0 22 0;
#X connect 74 0 75 1;
#X connect 75 0 84 1;
#X connect 76 0 74 0;
#X connect 77 0 83 0;
#X connect 78 0 79 0;
#X connect 79 0 17 0;
#X connect 80 0 77 0;
#X connect 81 0 82 1;
#X connect 82 0 84 0;
#X connect 83 0 81 0;
#X connect 84 0 73 0;
#X connect 86 0 82 0;
#X connect 89 0 86 1;
#X coords 0 -1 1 1 200 200 2 100 100;
