#N canvas 824 252 450 300 10;
#X obj 115 120 diode~ 1;
#X obj 115 158 exp~;
#X obj 114 180 -~ 1;
#X obj 123 217 *~ 1;
#X obj 198 163 abs;
#X obj 105 82 inlet~;
#X obj 224 90 inlet;
#X obj 113 260 outlet~;
#X text 253 209 f(x) = x | if x>0;
#X text 253 224 f(x) = a(e^x - 1) | if x<=0;
#X text 259 114 a parameter;
#X text 258 246 a >=0;
#X connect 0 0 1 0;
#X connect 1 0 2 0;
#X connect 2 0 3 0;
#X connect 3 0 7 0;
#X connect 4 0 3 1;
#X connect 5 0 0 0;
#X connect 6 0 4 0;
