#N canvas 1071 496 836 336 10;
#X text 424 57 ramp function // half wave rectifier;
#X obj 138 53 inlet~;
#X obj 138 157 outlet~;
#X obj 217 53 inlet;
#X obj 217 157 outlet;
#X obj 138 106 diode~ 1;
#X obj 217 82 moses 0;
#X obj 217 106 bang;
#X msg 217 129 0;
#X connect 1 0 5 0;
#X connect 3 0 6 0;
#X connect 5 0 2 0;
#X connect 6 0 7 0;
#X connect 6 1 4 0;
#X connect 7 0 8 0;
#X connect 8 0 4 0;
