#N canvas 762 419 450 300 10;
#X obj 46 89 ||;
#X obj 46 110 == 0;
#X obj 88 63 bang;
#X obj 46 39 inlet;
#X obj 88 39 inlet;
#X obj 46 131 outlet;
#X obj 168 40 loadbang;
#X msg 168 61 0;
#X text 136 91 init input 0 0 >> output 1;
#X connect 0 0 1 0;
#X connect 1 0 5 0;
#X connect 2 0 0 0;
#X connect 3 0 0 0;
#X connect 4 0 2 0;
#X connect 4 0 0 1;
#X connect 6 0 7 0;
#X connect 7 0 0 0;
#X connect 7 0 0 1;
