#N canvas 461 411 730 359 10;
#X obj 240 90 loadbang;
#X obj 160 220 outlet;
#X obj 127 21 inlet;
#X obj 233 27 inlet;
#X obj 161 162 == 0;
#X obj 161 137 ||;
#X text 340 50 non-reactive NOR \, to avoid stack overflowsinitialized
to 0 0 inputs;
#X obj 240 115 t b b;
#X msg 270 150 0;
#X msg 230 150 0;
#X obj 90 90 bng 15 250 50 0 empty empty empty 17 7 0 10 #fcfcfc #000000
#000000 1;
#X connect 0 0 7 0;
#X connect 2 0 5 0;
#X connect 3 0 5 1;
#X connect 4 0 1 0;
#X connect 5 0 4 0;
#X connect 7 0 9 0;
#X connect 7 1 8 0;
#X connect 8 0 5 1;
#X connect 9 0 5 0;
#X connect 10 0 5 0;
