#N canvas -8 -8 2560 1357 12;
#X obj 65 156 onlyonce;
#X obj 65 35 bng 15 250 50 0 empty empty empty 17 7 0 10 -262144 -1
-1;
#X obj 65 212 bng 15 250 50 0 empty empty empty 17 7 0 10 -262144 -1
-1;
#X obj 118 132 bng 15 250 50 0 empty empty empty 17 7 0 10 -262144
-1 -1;
#X text 138 130 RESET;
#X text 83 33 input;
#X obj 449 242 tgl 15 0 empty empty empty 17 7 0 10 -262144 -1 -1 1
1;
#X msg 365 260 \; pd dsp \$1;
#X obj 365 198 loadbang;
#X obj 382 219 s lb;
#X obj 424 199 bng 15 250 50 0 empty empty empty 17 7 0 10 -262144
-1 -1;
#X msg 365 238 1;
#X msg 403 238 0;
#X text 256 21 Pure-bAo abstractions library - Alessio Occhiodoro 2018
;
#X text 256 35 https://www.youtube.com/c/minijackaudio;
#X text 253 121 Anything (bang-normalled) in the right inlet resets
the object.;
#X text 254 79 ONLYONCE lets a bang through only once \, then blocks
everything from going through. The input is bang-normalled.;
#X msg 105 107 random event;
#X connect 0 0 2 0;
#X connect 1 0 0 0;
#X connect 3 0 0 1;
#X connect 8 0 9 0;
#X connect 8 0 11 0;
#X connect 10 0 9 0;
#X connect 11 0 7 0;
#X connect 11 0 6 0;
#X connect 12 0 7 0;
#X connect 12 0 6 0;
#X connect 17 0 0 1;
