#N canvas 1339 798 450 300 12;
#X obj 61 48 bang;
#X obj 61 72 t b b;
#X obj 61 173 spigot;
#X msg 93 145 \$1;
#X obj 93 96 f;
#X obj 126 96 + 1;
#X obj 93 120 == 0;
#X obj 61 23 inlet;
#X obj 61 201 outlet;
#X msg 111 72 0;
#X obj 111 23 inlet;
#X text 157 21 reset;
#X obj 111 47 bang;
#X text 10 22 input;
#X connect 0 0 1 0;
#X connect 1 1 4 0;
#X connect 2 0 8 0;
#X connect 3 0 2 1;
#X connect 4 0 5 0;
#X connect 4 0 6 0;
#X connect 5 0 4 1;
#X connect 6 0 3 0;
#X connect 7 0 0 0;
#X connect 7 0 2 0;
#X connect 9 0 4 1;
#X connect 10 0 12 0;
#X connect 12 0 9 0;
