#N canvas 1646 246 411 376 10;
#X obj 247 246 dac~;
#X obj 281 74 catch~ mono;
#X obj 247 195 *~ 1;
#X obj 268 223 *~ 1;
#X obj 102 101 tgl 15 0 empty empty empty 17 7 0 10 -262144 -1 -1 1
1;
#X obj 140 76 inlet;
#X obj 102 31 loadbang;
#X msg 102 52 1;
#X obj 100 117 vsl 20 140 0 1 0 0 empty empty empty 0 -9 0 10 -262144
-1 -1 0 1;
#X obj 100 265 linn 50;
#X obj 246 146 *~;
#X obj 267 168 *~;
#X obj 37 51 loadbang;
#X msg 37 72 0;
#X obj 245 49 catch~ stereoL;
#X obj 296 132 catch~ stereoR;
#X msg 4 3 version "202002131620";
#X connect 1 0 10 0;
#X connect 1 0 11 0;
#X connect 2 0 0 0;
#X connect 3 0 0 1;
#X connect 4 0 3 1;
#X connect 4 0 2 1;
#X connect 5 0 8 0;
#X connect 6 0 7 0;
#X connect 7 0 4 0;
#X connect 8 0 9 0;
#X connect 9 0 10 1;
#X connect 9 0 11 1;
#X connect 10 0 2 0;
#X connect 11 0 3 0;
#X connect 12 0 13 0;
#X connect 13 0 8 0;
#X connect 14 0 10 0;
#X connect 15 0 11 0;
#X coords 0 -1 1 1 20 162 1 100 100;
