#N canvas -8 -8 2560 1357 10;
#X obj 246 87 catch~ L;
#X obj 266 127 catch~ R;
#X obj 247 246 dac~;
#X obj 246 146 *~ 0;
#X obj 267 169 *~ 0;
#X obj 246 108 catch~ mono;
#X obj 247 195 *~ 1;
#X obj 268 223 *~ 1;
#X obj 102 101 tgl 15 0 empty empty empty 17 7 0 10 -262144 -1 -1 0
1;
#X obj 140 76 inlet;
#X obj 102 31 loadbang;
#X msg 102 52 1;
#X obj 100 117 vsl 20 140 0 1 0 0 empty empty empty 0 -9 0 10 -262144
-1 -1 0 1;
#X msg 4 3 version "201912011613";
#X connect 0 0 3 0;
#X connect 1 0 4 0;
#X connect 3 0 6 0;
#X connect 4 0 7 0;
#X connect 5 0 3 0;
#X connect 5 0 4 0;
#X connect 6 0 2 0;
#X connect 7 0 2 1;
#X connect 8 0 7 1;
#X connect 8 0 6 1;
#X connect 9 0 12 0;
#X connect 10 0 11 0;
#X connect 11 0 8 0;
#X connect 12 0 3 1;
#X connect 12 0 4 1;
#X coords 0 -1 1 1 20 162 1 100 100;
