#N canvas 585 5 1975 1357 10;
#X text 336 370 x * phi;
#X text 339 417 x + (x * phi);
#X obj 162 510 vline~;
#X msg 162 432 1;
#X msg 202 432 0;
#X obj 162 236 bng 15 250 50 0 empty empty empty 17 7 0 10 -262144
-1 -1;
#X obj 162 466 pack f f f f f;
#X msg 162 488 \$1 \$2 \, \$3 \$4 \$5;
#X obj 248 320 f;
#X floatatom 308 215 5 0 0 0 - - -;
#X obj 478 380 phi;
#X obj 306 370 *;
#X obj 312 417 +;
#X obj 308 469 del;
#X obj 308 240 abs;
#X obj 355 464 inv;
#X floatatom 355 507 5 0 0 0 - - -;
#X obj 355 487 * 1000;
#X text 350 214 ms = 1000 / [(PHI*f) + f];
#X floatatom 323 54 5 0 0 0 - - -;
#X msg 293 115 1000;
#X obj 293 83 bang;
#X obj 308 166 /;
#X obj 353 101 phi;
#X obj 338 122 *;
#X obj 323 143 +;
#X text 362 15 << freq in Hz;
#X obj 308 263 + 0.0001;
#X obj 345 341 f;
#X obj 479 360 bng 15 250 50 0 empty empty empty 17 7 0 10 -262144
-1 -1;
#X obj 396 309 abs;
#X obj 396 330 + 0.0001;
#X text 505 360 restore PHI ratio;
#X text 439 -122 override ratio;
#X obj 356 -83 loadbang;
#X obj 162 192 loadbang;
#X obj 480 340 loadbang;
#X obj 308 191 - 0.0001;
#X obj 325 34 + 1;
#X floatatom 325 11 5 0 0 0 - - -;
#X msg 356 -34 432;
#X obj 161 705 outlet~;
#X text 336 239 << to support thru-zero modulation;
#X obj 325 -121 inlet;
#X obj 374 -62 del 1;
#X text 387 -33 << initializes the freq to a non-zero value;
#X text 376 262 << to prevent the "0ms" event;
#X obj 161 575 *~ 2;
#X obj 161 597 -~ 1;
#X text 397 511 << actual output freq (Hz);
#X text 206 587 << to shift the range to -1 | 1;
#X obj 281 704 outlet~;
#X text 158 731 (-1 | 1);
#X text 282 727 (0 | 1);
#X obj 396 -121 inlet;
#X connect 2 0 47 0;
#X connect 2 0 51 0;
#X connect 3 0 6 0;
#X connect 4 0 6 2;
#X connect 5 0 3 0;
#X connect 5 0 4 0;
#X connect 5 0 8 0;
#X connect 5 0 13 0;
#X connect 5 0 28 0;
#X connect 6 0 7 0;
#X connect 7 0 2 0;
#X connect 8 0 6 1;
#X connect 8 0 6 4;
#X connect 8 0 11 0;
#X connect 8 0 12 0;
#X connect 9 0 14 0;
#X connect 10 0 28 1;
#X connect 11 0 6 3;
#X connect 11 0 12 1;
#X connect 12 0 13 1;
#X connect 12 0 15 0;
#X connect 13 0 5 0;
#X connect 14 0 27 0;
#X connect 15 0 17 0;
#X connect 17 0 16 0;
#X connect 19 0 21 0;
#X connect 19 0 24 0;
#X connect 19 0 25 0;
#X connect 20 0 22 0;
#X connect 21 0 20 0;
#X connect 21 0 23 0;
#X connect 22 0 37 0;
#X connect 23 0 24 1;
#X connect 24 0 25 1;
#X connect 25 0 22 1;
#X connect 27 0 8 1;
#X connect 28 0 11 1;
#X connect 29 0 10 0;
#X connect 30 0 31 0;
#X connect 31 0 28 1;
#X connect 34 0 44 0;
#X connect 34 0 40 0;
#X connect 35 0 5 0;
#X connect 36 0 29 0;
#X connect 37 0 9 0;
#X connect 38 0 19 0;
#X connect 39 0 38 0;
#X connect 40 0 39 0;
#X connect 43 0 39 0;
#X connect 44 0 40 0;
#X connect 47 0 48 0;
#X connect 48 0 41 0;
#X connect 54 0 30 0;
