#N canvas 543 444 1072 790 10;
#X obj 462 224 tgl 15 0 empty empty empty 17 7 0 10 -262144 -1 -1 0
1;
#X msg 399 218 \; pd dsp \$1;
#X obj 399 156 loadbang;
#X obj 416 177 s lb;
#X obj 458 157 bng 15 250 50 0 empty empty empty 17 7 0 10 -262144
-1 -1;
#X msg 399 196 1;
#X msg 437 196 0;
#X text 307 21 Pure-bAo abstractions library - Alessio Occhiodoro 2018
;
#X text 307 35 https://www.youtube.com/c/minijackaudio;
#X obj 127 74 phitimes;
#X floatatom 127 106 5 0 0 0 - - -;
#X floatatom 127 41 5 0 0 0 - - -;
#X obj 115 222 phitimes;
#X obj 58 187 vsl 15 128 0 127 0 0 empty empty empty 0 -9 0 10 -262144
-1 -1 0 1;
#X obj 207 188 vsl 15 128 0 127 0 0 empty empty empty 0 -9 0 10 -262144
-1 -1 0 1;
#X obj 76 319 hsl 128 15 0 127 0 0 empty empty empty -2 -8 0 10 -262144
-1 -1 0 1;
#X text 305 65 Multiplies the input with the PHI number.;
#X connect 2 0 3 0;
#X connect 2 0 5 0;
#X connect 4 0 3 0;
#X connect 5 0 1 0;
#X connect 5 0 0 0;
#X connect 6 0 1 0;
#X connect 6 0 0 0;
#X connect 9 0 10 0;
#X connect 11 0 9 0;
#X connect 12 0 14 0;
#X connect 12 0 15 0;
#X connect 13 0 12 0;
