#N canvas 0 50 841 627 10;
#X obj 224 177 tgl 15 0 empty empty empty 17 7 0 10 -262144 -1 -1 1
1;
#X obj 265 247 select 1;
#X obj 196 249 select 0;
#X obj 205 213 == 0;
#X obj 228 120 inlet;
#X obj 227 155 bang;
#X obj 192 310 outlet;
#X obj 305 120 bng 15 250 50 0 empty empty empty 17 7 0 10 -262144
-1 -1;
#X obj 229 382 bng 15 250 50 0 empty empty empty 17 7 0 10 -262144
-1 -1;
#X obj 416 281 tgl 15 0 empty empty empty 17 7 0 10 -262144 -1 -1 1
1;
#X obj 457 351 select 1;
#X obj 388 353 select 0;
#X obj 397 317 == 0;
#X obj 384 414 outlet;
#X obj 467 412 outlet;
#X obj 356 392 bng 15 250 50 0 empty empty empty 17 7 0 10 -262144
-1 -1;
#X obj 494 390 bng 15 250 50 0 empty empty empty 17 7 0 10 -262144
-1 -1;
#X connect 0 0 3 0;
#X connect 1 0 9 0;
#X connect 2 0 6 0;
#X connect 2 0 8 0;
#X connect 3 0 1 0;
#X connect 3 0 2 0;
#X connect 4 0 5 0;
#X connect 5 0 0 0;
#X connect 7 0 5 0;
#X connect 9 0 12 0;
#X connect 10 0 14 0;
#X connect 10 0 16 0;
#X connect 11 0 13 0;
#X connect 11 0 15 0;
#X connect 12 0 10 0;
#X connect 12 0 11 0;
