#N canvas 917 531 911 475 10;
#X obj 552 272 tgl 15 0 empty empty empty 17 7 0 10 -262144 -1 -1 0
1;
#X msg 489 266 \; pd dsp \$1;
#X obj 489 204 loadbang;
#X obj 506 225 s lb;
#X obj 548 205 bng 15 250 50 0 empty empty empty 17 7 0 10 -262144
-1 -1;
#X msg 489 244 1;
#X msg 527 244 0;
#X text 374 -29 https://www.youtube.com/c/minijackaudio;
#X text 372 1 PWWM is a pulse-wave-modulation objects \, outputs a
[-1 | +1] range square wave.;
#X text 372 42 Left inlet is main frequency of the oscillator;
#X text 372 63 Center inlet is phase sync (0-1);
#X text 373 81 Right inlet is the duty cycle (pulse width) in [0 |
1] scale;
#X obj 124 234 dac~;
#X obj 124 96 pwwm;
#X obj 124 205 *~ 0;
#X obj 145 175 tgl 15 0 empty empty empty 17 7 0 10 -262144 -1 -1 0
1;
#X floatatom 124 4 5 0 0 0 - - -;
#X msg 87 58 432;
#X obj 148 63 hsl 128 15 0 1 0 0 empty empty empty -2 -8 0 10 -262144
-1 -1 2700 1;
#X floatatom 194 88 5 0 0 0 - - -;
#X text 110 -14 main freq;
#X obj 87 35 r lb;
#X text 374 -43 Pure-bAo abstractions library - Alessio Occhiodoro
2019;
#X connect 2 0 3 0;
#X connect 2 0 5 0;
#X connect 4 0 3 0;
#X connect 5 0 1 0;
#X connect 5 0 0 0;
#X connect 6 0 1 0;
#X connect 6 0 0 0;
#X connect 13 0 14 0;
#X connect 14 0 12 0;
#X connect 14 0 12 1;
#X connect 15 0 14 1;
#X connect 16 0 13 0;
#X connect 17 0 13 0;
#X connect 18 0 19 0;
#X connect 18 0 13 2;
#X connect 21 0 17 0;
