#N canvas 836 517 450 300 10;
#X obj 113 20 hsl 128 15 0 127 0 0 empty empty empty -2 -8 0 10 -262144
-1 -1 0 1;
#X floatatom 110 40 5 0 0 0 - - -;
#X msg 255 57 0;
#X msg 294 58 127;
#X msg 341 56 432;
#X msg 384 56 864;
#X obj 308 16 bng 15 250 50 0 empty empty empty 17 7 0 10 -262144 -1
-1;
#X text 16 68 args: source range - target range;
#X connect 0 0 1 0;
#X connect 6 0 2 0;
#X connect 6 0 3 0;
#X connect 6 0 4 0;
#X connect 6 0 5 0;
