#N canvas 1142 501 1941 648 10;
#X obj 195 138 -;
#X obj 262 138 -;
#X obj 120 143 -;
#X obj 120 165 *;
#X obj 120 186 /;
#X obj 120 207 +;
#X obj 120 65 inlet;
#X obj 120 277 outlet;
#X obj 187 101 f \$1;
#X obj 220 101 f \$2;
#X obj 253 101 f \$3;
#X obj 287 101 f \$4;
#X obj 220 64 loadbang;
#X obj 310 60 inlet;
#X obj 350 60 inlet;
#X obj 390 60 inlet;
#X obj 430 60 inlet;
#X connect 0 0 4 1;
#X connect 1 0 3 1;
#X connect 2 0 3 0;
#X connect 3 0 4 0;
#X connect 4 0 5 0;
#X connect 5 0 7 0;
#X connect 6 0 2 0;
#X connect 8 0 0 1;
#X connect 8 0 2 1;
#X connect 9 0 0 0;
#X connect 10 0 1 1;
#X connect 10 0 5 1;
#X connect 11 0 1 0;
#X connect 12 0 8 0;
#X connect 12 0 9 0;
#X connect 12 0 10 0;
#X connect 12 0 11 0;
#X connect 13 0 8 0;
#X connect 14 0 9 0;
#X connect 15 0 10 0;
#X connect 16 0 11 0;
