#N canvas 917 531 911 475 10;
#X obj 215 -62 ctlin;
#X floatatom 185 -36 5 0 0 0 - - -;
#X floatatom 220 -36 5 0 0 0 - - -;
#X floatatom 255 -36 5 0 0 0 - - -;
#X obj 370 91 tgl 15 0 empty empty empty 17 7 0 10 -262144 -1 -1 1
1;
#X msg 307 85 \; pd dsp \$1;
#X obj 307 23 loadbang;
#X obj 118 86 dac~;
#X obj 324 44 s lb;
#X obj 366 24 bng 15 250 50 0 empty empty empty 17 7 0 10 -262144 -1
-1;
#X obj 118 67 *~ 1;
#X obj 399 183 output~;
#X obj 399 159 *~ 1;
#X obj 82 -8 adc~;
#X msg 307 63 1;
#X msg 345 63 0;
#X obj 132 162 hsl 128 15 35 5000 0 0 empty empty empty -2 -8 0 10
-262144 -1 -1 1600 1;
#X obj 127 245 scaale;
#X floatatom 139 275 20 0 0 0 - - -;
#X obj 129 189 fton 432;
#X obj 116 302 ntof 432;
#X obj 138 345 osc~;
#X connect 0 0 1 0;
#X connect 0 1 2 0;
#X connect 0 2 3 0;
#X connect 6 0 8 0;
#X connect 6 0 14 0;
#X connect 9 0 8 0;
#X connect 10 0 7 0;
#X connect 10 0 7 1;
#X connect 12 0 11 0;
#X connect 12 0 11 1;
#X connect 14 0 5 0;
#X connect 14 0 4 0;
#X connect 15 0 5 0;
#X connect 15 0 4 0;
#X connect 16 0 19 0;
#X connect 17 0 18 0;
#X connect 17 0 20 0;
#X connect 19 0 17 0;
#X connect 20 0 21 0;
#X connect 21 0 12 0;
