#N canvas -7 0 1278 1348 10;
#X obj 59 109 change;
#X obj 59 130 t f f;
#X obj 59 152 mod 12;
#X obj 59 217 f;
#X obj 59 173 list-sieve;
#X msg 333 438 0 3 5 6 7 10 blues;
#X msg 336 114 0 2 4 6 8 10 wholetone;
#X msg 133 145 0 2 4 5 7 9 11 major;
#X msg 335 190 0 2 3 5 7 9 10 dorian;
#X msg 333 498 4 8 9 10 TwilightZone;
#X msg 335 238 0 2 4 6 7 9 11 lydian;
#X msg 336 69 4 9 mi la;
#X msg 335 310 0 1 3 5 6 8 10 locrian;
#X msg 333 478 1 3 6 8 0 jap;
#X obj 59 195 bang;
#X obj 59 65 inlet;
#X obj 116 65 inlet;
#X obj 59 265 outlet;
#X obj 133 121 loadbang;
#X obj 59 238 makenote 64;
#X msg 335 166 0 2 4 5 7 9 11 ionian(major);
#X msg 4 3 version "202010031247";
#X msg 335 214 0 1 3 5 7 8 10 phrygian;
#X msg 335 262 0 2 4 5 7 9 10 mixolydian;
#X msg 335 287 0 2 3 5 7 8 10 aeolian(natural minor);
#X msg 335 342 0 2 4 7 9 pentatonic major;
#X msg 335 365 0 3 5 7 10 pentatonic minor;
#X connect 0 0 1 0;
#X connect 1 0 2 0;
#X connect 1 1 3 1;
#X connect 2 0 4 0;
#X connect 3 0 19 0;
#X connect 4 0 14 0;
#X connect 7 0 4 1;
#X connect 14 0 3 0;
#X connect 15 0 0 0;
#X connect 16 0 4 1;
#X connect 18 0 7 0;
#X connect 19 0 17 0;
