#N canvas -8 -8 2560 1357 10;
#X obj 59 109 change;
#X obj 59 130 t f f;
#X obj 59 152 mod 12;
#X obj 59 217 f;
#X obj 59 173 list-sieve;
#X msg 346 87 0 2 5 7 9 pentatonic;
#X msg 346 191 0 3 5 6 7 10 blues;
#X msg 346 109 0 2 4 6 8 10 wholetone;
#X msg 133 145 0 2 4 5 7 9 11 major;
#X msg 346 130 0 2 3 5 7 9 10 dorian;
#X msg 346 251 4 8 9 10 TwilightZone;
#X msg 346 151 0 2 4 6 7 9 11 lydian;
#X msg 346 171 0 2 3 5 7 8 10 aeolian;
#X msg 346 64 4 9 mi la;
#X msg 346 211 0 1 3 5 6 8 10 locrian;
#X msg 346 231 1 3 6 8 0 jap;
#X obj 59 195 bang;
#X obj 59 65 inlet;
#X obj 116 65 inlet;
#X obj 59 265 outlet;
#X obj 133 121 loadbang;
#X obj 59 238 makenote 64;
#X msg 4 3 version "202006301009";
#X connect 0 0 1 0;
#X connect 1 0 2 0;
#X connect 1 1 3 1;
#X connect 2 0 4 0;
#X connect 3 0 21 0;
#X connect 4 0 16 0;
#X connect 8 0 4 1;
#X connect 16 0 3 0;
#X connect 17 0 0 0;
#X connect 18 0 4 1;
#X connect 20 0 8 0;
#X connect 21 0 19 0;
