#N canvas 658 72 1668 967 10;
#X obj 559 820 outlet;
#X floatatom 209 415 5 0 0 0 - - -;
#X obj 552 630 t f f;
#X obj 641 639 &&;
#X obj 641 658 sel 1;
#X obj 683 647 bng 15 250 50 0 empty empty empty 17 7 0 10 -262144
-1 -1;
#X obj 584 588 t f f;
#X obj 648 589 &&;
#X obj 648 608 sel 1;
#X obj 692 599 bng 15 250 50 0 empty empty empty 17 7 0 10 -262144
-1 -1;
#X obj 596 538 t f f;
#X obj 646 539 &&;
#X obj 646 558 sel 1;
#X obj 688 547 bng 15 250 50 0 empty empty empty 17 7 0 10 -262144
-1 -1;
#X obj 597 493 t f f;
#X obj 647 494 &&;
#X obj 647 513 sel 1;
#X obj 689 502 bng 15 250 50 0 empty empty empty 17 7 0 10 -262144
-1 -1;
#X obj 600 442 t f f;
#X obj 650 443 &&;
#X obj 650 462 sel 1;
#X obj 692 451 bng 15 250 50 0 empty empty empty 17 7 0 10 -262144
-1 -1;
#X obj 609 398 t f f;
#X obj 659 399 &&;
#X obj 659 418 sel 1;
#X obj 701 407 bng 15 250 50 0 empty empty empty 17 7 0 10 -262144
-1 -1;
#X obj 605 353 t f f;
#X obj 655 354 &&;
#X obj 655 373 sel 1;
#X obj 697 362 bng 15 250 50 0 empty empty empty 17 7 0 10 -262144
-1 -1;
#X obj 606 310 t f f;
#X obj 656 311 &&;
#X obj 656 330 sel 1;
#X obj 698 319 bng 15 250 50 0 empty empty empty 17 7 0 10 -262144
-1 -1;
#X obj 607 266 t f f;
#X obj 657 267 &&;
#X obj 657 286 sel 1;
#X obj 699 275 bng 15 250 50 0 empty empty empty 17 7 0 10 -262144
-1 -1;
#X obj 609 224 t f f;
#X obj 659 225 &&;
#X obj 659 244 sel 1;
#X obj 701 233 bng 15 250 50 0 empty empty empty 17 7 0 10 -262144
-1 -1;
#X obj 634 244 <= 10;
#X obj 552 648 >= 0;
#X obj 600 663 < 0.8;
#X obj 584 606 > 1.2;
#X obj 623 608 < 1.8;
#X obj 596 556 > 2.2;
#X obj 621 558 < 2.8;
#X obj 597 511 > 3.2;
#X obj 622 513 < 3.8;
#X obj 600 460 > 4.2;
#X obj 625 462 < 4.8;
#X obj 609 416 > 5.2;
#X obj 634 418 < 5.8;
#X obj 605 371 > 6.2;
#X obj 630 373 < 6.8;
#X obj 606 328 > 7.2;
#X obj 631 330 < 7.8;
#X obj 607 284 > 8.2;
#X obj 632 286 < 8.8;
#X obj 609 242 > 9.2;
#X obj 945 360 vradio 15 1 0 10 empty empty empty 0 -8 0 10 -262144
-1 -1 5;
#X obj 194 469 -;
#X msg 195 443 10;
#X obj 632 821 outlet;
#X obj 700 825 outlet;
#X obj 780 824 outlet;
#X obj 837 824 outlet;
#X obj 893 823 outlet;
#X obj 951 821 outlet;
#X obj 1010 822 outlet;
#X obj 1066 821 outlet;
#X obj 1124 819 outlet;
#X obj 266 290 snapshot~;
#X obj 273 265 bang~;
#X floatatom 193 511 5 0 0 0 - - -;
#X floatatom 1040 544 5 0 0 0 - - -;
#X obj 1182 822 outlet;
#X obj 208 156 inlet~;
#X obj 258 156 inlet;
#X text 610 185 << shift range into (0 | 10);
#X text 76 467 (10 - input) >>;
#X obj 1159 416 scope~ 130 130 2 3 128 0 10 0 0 0 0 102 255 51 135
135 135 0;
#X msg 1239 333 range 0 10;
#X obj 1145 358 sig~;
#X obj 61 60 osc~ 0.2;
#X text 1284 797 first 10 outs are bangs;
#X floatatom 547 701 5 0 0 0 - - -;
#X floatatom 601 698 5 0 0 0 - - -;
#X floatatom 667 740 5 0 0 0 - - -;
#X text 865 156 in ogni out non dà un singolo bang \, ma una raffica
ultradensa di bang \, da fixare;
#X obj 1239 302 loadbang;
#X text 44 38 test oscillator;
#X text 215 133 input (0 | 1);
#X obj 258 184 * 10;
#X obj 208 184 *~ 10;
#X obj 61 83 /~ 2;
#X obj 61 107 +~ 0.5;
#X obj 372 156 inlet~;
#X obj 372 184 *~ 5;
#X obj 372 208 +~ 5;
#X obj 420 156 inlet;
#X obj 420 184 * 10;
#X text 370 131 input (-1 | 1);
#X text 1290 820 last out is a (0 | 9) discrete number;
#X connect 1 0 2 0;
#X connect 1 0 6 0;
#X connect 1 0 10 0;
#X connect 1 0 14 0;
#X connect 1 0 18 0;
#X connect 1 0 22 0;
#X connect 1 0 26 0;
#X connect 1 0 30 0;
#X connect 1 0 34 0;
#X connect 1 0 38 0;
#X connect 1 0 64 0;
#X connect 1 0 63 1;
#X connect 1 0 85 0;
#X connect 1 0 62 0;
#X connect 2 0 43 0;
#X connect 2 1 44 0;
#X connect 3 0 4 0;
#X connect 3 0 90 0;
#X connect 4 0 5 0;
#X connect 5 0 0 0;
#X connect 6 0 45 0;
#X connect 6 1 46 0;
#X connect 7 0 8 0;
#X connect 8 0 9 0;
#X connect 9 0 65 0;
#X connect 10 0 47 0;
#X connect 10 1 48 0;
#X connect 11 0 12 0;
#X connect 12 0 13 0;
#X connect 13 0 66 0;
#X connect 14 0 49 0;
#X connect 14 1 50 0;
#X connect 15 0 16 0;
#X connect 16 0 17 0;
#X connect 17 0 67 0;
#X connect 18 0 51 0;
#X connect 18 1 52 0;
#X connect 19 0 20 0;
#X connect 20 0 21 0;
#X connect 21 0 68 0;
#X connect 22 0 53 0;
#X connect 22 1 54 0;
#X connect 23 0 24 0;
#X connect 24 0 25 0;
#X connect 25 0 69 0;
#X connect 26 0 55 0;
#X connect 26 1 56 0;
#X connect 27 0 28 0;
#X connect 28 0 29 0;
#X connect 29 0 70 0;
#X connect 30 0 57 0;
#X connect 30 1 58 0;
#X connect 31 0 32 0;
#X connect 32 0 33 0;
#X connect 33 0 71 0;
#X connect 34 0 59 0;
#X connect 34 1 60 0;
#X connect 35 0 36 0;
#X connect 36 0 37 0;
#X connect 37 0 72 0;
#X connect 38 0 61 0;
#X connect 38 1 42 0;
#X connect 39 0 40 0;
#X connect 40 0 41 0;
#X connect 41 0 73 0;
#X connect 42 0 39 1;
#X connect 43 0 3 0;
#X connect 43 0 88 0;
#X connect 44 0 3 1;
#X connect 44 0 89 0;
#X connect 45 0 7 0;
#X connect 46 0 7 1;
#X connect 47 0 11 0;
#X connect 48 0 11 1;
#X connect 49 0 15 0;
#X connect 50 0 15 1;
#X connect 51 0 19 0;
#X connect 52 0 19 1;
#X connect 53 0 23 0;
#X connect 54 0 23 1;
#X connect 55 0 27 0;
#X connect 56 0 27 1;
#X connect 57 0 31 0;
#X connect 58 0 31 1;
#X connect 59 0 35 0;
#X connect 60 0 35 1;
#X connect 61 0 39 0;
#X connect 62 0 77 0;
#X connect 63 0 76 0;
#X connect 64 0 63 0;
#X connect 74 0 1 0;
#X connect 75 0 74 0;
#X connect 77 0 78 0;
#X connect 79 0 96 0;
#X connect 80 0 95 0;
#X connect 84 0 83 0;
#X connect 85 0 83 0;
#X connect 86 0 97 0;
#X connect 92 0 84 0;
#X connect 95 0 1 0;
#X connect 96 0 74 0;
#X connect 97 0 98 0;
#X connect 99 0 100 0;
#X connect 100 0 101 0;
#X connect 101 0 74 0;
#X connect 102 0 103 0;
#X connect 103 0 1 0;
