#N canvas 619 802 548 300 10;
#X obj 108 67 inlet;
#X obj 108 110 f;
#X obj 148 110 + 1;
#X obj 108 88 bang;
#X obj 251 67 inlet;
#X text 234 46 sequence lenght;
#X text 109 45 clock;
#X obj 108 176 outlet;
#X obj 108 143 %;
#X obj 234 104 loadbang;
#X msg 234 127 1;
#X text 264 123 initialize sequence lenght to 1;
#X connect 0 0 3 0;
#X connect 1 0 2 0;
#X connect 1 0 8 0;
#X connect 2 0 1 1;
#X connect 3 0 1 0;
#X connect 4 0 8 1;
#X connect 8 0 7 0;
#X connect 9 0 10 0;
#X connect 10 0 8 1;
