#N canvas 1194 671 1278 808 10;
#X obj 48 154 samphold~;
#X obj 48 127 noise~;
#X obj 99 98 vline~;
#X msg 99 72 1 1 \, 0 0 1;
#X obj 99 49 bang;
#X obj 47 184 /~ 2;
#X text 93 193 << shift range into (0 | 1);
#X text 113 155 << sample and hold;
#X text 108 127 << noise source;
#X text 159 91 << bang to trigger for the s&h;
#X obj 99 24 inlet;
#X obj 47 205 +~ 0.5;
#X text 309 24 << direct signal input;
#X text 7 23 bang input >>;
#X obj 47 243 outlet~;
#X obj 259 24 inlet~;
#X connect 0 0 5 0;
#X connect 1 0 0 0;
#X connect 2 0 0 1;
#X connect 3 0 2 0;
#X connect 4 0 3 0;
#X connect 5 0 11 0;
#X connect 10 0 4 0;
#X connect 11 0 14 0;
#X connect 15 0 0 1;
