#N canvas 350 164 1039 1018 10;
#X obj 421 114 edge~;
#N canvas 0 0 450 300 (subpatch) 0;
#X array skopwindow 32 float 0;
#X coords 0 1 31 -1 200 140 1 0 0;
#X restore 12 40 graph;
#X obj 498 25 inlet~;
#X floatatom 167 23 7 0 0 0 samples - -;
#X obj 244 2 loadbang;
#X msg 244 44 1024;
#X obj 317 68 samplerate~;
#X obj 317 92 / 1000;
#X obj 272 116 pack f f;
#X obj 272 139 /;
#X obj 420 76 expr~ $v1>0;
#X msg 507 199 1;
#X msg 421 190 0;
#X obj 507 180 delay 10;
#X obj 421 142 t b b;
#X obj 122 197 speedlim 500;
#X obj 272 166 * 3;
#X obj 244 21 t b b;
#X obj 272 191 max 100;
#X obj 448 231 spigot 1;
#X msg 120 225 \; skopwindow resize \$1;
#X obj 499 269 tabwrite~ skopwindow;
#X text 606 64 todo: solve that you can't use multiple instances because
of the duplicated array name;
#X obj 510 68 outlet~;
#X connect 0 0 14 0;
#X connect 2 0 10 0;
#X connect 2 0 21 0;
#X connect 2 0 23 0;
#X connect 3 0 8 0;
#X connect 3 0 15 0;
#X connect 4 0 17 0;
#X connect 5 0 3 0;
#X connect 6 0 7 0;
#X connect 7 0 8 1;
#X connect 8 0 9 0;
#X connect 9 0 16 0;
#X connect 10 0 0 0;
#X connect 11 0 19 1;
#X connect 12 0 19 1;
#X connect 13 0 11 0;
#X connect 14 0 12 0;
#X connect 14 1 19 0;
#X connect 15 0 20 0;
#X connect 16 0 18 0;
#X connect 17 0 5 0;
#X connect 17 1 6 0;
#X connect 18 0 13 1;
#X connect 19 0 13 0;
#X connect 19 0 21 0;
#X coords 0 -1 1 1 204 173 1 10 10;
