#N canvas 852 290 1039 1018 10;
#X obj 468 150 edge~;
#N canvas 0 0 450 300 (subpatch) 0;
#X array \$0-skopwindow 1024 float 0;
#X coords 0 1 1023 -1 200 140 1 0 0;
#X restore 11 12 graph;
#X obj 545 61 inlet~;
#X floatatom 291 103 7 0 0 0 samples - -;
#X obj 291 38 loadbang;
#X msg 291 80 1024;
#X obj 364 104 samplerate~;
#X obj 364 128 / 1000;
#X obj 319 152 pack f f;
#X obj 319 175 /;
#X obj 467 112 expr~ $v1>0;
#X msg 554 235 1;
#X msg 468 226 0;
#X obj 554 216 delay 10;
#X obj 468 178 t b b;
#X obj 291 277 speedlim 500;
#X obj 319 202 * 3;
#X obj 291 57 t b b;
#X obj 319 227 max 100;
#X obj 495 267 spigot 1;
#X obj 557 104 outlet~;
#X msg 289 305 \; \$0-skopwindow resize \$1;
#X obj 546 305 tabwrite~ \$0-skopwindow;
#X connect 0 0 14 0;
#X connect 2 0 10 0;
#X connect 2 0 20 0;
#X connect 2 0 22 0;
#X connect 3 0 8 0;
#X connect 3 0 15 0;
#X connect 4 0 17 0;
#X connect 5 0 3 0;
#X connect 6 0 7 0;
#X connect 7 0 8 1;
#X connect 8 0 9 0;
#X connect 9 0 16 0;
#X connect 10 0 0 0;
#X connect 11 0 19 1;
#X connect 12 0 19 1;
#X connect 13 0 11 0;
#X connect 14 0 12 0;
#X connect 14 1 19 0;
#X connect 15 0 21 0;
#X connect 16 0 18 0;
#X connect 17 0 5 0;
#X connect 17 1 6 0;
#X connect 18 0 13 1;
#X connect 19 0 13 0;
#X connect 19 0 22 0;
#X coords 0 -1 1 1 204 150 1 10 10;
