#N canvas 834 0 1726 1357 10;
#X obj 579 662 gemhead;
#X obj 515 697 vline~;
#X obj 484 650 bng 15 250 50 0 empty empty empty 17 7 0 10 -262144
-1 -1;
#X obj 509 648 metro 200;
#X obj 579 683 colorRGB 1 0.5 0;
#X msg 429 702 width 1;
#X msg 430 681 length 4096;
#X msg 772 678 0 \, destroy;
#X obj 704 730 gemwin 120;
#X obj 477 764 scopeXYZ~ 1024;
#X msg 706 710 reset \, dimen 810 500 \, create \, 1 \, color 0.25
0.25 0.25;
#X msg 511 671 -6 \, 6 200;
#X obj 704 684 loadbang;
#X obj 470 614 loadbang;
#X obj 429 660 loadbang;
#X obj 401 492 inlet~;
#X obj 401 881 outlet~;
#X text 455 879 << thru;
#X obj 679 831 gemhead;
#X obj 679 852 colorRGB 1 1 1;
#X obj 679 875 rectangle 6 0.01;
#X connect 0 0 4 0;
#X connect 1 0 9 1;
#X connect 2 0 3 0;
#X connect 3 0 11 0;
#X connect 4 0 9 0;
#X connect 5 0 9 0;
#X connect 6 0 9 0;
#X connect 7 0 8 0;
#X connect 10 0 8 0;
#X connect 11 0 1 0;
#X connect 12 0 10 0;
#X connect 13 0 2 0;
#X connect 14 0 6 0;
#X connect 14 0 5 0;
#X connect 15 0 9 2;
#X connect 15 0 16 0;
#X connect 18 0 19 0;
#X connect 19 0 20 0;
