#N canvas 413 140 450 300 10;
#X obj 32 23 inlet;
#X obj 32 164 outlet;
#X obj 49 140 print -n;
#X msg 49 89 *****************************************;
#X obj 32 57 t a b b b;
#X msg 49 109 *************** ERROR ****************;
#X connect 0 0 4 0;
#X connect 3 0 2 0;
#X connect 4 0 1 0;
#X connect 4 1 3 0;
#X connect 4 2 5 0;
#X connect 4 3 3 0;
#X connect 5 0 2 0;
