#N canvas 595 348 450 300 10;
#X obj 32 23 inlet;
#X obj 32 166 outlet;
#X obj 47 142 print -n;
#X msg 47 91 *****************************************;
#X msg 47 111 *************** ERROR ****************;
#X obj 32 57 t a b a b b b;
#X connect 0 0 5 0;
#X connect 3 0 2 0;
#X connect 4 0 2 0;
#X connect 5 0 1 0;
#X connect 5 1 3 0;
#X connect 5 2 2 0;
#X connect 5 3 3 0;
#X connect 5 4 4 0;
#X connect 5 5 3 0;
