#N canvas 1013 681 710 300 10;
#X obj 406 223 tgl 15 0 empty empty empty 17 7 0 10 -262144 -1 -1 0
1;
#X msg 343 217 \; pd dsp \$1;
#X obj 343 155 loadbang;
#X obj 360 176 s lb;
#X obj 402 156 bng 15 250 50 0 empty empty empty 17 7 0 10 -262144
-1 -1;
#X msg 343 195 1;
#X msg 381 195 0;
#X text 234 21 Pure-bAo abstractions library - Alessio Occhiodoro 2018
;
#X text 234 35 https://www.youtube.com/c/minijackaudio;
#X text 232 65 SUMMER5TO1 sums up to 5 signals together \, using a
single object.;
#X obj 72 136 summer5to1;
#X obj 71 225 dac~;
#X obj 71 204 *~ 0;
#X obj 118 192 vsl 15 50 0 0.2 0 0 empty empty empty 0 -9 0 10 -262144
-1 -1 0 1;
#X obj 71 20 osc~ 432;
#X obj 86 41 osc~ 864;
#X obj 101 62 osc~ 1728;
#X obj 113 83 osc~ 216;
#X obj 129 105 osc~ 108;
#X connect 2 0 3 0;
#X connect 2 0 5 0;
#X connect 4 0 3 0;
#X connect 5 0 1 0;
#X connect 5 0 0 0;
#X connect 6 0 1 0;
#X connect 6 0 0 0;
#X connect 10 0 12 0;
#X connect 12 0 11 0;
#X connect 12 0 11 1;
#X connect 13 0 12 1;
#X connect 14 0 10 0;
#X connect 15 0 10 1;
#X connect 16 0 10 2;
#X connect 17 0 10 3;
#X connect 18 0 10 4;
