#N canvas 628 632 1699 585 10;
#X obj 36 77 inlet;
#X obj 36 220 timer;
#X obj 138 170 onlyonce;
#X obj 99 139 t b b b;
#X obj 36 241 outlet;
#X text 165 41 keeps rolling tempo :);
#X obj 36 113 route reset;
#X msg 3 5 version "201911291111";
#X connect 0 0 6 0;
#X connect 1 0 4 0;
#X connect 2 0 1 0;
#X connect 3 0 1 0;
#X connect 3 1 1 1;
#X connect 3 2 2 0;
#X connect 6 0 1 0;
#X connect 6 1 3 0;
