#N canvas 263 245 377 317 10;
#X obj 41 104 sel 1 2;
#X floatatom 47 186 5 0 0 0 - - -;
#X msg 40 154 1;
#X msg 73 154 0;
#X obj 73 131 t b b;
#X msg 93 103 0;
#X obj 44 78 +;
#X floatatom 72 80 5 0 0 0 - - -;
#X obj 47 238 timer;
#X msg 42 50 1;
#X obj 47 211 sel 1 0;
#X floatatom 47 262 5 0 0 0 - - -;
#X text 86 262 time passed between two clicks (in ms.);
#X obj 43 19 inlet;
#X obj 46 288 outlet;
#X connect 0 0 2 0;
#X connect 0 1 4 0;
#X connect 1 0 10 0;
#X connect 2 0 1 0;
#X connect 3 0 1 0;
#X connect 4 0 3 0;
#X connect 4 1 5 0;
#X connect 5 0 7 0;
#X connect 6 0 7 0;
#X connect 7 0 6 1;
#X connect 7 0 0 0;
#X connect 8 0 11 0;
#X connect 9 0 6 0;
#X connect 10 0 8 0;
#X connect 10 1 8 1;
#X connect 11 0 14 0;
#X connect 13 0 9 0;
