#N canvas 263 245 377 317 10;
#X obj 43 98 timer;
#X obj 43 71 sel 1 0;
#X floatatom 43 122 5 0 0 0 - - -;
#X text 82 122 time passed between two clicks (in ms.);
#X obj 43 19 inlet;
#X obj 42 148 outlet;
#X msg 0 0 version "201911271433";
#X obj 43 46 tgl 15 0 empty empty empty 17 7 0 10 -262144 -1 -1 1 1
;
#X obj 121 43 route reset;
#X obj 121 64 bang;
#X connect 0 0 2 0;
#X connect 1 0 0 0;
#X connect 1 1 0 1;
#X connect 2 0 5 0;
#X connect 4 0 7 0;
#X connect 4 0 8 0;
#X connect 7 0 1 0;
#X connect 8 0 9 0;
#X connect 9 0 0 0;
