#N canvas 426 361 1312 681 10;
#X obj 330 272 edge~;
#N canvas 0 0 450 300 (subpatch) 0;
#X array skopwindow 128 float 0;
#X coords 0 1 127 -1 200 140 1 0 0;
#X restore 558 353 graph;
#X floatatom 186 129 7 0 0 0 samples - -;
#X obj 263 108 loadbang;
#X obj 291 178 samplerate~;
#X obj 246 226 pack f f;
#X obj 246 249 /;
#X obj 329 234 expr~ $v1>0;
#X msg 416 357 1;
#X msg 330 348 0;
#X obj 416 338 delay 10;
#X obj 330 300 t b b;
#X obj 141 303 speedlim 500;
#X obj 246 276 * 3;
#X obj 263 127 t b b;
#X obj 246 301 max 100;
#X obj 357 389 spigot 1;
#X msg 139 331 \; skopwindow resize \$1;
#X obj 408 427 tabwrite~ skopwindow;
#X obj 198 77 n;
#X obj 928 253 edge~;
#N canvas 0 0 450 300 (subpatch) 0;
#X array skopwindow2 128 float 0;
#X coords 0 1 127 -1 200 140 1 0 0;
#X restore 558 496 graph;
#X floatatom 784 110 7 0 0 0 samples - -;
#X obj 861 89 loadbang;
#X obj 889 159 samplerate~;
#X obj 889 183 / 1000;
#X obj 844 207 pack f f;
#X obj 844 230 /;
#X obj 927 215 expr~ $v1>0;
#X msg 1014 338 1;
#X msg 928 329 0;
#X obj 1014 319 delay 10;
#X obj 928 281 t b b;
#X obj 739 284 speedlim 500;
#X obj 844 257 * 3;
#X obj 861 108 t b b;
#X obj 844 282 max 100;
#X obj 955 370 spigot 1;
#X obj 796 58 n;
#X msg 737 312 \; skopwindow2 resize \$1;
#X obj 1006 408 tabwrite~ skopwindow2;
#X obj 121 58 *~ 1;
#X obj 91 98 dac~ 1;
#X obj 791 -31 adc~ 1;
#X floatatom 429 112 5 0 0 0 - - -;
#X floatatom 503 130 5 0 0 0 - - -;
#X obj 499 81 rms~;
#X obj 429 79 rms~;
#X obj 484 180 /;
#X floatatom 488 211 5 0 0 0 - - -;
#X obj 271 83 bng 15 250 50 0 empty empty empty 17 7 0 10 -262144 -1
-1;
#X obj 291 201 / 1000;
#X msg 263 150 128;
#X msg 861 131 128;
#X obj 868 59 bng 15 250 50 0 empty empty empty 17 7 0 10 -262144 -1
-1;
#X text 463 232 amplitude ratio;
#X obj 1171 22 ctlin;
#X floatatom 1141 48 5 0 0 0 - - -;
#X floatatom 1176 48 5 0 0 0 - - -;
#X floatatom 1211 48 5 0 0 0 - - -;
#X obj 1220 141 tgl 15 0 empty empty empty 17 7 0 10 -262144 -1 -1
1 1;
#X msg 1157 135 \; pd dsp \$1;
#X obj 1157 73 loadbang;
#X obj 1161 210 dac~;
#X obj 1174 94 s lb;
#X obj 1216 74 bng 15 250 50 0 empty empty empty 17 7 0 10 -262144
-1 -1;
#X obj 1161 191 *~ 1;
#X obj 1155 277 output~;
#X obj 1155 253 *~ 1;
#X obj 1207 192 adc~;
#X msg 1157 113 1;
#X msg 1195 113 0;
#X obj 634 124 dac~ 2;
#X obj 108 26 n;
#X obj 125 519 looop;
#X obj 142 458 bng 15 250 50 0 empty empty empty 17 7 0 10 -262144
-1 -1;
#X obj 170 472 bng 15 250 50 0 empty empty empty 17 7 0 10 -262144
-1 -1;
#X obj 115 442 bng 15 250 50 0 empty empty empty 17 7 0 10 -262144
-1 -1;
#X obj 178 -11 osc~ 1000;
#X connect 0 0 11 0;
#X connect 2 0 5 0;
#X connect 2 0 12 0;
#X connect 3 0 14 0;
#X connect 4 0 51 0;
#X connect 5 0 6 0;
#X connect 6 0 13 0;
#X connect 7 0 0 0;
#X connect 8 0 16 1;
#X connect 9 0 16 1;
#X connect 10 0 8 0;
#X connect 11 0 9 0;
#X connect 11 1 16 0;
#X connect 12 0 17 0;
#X connect 13 0 15 0;
#X connect 14 0 52 0;
#X connect 14 1 4 0;
#X connect 15 0 10 1;
#X connect 16 0 10 0;
#X connect 16 0 18 0;
#X connect 19 0 7 0;
#X connect 19 0 18 0;
#X connect 20 0 32 0;
#X connect 22 0 26 0;
#X connect 22 0 33 0;
#X connect 23 0 35 0;
#X connect 24 0 25 0;
#X connect 25 0 26 1;
#X connect 26 0 27 0;
#X connect 27 0 34 0;
#X connect 28 0 20 0;
#X connect 29 0 37 1;
#X connect 30 0 37 1;
#X connect 31 0 29 0;
#X connect 32 0 30 0;
#X connect 32 1 37 0;
#X connect 33 0 39 0;
#X connect 34 0 36 0;
#X connect 35 0 53 0;
#X connect 35 1 24 0;
#X connect 36 0 31 1;
#X connect 37 0 31 0;
#X connect 37 0 40 0;
#X connect 38 0 28 0;
#X connect 38 0 40 0;
#X connect 38 0 46 0;
#X connect 38 0 72 0;
#X connect 41 0 19 0;
#X connect 41 0 42 0;
#X connect 43 0 38 0;
#X connect 44 0 48 1;
#X connect 45 0 48 0;
#X connect 46 0 45 0;
#X connect 47 0 44 0;
#X connect 48 0 49 0;
#X connect 50 0 14 0;
#X connect 51 0 5 1;
#X connect 52 0 2 0;
#X connect 53 0 22 0;
#X connect 54 0 35 0;
#X connect 56 0 57 0;
#X connect 56 1 58 0;
#X connect 56 2 59 0;
#X connect 62 0 64 0;
#X connect 62 0 70 0;
#X connect 65 0 64 0;
#X connect 66 0 63 0;
#X connect 66 0 63 1;
#X connect 68 0 67 0;
#X connect 68 0 67 1;
#X connect 70 0 61 0;
#X connect 70 0 60 0;
#X connect 71 0 61 0;
#X connect 71 0 60 0;
#X connect 73 0 41 0;
#X connect 73 0 47 0;
#X connect 75 0 74 1;
#X connect 76 0 74 2;
#X connect 77 0 74 0;
#X connect 78 0 73 0;
