#N canvas 1140 492 467 404 10;
#X obj 15 93 hsl 80 15 0 1 0 0 \$0-vool \$0-set-vool empty 19 7 1 13
-262144 -1 -1 0 1;
#X obj 142 29 inlet~;
#X obj 162 261 outlet~;
#X obj 162 186 *~ 1;
#X obj 184 138 r \$0-vool;
#X connect 1 0 3 0;
#X connect 3 0 2 0;
#X connect 4 0 3 1;
#X coords 0 -1 1 1 90 21 1 10 90;
