#N canvas 631 581 658 315 10;
#X obj 15 93 hsl 80 15 0 1 0 0 \$0-vool \$0-set-vool empty 19 7 1 13
-262144 -1 -1 6800 1;
#X obj 158 41 inlet~;
#X obj 157 144 outlet~;
#X obj 194 62 r \$0-vool;
#X obj 279 40 inlet;
#X obj 279 70 s \$0-set-vool;
#X msg 335 40 1;
#X obj 335 18 loadbang;
#X obj 319 146 vline~;
#X obj 157 92 *~;
#X msg 337 112 \$1 50;
#X connect 1 0 9 0;
#X connect 3 0 10 0;
#X connect 4 0 5 0;
#X connect 6 0 5 0;
#X connect 7 0 6 0;
#X connect 8 0 9 1;
#X connect 9 0 2 0;
#X connect 10 0 8 0;
#X coords 0 -1 1 1 90 21 1 10 90;
