#N canvas 631 581 467 404 10;
#X obj 15 93 hsl 80 15 0 1 0 0 \$0-vool \$0-set-vool empty 19 7 1 13
-262144 -1 -1 7900 1;
#X obj 145 41 inlet~;
#X obj 144 144 outlet~;
#X obj 144 92 *~ 1;
#X obj 165 70 r \$0-vool;
#X obj 272 40 inlet;
#X obj 272 70 s \$0-set-vool;
#X msg 328 40 1;
#X obj 328 18 loadbang;
#X connect 1 0 3 0;
#X connect 3 0 2 0;
#X connect 4 0 3 1;
#X connect 5 0 6 0;
#X connect 7 0 6 0;
#X connect 8 0 7 0;
#X coords 0 -1 1 1 90 21 1 10 90;
