#N canvas 808 0 1743 1348 10;
#X obj 757 -80 ctlin;
#X floatatom 727 -54 5 0 0 0 - - -;
#X floatatom 762 -54 5 0 0 0 - - -;
#X floatatom 797 -54 5 0 0 0 - - -;
#X obj 806 142 tgl 15 0 empty empty empty 17 7 0 10 -262144 -1 -1 1
1;
#X msg 743 136 \; pd dsp \$1;
#X obj 743 74 loadbang;
#X obj 747 211 dac~;
#X obj 760 95 s lb;
#X obj 802 75 bng 15 250 50 0 empty empty empty 17 7 0 10 -262144 -1
-1;
#X obj 747 192 *~ 1;
#X obj 287 443 output~;
#X obj 221 287 *~ 1;
#X obj 793 193 adc~;
#X msg 743 114 1;
#X msg 781 114 0;
#X obj 764 4 key;
#X floatatom 764 25 5 0 0 0 - - -;
#X obj 220 242 bip;
#X obj 480 -3 metroo 200;
#X obj 480 18 s clock;
#X obj 220 218 r clock;
#X obj 288 283 *~ 1;
#X obj 289 242 bip;
#X obj 289 218 r clock;
#X connect 0 0 1 0;
#X connect 0 1 2 0;
#X connect 0 2 3 0;
#X connect 6 0 8 0;
#X connect 6 0 14 0;
#X connect 9 0 8 0;
#X connect 10 0 7 0;
#X connect 10 0 7 1;
#X connect 12 0 11 0;
#X connect 14 0 5 0;
#X connect 14 0 4 0;
#X connect 15 0 5 0;
#X connect 15 0 4 0;
#X connect 16 0 17 0;
#X connect 18 0 12 0;
#X connect 19 0 20 0;
#X connect 21 0 18 0;
#X connect 22 0 11 1;
#X connect 23 0 22 0;
#X connect 24 0 23 0;
