#N canvas 1273 0 1278 1348 10;
#X obj 757 -80 ctlin;
#X floatatom 727 -54 5 0 0 0 - - -;
#X floatatom 762 -54 5 0 0 0 - - -;
#X floatatom 797 -54 5 0 0 0 - - -;
#X obj 806 142 tgl 15 0 empty empty empty 17 7 0 10 -262144 -1 -1 1
1;
#X msg 743 136 \; pd dsp \$1;
#X obj 743 74 loadbang;
#X obj 747 211 dac~;
#X obj 760 95 s lb;
#X obj 802 75 bng 15 250 50 0 empty empty empty 17 7 0 10 -262144 -1
-1;
#X obj 747 192 *~ 1;
#X obj 287 443 output~;
#X obj 286 335 *~ 1;
#X obj 793 193 adc~;
#X msg 743 114 1;
#X msg 781 114 0;
#X obj 764 4 key;
#X floatatom 764 25 5 0 0 0 - - -;
#X obj 285 290 bip;
#X obj 419 -43 metroo 200;
#X obj 419 -22 s clock;
#X obj 285 266 r clock;
#X obj 345 339 *~ 1;
#X obj 346 298 bip;
#X obj 346 178 r clock;
#X obj 346 201 del 100;
#X obj 593 118 vsl 15 128 0 100 0 0 empty empty empty 0 -9 0 10 -262144
-1 -1 10210 1;
#X obj 454 214 bang;
#X floatatom 483 269 5 0 0 0 - - -;
#X obj 346 232 del 100;
#X obj 346 266 del 100;
#X obj 593 260 linn;
#X obj 593 280 atod;
#X msg 296 135 50;
#X obj 485 103 shn;
#X obj 467 78 bng 15 250 50 0 empty empty empty 17 7 0 10 -262144 -1
-1;
#X obj 484 125 *~ 100;
#X obj 484 146 atod;
#X obj 488 173 change;
#X obj 460 44 metroo 600;
#X connect 0 0 1 0;
#X connect 0 1 2 0;
#X connect 0 2 3 0;
#X connect 6 0 8 0;
#X connect 6 0 14 0;
#X connect 9 0 8 0;
#X connect 10 0 7 0;
#X connect 10 0 7 1;
#X connect 12 0 11 0;
#X connect 14 0 5 0;
#X connect 14 0 4 0;
#X connect 15 0 5 0;
#X connect 15 0 4 0;
#X connect 16 0 17 0;
#X connect 18 0 12 0;
#X connect 19 0 20 0;
#X connect 21 0 18 0;
#X connect 22 0 11 1;
#X connect 23 0 22 0;
#X connect 24 0 25 0;
#X connect 25 0 23 0;
#X connect 25 0 29 0;
#X connect 26 0 27 0;
#X connect 26 0 31 0;
#X connect 27 0 25 0;
#X connect 27 0 29 0;
#X connect 27 0 30 0;
#X connect 28 0 25 1;
#X connect 28 0 29 1;
#X connect 28 0 30 1;
#X connect 29 0 18 0;
#X connect 29 0 30 0;
#X connect 30 0 23 0;
#X connect 31 0 32 0;
#X connect 32 0 28 0;
#X connect 33 0 18 1;
#X connect 33 0 23 1;
#X connect 34 0 36 0;
#X connect 35 0 34 0;
#X connect 36 0 37 0;
#X connect 37 0 38 0;
#X connect 38 0 26 0;
#X connect 39 0 35 0;
