#N canvas 1273 0 1278 1348 12;
#X obj 294 512 dac~;
#X obj 370 486 hsl 128 15 0 1 0 0 empty empty empty -2 -8 0 10 -262144
-1 -1 6600 1;
#X obj 295 447 dc;
#X obj 295 396 switchh;
#X obj 346 352 hradio 16 1 0 2 empty empty empty 0 -8 0 10 -262144
-1 -1 0;
#X obj 346 373 inve;
#X obj 155 316 +~;
#X obj 238 123 dc;
#X obj 238 145 pitchshiftRealtime;
#X obj 220 174 dc;
#X obj 505 111 hsl 128 15 -1 1 0 0 empty empty empty -2 -8 0 10 -262144
-1 -1 8050 1;
#X msg 467 110 0;
#X obj 219 219 *~;
#X obj 65 196 tgl 15 0 empty empty empty 17 7 0 10 -262144 -1 -1 1
1;
#X msg 2 190 \; pd dsp \$1;
#X obj 2 128 loadbang;
#X obj 19 149 s lb;
#X obj -10 108 bng 15 250 50 0 empty empty empty 17 7 0 10 -262144
-1 -1;
#X msg 2 168 1;
#X msg 40 168 0;
#X obj -10 38 key;
#X floatatom -10 59 5 0 0 0 - - -;
#X obj -10 79 select 242;
#X obj 17 98 select 59;
#X text -18 16 use @ key to loadbang;
#X obj 267 177 r lb;
#X obj 506 42 hsl 128 15 -0.1 0.1 0 0 empty empty empty -2 -8 0 10
-262144 -1 -1 6350 1;
#X msg 468 42 0;
#X text 382 354 clean;
#X obj 220 260 *~;
#X obj 283 284 hsl 128 15 0 1 0 0 empty empty empty -2 -8 0 10 -262144
-1 -1 5900 1;
#X text 637 41 1/10;
#X text 639 110 coarse;
#X obj 506 64 hsl 128 15 -0.2 0.2 0 0 empty empty empty -2 -8 0 10
-262144 -1 -1 6350 1;
#X msg 468 64 0;
#X text 637 63 1/5;
#X floatatom 401 183 5 0 0 0 - - -;
#X obj 400 157 nn;
#X obj 505 86 hsl 128 15 -0.5 0.5 0 0 empty empty empty -2 -8 0 10
-262144 -1 -1 6350 1;
#X msg 467 86 0;
#X text 638 86 1/2;
#X obj 413 68 r lb;
#X obj 661 355 atod;
#X obj 28 300 env~;
#X floatatom 28 321 5 0 0 0 - - -;
#X obj 28 341 sig~;
#X obj 28 383 atod;
#X floatatom 28 404 5 0 0 0 - - -;
#X obj 92 301 env~;
#X floatatom 92 322 5 0 0 0 - - -;
#X obj 92 342 sig~;
#X obj 92 384 atod;
#X floatatom 92 405 5 0 0 0 - - -;
#X floatatom 65 451 5 0 0 0 - - -;
#X obj 65 430 /;
#X msg 366 455 0;
#X obj 154 273 *~;
#X obj 178 247 tgl 15 0 empty empty empty 17 7 0 10 -262144 -1 -1 1
1;
#X msg 178 224 1;
#X obj 178 199 r lb;
#X obj 145 26 r~ \$0-snd;
#X obj 175 -65 s~ \$0-snd;
#X text 199 -131 -;
#X obj 289 -109 osc~ 432;
#X text 683 110 -1 to +1;
#X obj 664 418 hsl 128 15 -1 1 0 0 empty empty empty -2 -8 0 10 -262144
-1 -1 2287 1;
#X obj 660 298 *~;
#X obj 718 300 sig~;
#X msg 716 260 1;
#X msg 751 260 0.1;
#X msg 793 262 0.01;
#X obj 661 381 spigot;
#X obj 731 384 tgl 15 0 empty empty empty 17 7 0 10 -262144 -1 -1 0
1;
#X text 748 382 modulation ON/off;
#X obj 731 334 r lb;
#X msg 731 355 0;
#X obj 263 97 expr~ pow($v1 \, 4);
#X obj 294 485 *~ 0.5;
#X text 902 178 << modulator;
#X text 884 264 << modulation factor;
#X msg 835 263 0.001;
#X obj 659 261 r~ mod;
#X obj 836 184 s~ mod;
#X obj 799 23 osc~ 1;
#X obj 867 27 osc~ 0.2;
#X obj 835 62 *~;
#X obj 251 72 expr~ abs($v1);
#X obj 229 28 sig~;
#X msg 229 4 1000;
#X obj 716 227 r lb;
#X obj 229 -19 r lb;
#X obj 283 44 expr~ cos($v1);
#X obj 936 41 osc~ 0.3;
#X obj 873 104 *~;
#X obj 190 60 vcf~ 1;
#X msg 267 202 3;
#X text 504 16 manual pitch shift;
#X obj 69 -112 util/bassloop;
#X obj 173 -102 util/drumloop;
#X text 277 4 bandpass to harmo;
#X text 11 481 original/harmo amp ratio;
#X text 419 282 harmonics volume;
#X text 934 144 TIP: use tap-tempo to sync to original;
#X obj 34 -72 util/pianoloop;
#X text 407 464 total out volume;
#X text 911 126 TIP: use envelope follower for self-mod or side-chain
mod;
#X text 258 -66 << sound input;
#X obj 309 251 sig~;
#X obj 309 204 r lb;
#X msg 309 227 3000;
#X obj 220 306 vcf~ 3;
#X text 273 310 << post-filter;
#X obj 28 361 lop~ 0.3;
#X obj 92 362 lop~ 0.3;
#X text 526 137 TIP: jump to notes/scales;
#X connect 1 0 77 1;
#X connect 2 0 77 0;
#X connect 3 0 2 0;
#X connect 4 0 5 0;
#X connect 5 0 3 2;
#X connect 6 0 3 0;
#X connect 7 0 8 0;
#X connect 8 0 9 0;
#X connect 9 0 12 0;
#X connect 9 0 48 0;
#X connect 10 0 37 0;
#X connect 11 0 10 0;
#X connect 12 0 29 0;
#X connect 15 0 16 0;
#X connect 15 0 18 0;
#X connect 17 0 16 0;
#X connect 18 0 14 0;
#X connect 18 0 13 0;
#X connect 19 0 14 0;
#X connect 19 0 13 0;
#X connect 20 0 21 0;
#X connect 21 0 22 0;
#X connect 21 0 23 0;
#X connect 22 0 17 0;
#X connect 23 0 17 0;
#X connect 25 0 95 0;
#X connect 26 0 37 0;
#X connect 27 0 26 0;
#X connect 29 0 6 1;
#X connect 29 0 110 0;
#X connect 30 0 29 1;
#X connect 33 0 37 0;
#X connect 34 0 33 0;
#X connect 37 0 36 0;
#X connect 37 0 8 1;
#X connect 38 0 37 0;
#X connect 39 0 38 0;
#X connect 41 0 11 0;
#X connect 41 0 39 0;
#X connect 41 0 34 0;
#X connect 41 0 27 0;
#X connect 42 0 65 0;
#X connect 42 0 71 0;
#X connect 43 0 44 0;
#X connect 44 0 45 0;
#X connect 45 0 112 0;
#X connect 46 0 47 0;
#X connect 47 0 54 0;
#X connect 48 0 49 0;
#X connect 49 0 50 0;
#X connect 50 0 113 0;
#X connect 51 0 52 0;
#X connect 52 0 54 1;
#X connect 54 0 53 0;
#X connect 55 0 1 0;
#X connect 56 0 6 0;
#X connect 57 0 56 1;
#X connect 58 0 57 0;
#X connect 59 0 58 0;
#X connect 60 0 3 1;
#X connect 60 0 43 0;
#X connect 60 0 56 0;
#X connect 60 0 91 0;
#X connect 60 0 94 0;
#X connect 66 0 42 0;
#X connect 67 0 66 1;
#X connect 68 0 67 0;
#X connect 69 0 67 0;
#X connect 70 0 67 0;
#X connect 71 0 37 0;
#X connect 72 0 71 1;
#X connect 74 0 75 0;
#X connect 75 0 72 0;
#X connect 77 0 0 0;
#X connect 77 0 0 1;
#X connect 80 0 67 0;
#X connect 81 0 66 0;
#X connect 83 0 85 0;
#X connect 84 0 85 1;
#X connect 85 0 93 0;
#X connect 86 0 7 0;
#X connect 87 0 94 1;
#X connect 88 0 87 0;
#X connect 89 0 68 0;
#X connect 90 0 88 0;
#X connect 92 0 93 1;
#X connect 93 0 82 0;
#X connect 94 0 86 0;
#X connect 94 0 76 0;
#X connect 95 0 12 1;
#X connect 103 0 61 0;
#X connect 107 0 110 1;
#X connect 108 0 109 0;
#X connect 109 0 107 0;
#X connect 112 0 46 0;
#X connect 113 0 51 0;
