#N canvas 675 0 1876 1348 10;
#X obj 1536 177 ctlin;
#X floatatom 1506 203 5 0 0 0 - - -;
#X floatatom 1541 203 5 0 0 0 - - -;
#X floatatom 1576 203 5 0 0 0 - - -;
#X obj 1585 399 tgl 15 0 empty empty empty 17 7 0 10 -262144 -1 -1
1 1;
#X msg 1522 393 \; pd dsp \$1;
#X obj 1522 331 loadbang;
#X obj 1526 468 dac~;
#X obj 1539 352 s lb;
#X obj 1581 332 bng 15 250 50 0 empty empty empty 17 7 0 10 -262144
-1 -1;
#X obj 1526 449 *~ 1;
#X obj 542 862 output~;
#X obj 542 838 *~ 1;
#X obj 1572 450 adc~;
#X msg 1522 371 1;
#X msg 1560 371 0;
#X obj 1543 261 key;
#X floatatom 1543 282 5 0 0 0 - - -;
#X obj 496 211 -~ 0.5;
#X obj 496 232 *~ 2;
#X obj 976 513 scope~ 130 130 256 3 14 -1 1 0 0 0 0 102 255 51 135
135 135 0;
#X obj 738 200 halfwave;
#X obj 500 453 *~;
#X msg 1140 385 range 1 2;
#X msg 1206 443 brgb 0 0 255;
#X msg 1191 423 frgb 0 255 0;
#X text 1176 406 colors;
#X msg 1130 358 bufsize \$1;
#X obj 1132 300 hsl 128 15 5 300 0 0 empty empty empty -2 -8 0 10 -262144
-1 -1 0 1;
#X floatatom 1129 320 5 0 0 0 - - -;
#X obj 750 273 scope~ 130 130 256 3 128 -1 1 0 0 0 0 102 255 51 135
135 135 0;
#X msg 814 98 0;
#X obj 751 409 scope~ 130 130 256 3 128 -1 1 0 0 0 0 102 255 51 135
135 135 0;
#X msg 861 128 0.5;
#X obj 860 56 bng 15 250 50 0 empty empty empty 17 7 0 10 -262144 -1
-1;
#X obj 661 471 atod;
#X msg 942 135 0;
#X obj 888 34 r lb;
#X text 949 110 click here to desync;
#X obj 971 68 metroo 1200;
#X text 769 52 here to sync;
#X floatatom 668 72 5 0 0 0 - - -;
#X obj 750 119 * 2;
#X obj 619 519 range 0 1 10 100;
#X obj 738 179 osc~ 0.1;
#X obj 843 196 phasor~ 0.2;
#X obj 496 190 phasor~ 52.8;
#X obj 515 553 lop~ 30;
#X connect 0 0 1 0;
#X connect 0 1 2 0;
#X connect 0 2 3 0;
#X connect 6 0 8 0;
#X connect 6 0 14 0;
#X connect 9 0 8 0;
#X connect 10 0 7 0;
#X connect 10 0 7 1;
#X connect 12 0 11 0;
#X connect 12 0 11 1;
#X connect 12 0 20 0;
#X connect 14 0 5 0;
#X connect 14 0 4 0;
#X connect 15 0 5 0;
#X connect 15 0 4 0;
#X connect 16 0 17 0;
#X connect 18 0 19 0;
#X connect 19 0 22 0;
#X connect 21 0 22 1;
#X connect 21 0 30 0;
#X connect 22 0 47 0;
#X connect 23 0 20 0;
#X connect 24 0 20 0;
#X connect 25 0 20 0;
#X connect 27 0 20 0;
#X connect 28 0 27 0;
#X connect 28 0 29 0;
#X connect 31 0 44 1;
#X connect 33 0 45 1;
#X connect 34 0 31 0;
#X connect 34 0 33 0;
#X connect 35 0 43 0;
#X connect 36 0 45 1;
#X connect 37 0 34 0;
#X connect 41 0 42 0;
#X connect 42 0 44 0;
#X connect 42 0 45 0;
#X connect 43 0 47 1;
#X connect 44 0 21 0;
#X connect 45 0 32 0;
#X connect 45 0 35 0;
#X connect 46 0 18 0;
#X connect 47 0 12 0;
