#N canvas 917 531 911 475 10;
#X obj 757 -80 ctlin;
#X floatatom 727 -54 5 0 0 0 - - -;
#X floatatom 762 -54 5 0 0 0 - - -;
#X floatatom 797 -54 5 0 0 0 - - -;
#X obj 806 39 tgl 15 0 empty empty empty 17 7 0 10 -262144 -1 -1 1
1;
#X msg 743 33 \; pd dsp \$1;
#X obj 743 -29 loadbang;
#X obj 747 108 dac~;
#X obj 760 -8 s lb;
#X obj 802 -28 bng 15 250 50 0 empty empty empty 17 7 0 10 -262144
-1 -1;
#X obj 747 89 *~ 1;
#X obj 254 280 output~;
#X obj 793 90 adc~;
#X msg 743 11 1;
#X msg 781 11 0;
#X obj 250 195 *~;
#X obj 295 201 *~;
#X obj 185 20 osc~ 50;
#X obj 403 128 *~ -1;
#X obj 326 144 noorm~;
#X obj 378 183 noorm~;
#X obj 370 95 n;
#X obj 394 8 osc~ 0.5;
#X obj 473 7 osc~ 0.1;
#X obj 446 58 *~;
#X obj 367 47 *~;
#X obj 192 93 *~;
#X obj 315 -17 osc~ 0.7;
#X connect 0 0 1 0;
#X connect 0 1 2 0;
#X connect 0 2 3 0;
#X connect 6 0 8 0;
#X connect 6 0 13 0;
#X connect 9 0 8 0;
#X connect 10 0 7 0;
#X connect 10 0 7 1;
#X connect 13 0 5 0;
#X connect 13 0 4 0;
#X connect 14 0 5 0;
#X connect 14 0 4 0;
#X connect 15 0 11 0;
#X connect 16 0 11 1;
#X connect 17 0 26 0;
#X connect 18 0 20 0;
#X connect 19 0 15 1;
#X connect 20 0 16 1;
#X connect 21 0 18 0;
#X connect 21 0 19 0;
#X connect 22 0 24 0;
#X connect 23 0 24 1;
#X connect 24 0 21 0;
#X connect 24 0 25 1;
#X connect 25 0 26 1;
#X connect 26 0 15 0;
#X connect 26 0 16 0;
#X connect 27 0 25 0;
