#N canvas 543 0 2008 1348 10;
#X obj 1417 -48 ctlin;
#X floatatom 1387 -22 5 0 0 0 - - -;
#X floatatom 1422 -22 5 0 0 0 - - -;
#X floatatom 1457 -22 5 0 0 0 - - -;
#X obj 1466 71 tgl 15 0 empty empty empty 17 7 0 10 -262144 -1 -1 1
1;
#X msg 1403 65 \; pd dsp \$1;
#X obj 1403 3 loadbang;
#X obj 1407 140 dac~;
#X obj 1420 24 s lb;
#X obj 1462 4 bng 15 250 50 0 empty empty empty 17 7 0 10 -262144 -1
-1;
#X obj 1407 121 *~ 1;
#X obj 580 667 output~;
#X obj 1453 122 adc~;
#X msg 1403 43 1;
#X msg 1441 43 0;
#X obj 963 212 atod;
#X obj 963 236 vsl 15 128 -1 1 0 0 empty empty empty 0 -9 0 10 -262144
-1 -1 12700 1;
#X obj 717 347 bng 15 250 50 0 empty empty empty 17 7 0 10 -262144
-1 -1;
#X obj 852 347 bng 15 250 50 0 empty empty empty 17 7 0 10 -262144
-1 -1;
#X obj 690 226 *~ 1;
#X obj 564 141 *~;
#X obj 682 167 /~;
#X obj 717 323 threshold~ 0.9 1 -0.9 1;
#X obj 222 352 atod;
#X obj 222 376 vsl 15 128 -1 1 0 0 empty empty empty 0 -9 0 10 -262144
-1 -1 7716 1;
#X obj 329 239 bng 15 250 50 0 empty empty empty 17 7 0 10 -262144
-1 -1;
#X obj 464 239 bng 15 250 50 0 empty empty empty 17 7 0 10 -262144
-1 -1;
#X obj 329 215 threshold~ 0.9 1 -0.9 1;
#X obj 298 332 osc~ 43.2;
#X obj 339 385 *~ 0;
#X msg 365 355 0;
#X msg 400 353 1;
#X obj 460 340 *~ 0;
#X msg 486 310 0;
#X msg 521 308 1;
#X obj 419 287 osc~ 86.4;
#X obj 565 200 *~;
#X msg 681 23 0;
#X obj 922 26 random 101;
#X obj 987 -21 bng 15 250 50 0 empty empty empty 17 7 0 10 -262144
-1 -1;
#X obj 922 48 / 100;
#X obj 994 26 random 101;
#X obj 994 48 / 100;
#X obj 1065 26 random 101;
#X obj 1065 48 / 100;
#X obj 1137 26 random 101;
#X obj 1137 48 / 100;
#X msg 922 70 \$1;
#X msg 993 70 \$1;
#X msg 1065 70 \$1;
#X msg 1137 70 \$1;
#X obj 456 603 reverbch~;
#X obj 598 90 osc~ 0.17;
#X obj 606 177 osc~ 1;
#X obj 486 100 osc~ 1.3;
#X obj 607 463 bip;
#X obj 672 464 bip;
#X floatatom 789 444 5 0 0 0 - - -;
#X obj 639 500 bip;
#X obj 691 499 bip;
#X obj 604 542 +~;
#X obj 669 545 +~;
#X obj 681 592 freeverb~;
#X msg 831 596 firstpassfilter 1;
#X msg 954 524 dry 0.5;
#X msg 1038 464 wet 0;
#X msg 794 641 width 2;
#X msg 890 517 wet 0.3;
#X obj 930 471 r lb;
#X msg 1031 592 wet \$1;
#X obj 1113 535 vsl 15 128 0 1 0 0 empty empty empty 0 -9 0 10 -262144
-1 -1 0 1;
#X obj 1118 376 scaale;
#X msg 1250 305 0 2 5 7 9 pentatonic;
#X msg 1250 409 0 3 5 6 7 10 blues;
#X msg 1250 327 0 2 4 6 8 10 wholetone;
#X msg 1250 348 0 2 3 5 7 9 10 dorian;
#X msg 1250 469 4 8 9 10 TwilightZone;
#X msg 1250 369 0 2 4 6 7 9 11 lydian;
#X msg 1232 248 0 2 3 5 7 8 10 aeolian;
#X msg 1250 282 4 9 mi la;
#X msg 1250 429 0 1 3 5 6 8 10 locrian;
#X msg 1250 449 1 3 6 8 0 jap;
#X floatatom 1120 304 5 0 0 0 - - -;
#X obj 315 46 hsl 128 15 0.01 3 0 0 empty empty empty -2 -8 0 10 -262144
-1 -1 9400 1;
#X obj 480 22 hsl 128 15 0.01 3 0 0 empty empty empty -2 -8 0 10 -262144
-1 -1 4300 1;
#X floatatom 461 77 5 0 0 0 - - -;
#X floatatom 592 58 5 0 0 0 - - -;
#X obj 732 81 osc~ 0.2;
#X obj 756 -21 hsl 128 15 0.01 7 0 0 empty empty empty -2 -8 0 10 -262144
-1 -1 12700 1;
#X floatatom 764 39 5 0 0 0 - - -;
#X obj 399 251 * 2;
#X floatatom 206 222 5 0 0 0 - - -;
#X obj 207 187 + 35;
#X obj 211 153 random 165;
#X obj 249 266 scaale;
#X obj 1239 206 r lb;
#X msg 819 565 roomsize 0.9;
#X floatatom 1109 693 5 0 0 0 - - -;
#X msg 127 18 3;
#X msg 150 36 2.693;
#X msg 171 54 0.23;
#X obj 306 19 r a;
#X obj 481 -5 r b;
#X obj 751 -44 r c;
#X obj 127 68 s a;
#X obj 150 73 s b;
#X obj 171 89 s c;
#X obj 164 -23 bng 15 250 50 0 empty empty empty 17 7 0 10 -262144
-1 -1;
#X text 812 480 << glassy thing;
#X obj 772 481 * 0.7;
#X obj 434 554 *~ 1;
#X obj 457 508 tgl 15 0 empty empty empty 17 7 0 10 -262144 -1 -1 0
1;
#X obj 1125 234 + 50;
#X obj 370 456 *~ 0.8;
#X obj 1129 200 random 450;
#X obj 396 417 +~;
#X connect 0 0 1 0;
#X connect 0 1 2 0;
#X connect 0 2 3 0;
#X connect 6 0 8 0;
#X connect 6 0 13 0;
#X connect 9 0 8 0;
#X connect 10 0 7 0;
#X connect 10 0 7 1;
#X connect 13 0 5 0;
#X connect 13 0 4 0;
#X connect 14 0 5 0;
#X connect 14 0 4 0;
#X connect 15 0 16 0;
#X connect 17 0 55 0;
#X connect 17 0 58 0;
#X connect 18 0 56 0;
#X connect 18 0 59 0;
#X connect 19 0 15 0;
#X connect 19 0 22 0;
#X connect 20 0 21 0;
#X connect 20 0 36 0;
#X connect 21 0 19 0;
#X connect 22 0 17 0;
#X connect 22 1 18 0;
#X connect 23 0 24 0;
#X connect 25 0 31 0;
#X connect 25 0 33 0;
#X connect 25 0 93 0;
#X connect 25 0 114 0;
#X connect 26 0 34 0;
#X connect 26 0 30 0;
#X connect 26 0 93 0;
#X connect 26 0 114 0;
#X connect 27 0 25 0;
#X connect 27 1 26 0;
#X connect 28 0 29 0;
#X connect 29 0 115 0;
#X connect 30 0 29 1;
#X connect 31 0 29 1;
#X connect 32 0 115 1;
#X connect 33 0 32 1;
#X connect 34 0 32 1;
#X connect 35 0 32 0;
#X connect 36 0 23 0;
#X connect 36 0 27 0;
#X connect 37 0 52 1;
#X connect 37 0 53 1;
#X connect 37 0 54 1;
#X connect 37 0 87 1;
#X connect 38 0 40 0;
#X connect 39 0 38 0;
#X connect 39 0 41 0;
#X connect 39 0 43 0;
#X connect 39 0 45 0;
#X connect 40 0 47 0;
#X connect 41 0 42 0;
#X connect 42 0 48 0;
#X connect 43 0 44 0;
#X connect 44 0 49 0;
#X connect 45 0 46 0;
#X connect 46 0 50 0;
#X connect 47 0 54 1;
#X connect 48 0 52 1;
#X connect 49 0 87 1;
#X connect 50 0 53 1;
#X connect 51 0 11 0;
#X connect 51 1 11 1;
#X connect 52 0 20 1;
#X connect 53 0 36 1;
#X connect 54 0 20 0;
#X connect 55 0 60 0;
#X connect 56 0 61 0;
#X connect 57 0 56 1;
#X connect 57 0 55 1;
#X connect 57 0 109 0;
#X connect 58 0 60 1;
#X connect 59 0 61 1;
#X connect 60 0 62 0;
#X connect 61 0 62 1;
#X connect 62 0 11 0;
#X connect 62 1 11 1;
#X connect 63 0 62 0;
#X connect 64 0 62 0;
#X connect 65 0 62 0;
#X connect 66 0 62 0;
#X connect 67 0 62 0;
#X connect 68 0 67 0;
#X connect 68 0 64 0;
#X connect 68 0 96 0;
#X connect 68 0 63 0;
#X connect 68 0 66 0;
#X connect 69 0 62 0;
#X connect 70 0 69 0;
#X connect 70 0 97 0;
#X connect 71 0 57 0;
#X connect 72 0 71 1;
#X connect 72 0 94 1;
#X connect 78 0 71 1;
#X connect 78 0 94 1;
#X connect 82 0 71 0;
#X connect 83 0 85 0;
#X connect 84 0 86 0;
#X connect 85 0 54 0;
#X connect 86 0 52 0;
#X connect 87 0 21 1;
#X connect 88 0 89 0;
#X connect 89 0 87 0;
#X connect 90 0 35 0;
#X connect 91 0 94 0;
#X connect 92 0 91 0;
#X connect 93 0 92 0;
#X connect 94 0 90 0;
#X connect 94 0 28 0;
#X connect 95 0 72 0;
#X connect 96 0 62 0;
#X connect 98 0 104 0;
#X connect 99 0 105 0;
#X connect 100 0 106 0;
#X connect 101 0 83 0;
#X connect 102 0 84 0;
#X connect 103 0 88 0;
#X connect 107 0 98 0;
#X connect 107 0 99 0;
#X connect 107 0 100 0;
#X connect 109 0 59 1;
#X connect 109 0 58 1;
#X connect 110 0 51 1;
#X connect 110 0 51 0;
#X connect 111 0 110 1;
#X connect 112 0 82 0;
#X connect 113 0 110 0;
#X connect 114 0 112 0;
#X connect 115 0 113 0;
