#N canvas 917 533 911 473 10;
#X obj 757 -80 ctlin;
#X floatatom 727 -54 5 0 0 0 - - -;
#X floatatom 762 -54 5 0 0 0 - - -;
#X floatatom 797 -54 5 0 0 0 - - -;
#X obj 806 39 tgl 15 0 empty empty empty 17 7 0 10 -262144 -1 -1 1
1;
#X msg 743 33 \; pd dsp \$1;
#X obj 743 -29 loadbang;
#X obj 747 108 dac~;
#X obj 760 -8 s lb;
#X obj 802 -28 bng 15 250 50 0 empty empty empty 17 7 0 10 -262144
-1 -1;
#X obj 747 89 *~ 1;
#X obj 262 177 output~;
#X obj 185 133 *~ 1;
#X obj 793 90 adc~;
#X msg 743 11 1;
#X msg 781 11 0;
#X obj 282 -7 osc~ 432;
#X obj 255 70 *~;
#X obj 405 54 noorm~;
#X obj 347 29 *~ -1;
#X obj 290 91 *~;
#X obj 346 52 noorm~;
#X obj 401 -2 osc~ 1;
#X floatatom 423 -48 5 0 0 0 - - -;
#X obj 539 -26 phasor~ 1;
#X obj 566 55 vsl 15 128 -1 1 0 0 empty empty empty 0 -9 0 10 -262144
-1 -1 6562 1;
#X obj 606 33 atod;
#X obj 595 55 vsl 15 128 -1 1 0 0 empty empty empty 0 -9 0 10 -262144
-1 -1 9737 1;
#X obj 635 31 atod;
#X obj 620 -26 phasor~ 1;
#X msg 578 -63 0;
#X obj 616 -75 bng 15 250 50 0 empty empty empty 17 7 0 10 -262144
-1 -1;
#X msg 629 -58 0.5;
#X obj 466 13 lop~ 30;
#X obj 489 43 lop~ 30;
#X obj 276 -132 osc~ 0.1;
#X obj 339 -132 osc~ 0.2;
#X obj 330 -101 *~;
#X obj 374 -109 osc~ 0.3;
#X obj 365 -67 *~;
#X obj 184 -49 vsl 15 128 -1 1 0 0 empty empty empty 0 -9 0 10 -262144
-1 -1 6137 1;
#X obj 224 -73 atod;
#X obj 624 -108 r lb;
#X floatatom 507 -95 5 0 0 0 - - -;
#X obj 242 -39 * 50;
#X connect 0 0 1 0;
#X connect 0 1 2 0;
#X connect 0 2 3 0;
#X connect 6 0 8 0;
#X connect 6 0 14 0;
#X connect 9 0 8 0;
#X connect 10 0 7 0;
#X connect 10 0 7 1;
#X connect 12 0 11 0;
#X connect 12 0 11 1;
#X connect 14 0 5 0;
#X connect 14 0 4 0;
#X connect 15 0 5 0;
#X connect 15 0 4 0;
#X connect 16 0 17 0;
#X connect 16 0 20 0;
#X connect 17 0 11 0;
#X connect 19 0 21 0;
#X connect 20 0 11 1;
#X connect 22 0 18 0;
#X connect 22 0 19 0;
#X connect 23 0 22 0;
#X connect 23 0 24 0;
#X connect 23 0 29 0;
#X connect 24 0 26 0;
#X connect 24 0 33 0;
#X connect 26 0 25 0;
#X connect 28 0 27 0;
#X connect 29 0 28 0;
#X connect 29 0 34 0;
#X connect 30 0 24 1;
#X connect 31 0 32 0;
#X connect 31 0 30 0;
#X connect 32 0 29 1;
#X connect 33 0 17 1;
#X connect 34 0 20 1;
#X connect 35 0 37 0;
#X connect 36 0 37 1;
#X connect 37 0 39 0;
#X connect 38 0 39 1;
#X connect 39 0 41 0;
#X connect 41 0 40 0;
#X connect 41 0 44 0;
#X connect 42 0 31 0;
#X connect 43 0 33 1;
#X connect 43 0 34 1;
#X connect 44 0 23 0;
