#N canvas 917 533 911 473 10;
#X obj 757 -80 ctlin;
#X floatatom 727 -54 5 0 0 0 - - -;
#X floatatom 762 -54 5 0 0 0 - - -;
#X floatatom 797 -54 5 0 0 0 - - -;
#X obj 806 39 tgl 15 0 empty empty empty 17 7 0 10 -262144 -1 -1 1
1;
#X msg 743 33 \; pd dsp \$1;
#X obj 743 -29 loadbang;
#X obj 747 108 dac~;
#X obj 760 -8 s lb;
#X obj 802 -28 bng 15 250 50 0 empty empty empty 17 7 0 10 -262144
-1 -1;
#X obj 747 89 *~ 1;
#X obj 262 177 output~;
#X obj 185 133 *~ 1;
#X obj 793 90 adc~;
#X msg 743 11 1;
#X msg 781 11 0;
#X obj 255 70 *~;
#X obj 405 54 noorm~;
#X obj 347 29 *~ -1;
#X obj 290 91 *~;
#X obj 346 52 noorm~;
#X obj 401 -2 osc~ 1;
#X floatatom 423 -48 5 0 0 0 - - -;
#X obj 539 -26 phasor~ 1;
#X obj 566 55 vsl 15 128 0 1 0 0 empty empty empty 0 -9 0 10 -262144
-1 -1 8264 1;
#X obj 561 34 atod;
#X obj 595 55 vsl 15 128 0 1 0 0 empty empty empty 0 -9 0 10 -262144
-1 -1 1914 1;
#X obj 604 33 atod;
#X obj 620 -26 phasor~ 1;
#X msg 590 -56 0;
#X obj 608 -106 bng 15 250 50 0 empty empty empty 17 7 0 10 -262144
-1 -1;
#X msg 671 -55 0.5;
#X obj 466 13 lop~ 30;
#X obj 489 43 lop~ 30;
#X obj 325 -124 *~;
#X obj 350 -100 *~;
#X obj 186 -52 vsl 15 128 -1 1 0 0 empty empty empty 0 -9 0 10 -262144
-1 -1 2516 1;
#X obj 186 -77 atod;
#X obj 608 -127 r lb;
#X floatatom 498 -64 5 0 0 0 - - -;
#X obj 426 -75 * 50;
#X msg 333 -210 0;
#X msg 294 -206 0;
#X msg 382 -209 0;
#X obj 255 129 lop~ 70;
#X obj 314 135 lop~ 70;
#X floatatom 374 111 5 0 0 0 - - -;
#X obj 255 37 osc~ 80;
#X obj 258 -38 hsl 128 15 0 127 0 0 empty empty empty -2 -8 0 10 -262144
-1 -1 9800 1;
#X floatatom 217 2 5 0 0 0 - - -;
#X obj 255 7 linn;
#X obj 81 -174 bng 15 250 50 0 empty empty empty 17 7 0 10 -262144
-1 -1;
#X obj 53 -205 bng 15 250 50 0 empty empty empty 17 7 0 10 -262144
-1 -1;
#X obj 195 -142 random 55;
#X obj 195 -115 + 45;
#X obj 256 -19 ntof 432 5;
#X obj 97 142 freeverb~;
#X obj 120 41 linn;
#X obj 105 109 *~;
#X obj 142 108 *~;
#X obj 115 8 > 500;
#X msg 16 -179 stop;
#X obj 83 -201 metro 500;
#X obj 158 -172 bng 15 250 50 0 empty empty empty 17 7 0 10 -262144
-1 -1;
#X obj 160 -199 metro 400;
#X obj 472 -194 hsl 128 15 -50 50 0 0 empty empty empty -2 -8 0 10
-262144 -1 -1 6300 1;
#X floatatom 469 -139 5 0 0 0 - - -;
#X obj 381 -71 spigot;
#X msg 439 -195 0;
#X msg 392 -90 1;
#X obj 393 -112 r lb;
#X text 294 -241 phase correlation;
#X text 448 -224 phasors freq override;
#X obj 553 -96 *;
#X obj 665 -205 vsl 15 60 0.1 10 0 0 empty empty empty 0 -9 0 10 -262144
-1 -1 536 1;
#X obj 535 -121 f;
#X obj 533 -149 bang;
#X msg 707 -199 1;
#X floatatom 670 -127 5 0 0 0 - - -;
#X msg 709 -169 2;
#X msg 25 121 wet \$1;
#X obj 33 23 vsl 15 60 0 1 0 0 empty empty empty 0 -9 0 10 -262144
-1 -1 900 1;
#X text 13 -9 rev wet;
#X text 659 -229 phasor2 freq mult;
#X text 75 -222 note change triggers;
#X text 300 -54 note;
#X text 491 -82 smoothing;
#X text 366 95 final filtering;
#X obj 272 -155 osc~ 0.05;
#X obj 369 -132 osc~ 0.2;
#X obj 334 -155 osc~ 0.11;
#X obj 757 -202 r lb;
#X connect 0 0 1 0;
#X connect 0 1 2 0;
#X connect 0 2 3 0;
#X connect 6 0 8 0;
#X connect 6 0 14 0;
#X connect 9 0 8 0;
#X connect 10 0 7 0;
#X connect 10 0 7 1;
#X connect 12 0 11 0;
#X connect 12 0 11 1;
#X connect 14 0 5 0;
#X connect 14 0 4 0;
#X connect 15 0 5 0;
#X connect 15 0 4 0;
#X connect 16 0 44 0;
#X connect 18 0 20 0;
#X connect 19 0 45 0;
#X connect 21 0 17 0;
#X connect 21 0 18 0;
#X connect 22 0 21 0;
#X connect 22 0 23 0;
#X connect 22 0 28 0;
#X connect 23 0 25 0;
#X connect 23 0 32 0;
#X connect 25 0 24 0;
#X connect 27 0 26 0;
#X connect 28 0 27 0;
#X connect 28 0 33 0;
#X connect 29 0 23 1;
#X connect 30 0 31 0;
#X connect 30 0 29 0;
#X connect 31 0 28 1;
#X connect 32 0 16 1;
#X connect 33 0 19 1;
#X connect 34 0 35 0;
#X connect 35 0 37 0;
#X connect 37 0 36 0;
#X connect 37 0 67 0;
#X connect 38 0 30 0;
#X connect 39 0 32 1;
#X connect 39 0 33 1;
#X connect 40 0 22 0;
#X connect 41 0 90 1;
#X connect 42 0 88 1;
#X connect 43 0 89 1;
#X connect 44 0 11 0;
#X connect 44 0 58 0;
#X connect 45 0 11 1;
#X connect 45 0 59 0;
#X connect 46 0 45 1;
#X connect 46 0 44 1;
#X connect 47 0 16 0;
#X connect 47 0 19 0;
#X connect 48 0 55 0;
#X connect 49 0 60 0;
#X connect 50 0 47 0;
#X connect 51 0 53 0;
#X connect 52 0 62 0;
#X connect 52 0 64 0;
#X connect 53 0 54 0;
#X connect 54 0 48 0;
#X connect 55 0 50 0;
#X connect 55 0 49 0;
#X connect 56 0 11 0;
#X connect 56 1 11 1;
#X connect 57 0 58 1;
#X connect 57 0 59 1;
#X connect 58 0 56 0;
#X connect 59 0 56 1;
#X connect 60 0 57 0;
#X connect 61 0 62 0;
#X connect 61 0 64 0;
#X connect 62 0 51 0;
#X connect 63 0 53 0;
#X connect 64 0 63 0;
#X connect 65 0 66 0;
#X connect 66 0 23 0;
#X connect 66 0 75 1;
#X connect 66 0 76 0;
#X connect 67 0 40 0;
#X connect 68 0 67 1;
#X connect 69 0 67 1;
#X connect 70 0 69 0;
#X connect 73 0 28 0;
#X connect 74 0 73 1;
#X connect 74 0 76 0;
#X connect 74 0 78 0;
#X connect 75 0 73 0;
#X connect 76 0 75 0;
#X connect 76 0 30 0;
#X connect 77 0 74 0;
#X connect 79 0 74 0;
#X connect 80 0 56 0;
#X connect 81 0 80 0;
#X connect 88 0 34 0;
#X connect 89 0 35 1;
#X connect 90 0 34 1;
#X connect 91 0 77 0;
