#N canvas 917 533 911 473 10;
#X obj 757 -80 ctlin;
#X floatatom 727 -54 5 0 0 0 - - -;
#X floatatom 762 -54 5 0 0 0 - - -;
#X floatatom 797 -54 5 0 0 0 - - -;
#X obj 806 39 tgl 15 0 empty empty empty 17 7 0 10 -262144 -1 -1 1
1;
#X msg 743 33 \; pd dsp \$1;
#X obj 743 -29 loadbang;
#X obj 747 108 dac~;
#X obj 760 -8 s lb;
#X obj 802 -28 bng 15 250 50 0 empty empty empty 17 7 0 10 -262144
-1 -1;
#X obj 747 89 *~ 1;
#X obj 262 177 output~;
#X obj 185 133 *~ 1;
#X obj 793 90 adc~;
#X msg 743 11 1;
#X msg 781 11 0;
#X obj 255 70 *~;
#X obj 405 54 noorm~;
#X obj 347 29 *~ -1;
#X obj 290 91 *~;
#X obj 346 52 noorm~;
#X obj 401 -2 osc~ 1;
#X floatatom 423 -48 5 0 0 0 - - -;
#X obj 539 -26 phasor~ 1;
#X obj 566 55 vsl 15 128 0 1 0 0 empty empty empty 0 -9 0 10 -262144
-1 -1 10210 1;
#X obj 561 34 atod;
#X obj 595 55 vsl 15 128 0 1 0 0 empty empty empty 0 -9 0 10 -262144
-1 -1 3860 1;
#X obj 604 33 atod;
#X obj 620 -26 phasor~ 1;
#X msg 590 -56 0;
#X obj 608 -106 bng 15 250 50 0 empty empty empty 17 7 0 10 -262144
-1 -1;
#X msg 671 -55 0.5;
#X obj 466 13 lop~ 30;
#X obj 489 43 lop~ 30;
#X obj 325 -124 *~;
#X obj 360 -90 *~;
#X obj 186 -52 vsl 15 128 -1 1 0 0 empty empty empty 0 -9 0 10 -262144
-1 -1 5564 1;
#X obj 186 -77 atod;
#X obj 608 -127 r lb;
#X floatatom 507 -95 5 0 0 0 - - -;
#X obj 426 -75 * 50;
#X obj 369 -132 osc~ 0.7;
#X msg 333 -210 0;
#X msg 253 -217 0;
#X msg 416 -198 0;
#X obj 272 -155 osc~ 0.1;
#X obj 334 -155 osc~ 0.2;
#X obj 255 129 lop~ 70;
#X obj 314 135 lop~ 70;
#X floatatom 389 102 5 0 0 0 - - -;
#X obj 255 37 osc~ 80;
#X obj 267 -33 ntof 432 7;
#X obj 269 -52 hsl 128 15 0 127 0 0 empty empty empty -2 -8 0 10 -262144
-1 -1 7400 1;
#X floatatom 227 -2 5 0 0 0 - - -;
#X obj 266 -7 linn;
#X obj 163 -164 random 128;
#X obj 137 -203 metro 500;
#X obj 135 -176 bng 15 250 50 0 empty empty empty 17 7 0 10 -262144
-1 -1;
#X obj 107 -207 bng 15 250 50 0 empty empty empty 17 7 0 10 -262144
-1 -1;
#X connect 0 0 1 0;
#X connect 0 1 2 0;
#X connect 0 2 3 0;
#X connect 6 0 8 0;
#X connect 6 0 14 0;
#X connect 9 0 8 0;
#X connect 10 0 7 0;
#X connect 10 0 7 1;
#X connect 12 0 11 0;
#X connect 12 0 11 1;
#X connect 14 0 5 0;
#X connect 14 0 4 0;
#X connect 15 0 5 0;
#X connect 15 0 4 0;
#X connect 16 0 47 0;
#X connect 18 0 20 0;
#X connect 19 0 48 0;
#X connect 21 0 17 0;
#X connect 21 0 18 0;
#X connect 22 0 21 0;
#X connect 22 0 23 0;
#X connect 22 0 28 0;
#X connect 23 0 25 0;
#X connect 23 0 32 0;
#X connect 25 0 24 0;
#X connect 27 0 26 0;
#X connect 28 0 27 0;
#X connect 28 0 33 0;
#X connect 29 0 23 1;
#X connect 30 0 31 0;
#X connect 30 0 29 0;
#X connect 31 0 28 1;
#X connect 32 0 16 1;
#X connect 33 0 19 1;
#X connect 34 0 35 0;
#X connect 35 0 37 0;
#X connect 37 0 36 0;
#X connect 37 0 40 0;
#X connect 38 0 30 0;
#X connect 39 0 32 1;
#X connect 39 0 33 1;
#X connect 40 0 22 0;
#X connect 41 0 35 1;
#X connect 42 0 46 1;
#X connect 43 0 45 1;
#X connect 44 0 41 1;
#X connect 45 0 34 0;
#X connect 46 0 34 1;
#X connect 47 0 11 0;
#X connect 48 0 11 1;
#X connect 49 0 48 1;
#X connect 49 0 47 1;
#X connect 50 0 16 0;
#X connect 50 0 19 0;
#X connect 51 0 54 0;
#X connect 51 0 53 0;
#X connect 52 0 51 0;
#X connect 54 0 50 0;
#X connect 55 0 52 0;
#X connect 56 0 57 0;
#X connect 57 0 55 0;
#X connect 58 0 56 0;
