#N canvas 917 531 911 475 10;
#X obj 757 -80 ctlin;
#X floatatom 727 -54 5 0 0 0 - - -;
#X floatatom 762 -54 5 0 0 0 - - -;
#X floatatom 797 -54 5 0 0 0 - - -;
#X obj 806 39 tgl 15 0 empty empty empty 17 7 0 10 -262144 -1 -1 1
1;
#X msg 743 33 \; pd dsp \$1;
#X obj 743 -29 loadbang;
#X obj 747 108 dac~;
#X obj 760 -8 s lb;
#X obj 802 -28 bng 15 250 50 0 empty empty empty 17 7 0 10 -262144
-1 -1;
#X obj 747 89 *~ 1;
#X obj 262 177 output~;
#X obj 185 133 *~ 1;
#X obj 793 90 adc~;
#X msg 743 11 1;
#X msg 781 11 0;
#X obj 282 -7 osc~ 432;
#X obj 295 60 *~;
#X obj 419 67 noorm~;
#X obj 361 42 *~ -1;
#X obj 313 90 *~;
#X obj 356 90 noorm~;
#X obj 415 11 osc~ 1;
#X floatatom 437 -35 5 0 0 0 - - -;
#X obj 547 -4 phasor~ 1;
#X obj 566 55 vsl 15 128 0 127 0 0 empty empty empty 0 -9 0 10 -262144
-1 -1 0 1;
#X obj 606 33 atod;
#X connect 0 0 1 0;
#X connect 0 1 2 0;
#X connect 0 2 3 0;
#X connect 6 0 8 0;
#X connect 6 0 14 0;
#X connect 9 0 8 0;
#X connect 10 0 7 0;
#X connect 10 0 7 1;
#X connect 12 0 11 0;
#X connect 12 0 11 1;
#X connect 14 0 5 0;
#X connect 14 0 4 0;
#X connect 15 0 5 0;
#X connect 15 0 4 0;
#X connect 16 0 17 0;
#X connect 16 0 20 0;
#X connect 17 0 11 0;
#X connect 18 0 17 1;
#X connect 19 0 21 0;
#X connect 20 0 11 1;
#X connect 21 0 20 1;
#X connect 22 0 18 0;
#X connect 22 0 19 0;
#X connect 23 0 22 0;
