#N canvas 675 0 1876 1348 10;
#X obj 1536 177 ctlin;
#X floatatom 1506 203 5 0 0 0 - - -;
#X floatatom 1541 203 5 0 0 0 - - -;
#X floatatom 1576 203 5 0 0 0 - - -;
#X obj 1585 399 tgl 15 0 empty empty empty 17 7 0 10 -262144 -1 -1
1 1;
#X msg 1522 393 \; pd dsp \$1;
#X obj 1522 331 loadbang;
#X obj 1526 468 dac~;
#X obj 1539 352 s lb;
#X obj 1581 332 bng 15 250 50 0 empty empty empty 17 7 0 10 -262144
-1 -1;
#X obj 1526 449 *~ 1;
#X obj 1540 612 output~;
#X obj 1540 588 *~ 1;
#X obj 1572 450 adc~;
#X msg 1522 371 1;
#X msg 1560 371 0;
#X obj 1543 261 key;
#X floatatom 1543 282 5 0 0 0 - - -;
#X obj 913 99 key;
#X obj 913 143 t b b;
#X obj 977 99 keyup;
#X msg 940 166 stop;
#X msg 913 166 1;
#X msg 977 166 0;
#X floatatom 976 206 5 0 0 0 - - -;
#X obj 977 140 t a;
#X msg 913 206 60;
#X obj 913 186 bang;
#X obj 913 228 s note;
#X obj 976 228 s gate;
#X obj 804 365 r gate;
#X floatatom 806 423 5 0 0 0 - - -;
#X obj 807 467 select 1;
#X obj 806 491 bng 15 250 50 0 empty empty empty 17 7 0 10 -262144
-1 -1;
#X obj 801 540 taptempo;
#X floatatom 801 561 5 0 0 0 - - -;
#X obj 806 397 change;
#X obj 977 120 select 113;
#X obj 913 119 select 113;
#X obj 800 605 moses 200;
#X text 727 845 FAST tap;
#X text 815 841 slow tap;
#X text 953 298 KEY is "Q";
#X obj 787 633 bang;
#X obj 837 638 bang;
#X obj 783 667 bng 15 250 50 0 empty empty empty 17 7 0 10 -262144
-1 -1;
#X obj 843 671 bng 15 250 50 0 empty empty empty 17 7 0 10 -262144
-1 -1;
#X obj 825 791 spigot;
#X obj 821 743 r gate;
#X obj 806 443 change;
#X text 884 604 millisec;
#X obj 736 788 spigot;
#X msg 765 699 0;
#X msg 797 702 1;
#X msg 841 705 0;
#X msg 873 708 1;
#X floatatom 825 812 5 0 0 0 - - -;
#X floatatom 736 809 5 0 0 0 - - -;
#X connect 0 0 1 0;
#X connect 0 1 2 0;
#X connect 0 2 3 0;
#X connect 6 0 8 0;
#X connect 6 0 14 0;
#X connect 9 0 8 0;
#X connect 10 0 7 0;
#X connect 10 0 7 1;
#X connect 12 0 11 0;
#X connect 12 0 11 1;
#X connect 14 0 5 0;
#X connect 14 0 4 0;
#X connect 15 0 5 0;
#X connect 15 0 4 0;
#X connect 16 0 17 0;
#X connect 18 0 38 0;
#X connect 19 0 22 0;
#X connect 19 1 21 0;
#X connect 20 0 37 0;
#X connect 21 0 25 0;
#X connect 22 0 24 0;
#X connect 22 0 27 0;
#X connect 23 0 24 0;
#X connect 24 0 29 0;
#X connect 25 0 23 0;
#X connect 26 0 28 0;
#X connect 27 0 26 0;
#X connect 30 0 36 0;
#X connect 31 0 49 0;
#X connect 32 0 33 0;
#X connect 33 0 34 0;
#X connect 34 0 35 0;
#X connect 35 0 39 0;
#X connect 36 0 31 0;
#X connect 37 0 25 0;
#X connect 38 0 19 0;
#X connect 39 0 43 0;
#X connect 39 1 44 0;
#X connect 43 0 45 0;
#X connect 44 0 46 0;
#X connect 45 0 52 0;
#X connect 45 0 53 0;
#X connect 46 0 54 0;
#X connect 46 0 55 0;
#X connect 47 0 56 0;
#X connect 48 0 47 0;
#X connect 48 0 51 0;
#X connect 49 0 32 0;
#X connect 51 0 57 0;
#X connect 52 0 47 1;
#X connect 53 0 51 1;
#X connect 54 0 51 1;
#X connect 55 0 47 1;
