#N canvas 1128 155 1115 1023 10;
#X obj 215 -62 ctlin;
#X floatatom 185 -36 5 0 0 0 - - -;
#X floatatom 220 -36 5 0 0 0 - - -;
#X floatatom 255 -36 5 0 0 0 - - -;
#X obj 202 39 tgl 15 0 empty empty empty 17 7 0 10 -262144 -1 -1 1
1;
#X msg 202 58 \; pd dsp \$1;
#X obj 202 11 loadbang;
#X obj 118 86 dac~;
#X obj 223 38 s lb;
#X obj 269 23 bng 15 250 50 0 empty empty empty 17 7 0 10 -262144 -1
-1;
#X obj 118 67 *~ 1;
#X obj 82 679 output~;
#X obj 82 655 *~ 1;
#X obj 510 84 vline~;
#X obj 510 4 bng 15 250 50 0 empty empty empty 17 7 0 10 -262144 -1
-1;
#X msg 510 61 1 1 \, 0 1 1;
#X obj 510 106 exp~;
#X obj 510 126 -~ 1;
#X obj 510 318 rzero~ 1;
#X obj 510 338 rzero~ 1;
#X obj 510 359 rzero~ 1;
#X obj 511 444 rzero~ 1;
#X obj 511 464 rzero~ 1;
#X obj 511 485 rzero~ 1;
#X obj 511 505 rzero~ 1;
#X obj 511 526 rzero~ 1;
#X obj 511 546 rzero~ 1;
#X obj 511 566 rzero~ 1;
#X obj 511 587 rzero~ 1;
#X obj 510 236 rzero~ 2;
#X obj 510 257 rzero~ 2;
#X obj 510 277 rzero~ 2;
#X obj 510 298 rzero~ 2;
#X obj 510 216 rzero~ 2;
#X text 251 279 identitity sine (4th - snap) derivative >>;
#X obj 817 723 tanh~;
#X floatatom 573 4 5 0 0 0 - - -;
#X obj 510 38 metro 104.3;
#X obj 510 -41 r lb;
#X obj 158 422 skoop;
#X obj 511 645 rzero~ 1;
#X obj 511 665 rzero~ 1;
#X obj 511 686 rzero~ 1;
#X obj 511 706 rzero~ 1;
#X obj 511 727 rzero~ 1;
#X obj 511 747 rzero~ 1;
#X obj 511 767 rzero~ 1;
#X obj 511 788 rzero~ 1;
#X text 679 285 make a big scanner to scan thru all of the derivatives
;
#X connect 0 0 1 0;
#X connect 0 1 2 0;
#X connect 0 2 3 0;
#X connect 4 0 5 0;
#X connect 6 0 4 0;
#X connect 6 0 8 0;
#X connect 9 0 8 0;
#X connect 10 0 7 0;
#X connect 10 0 7 1;
#X connect 12 0 11 0;
#X connect 12 0 11 1;
#X connect 13 0 16 0;
#X connect 14 0 37 0;
#X connect 15 0 13 0;
#X connect 16 0 17 0;
#X connect 17 0 33 0;
#X connect 18 0 19 0;
#X connect 19 0 20 0;
#X connect 20 0 21 0;
#X connect 21 0 22 0;
#X connect 22 0 23 0;
#X connect 23 0 24 0;
#X connect 24 0 25 0;
#X connect 25 0 26 0;
#X connect 26 0 27 0;
#X connect 27 0 28 0;
#X connect 28 0 40 0;
#X connect 29 0 30 0;
#X connect 30 0 31 0;
#X connect 31 0 32 0;
#X connect 32 0 18 0;
#X connect 33 0 29 0;
#X connect 36 0 37 1;
#X connect 37 0 15 0;
#X connect 38 0 14 0;
#X connect 39 0 12 0;
#X connect 40 0 41 0;
#X connect 41 0 42 0;
#X connect 42 0 43 0;
#X connect 43 0 44 0;
#X connect 44 0 45 0;
#X connect 45 0 46 0;
#X connect 46 0 47 0;
#X connect 47 0 39 0;
