#N canvas 1128 155 1115 1023 10;
#X obj 215 -62 ctlin;
#X floatatom 185 -36 5 0 0 0 - - -;
#X floatatom 220 -36 5 0 0 0 - - -;
#X floatatom 255 -36 5 0 0 0 - - -;
#X obj 202 39 tgl 15 0 empty empty empty 17 7 0 10 -262144 -1 -1 1
1;
#X msg 202 58 \; pd dsp \$1;
#X obj 202 11 loadbang;
#X obj 118 86 dac~;
#X obj 223 38 s lb;
#X obj 269 23 bng 15 250 50 0 empty empty empty 17 7 0 10 -262144 -1
-1;
#X obj 118 67 *~ 1;
#X obj 926 561 output~;
#X obj 926 537 *~ 1;
#X obj 915 493 skop;
#X obj 383 87 vline~;
#X obj 373 -44 bng 15 250 50 0 empty empty empty 17 7 0 10 -262144
-1 -1;
#X msg 381 40 1 1 \, 0 1 1;
#X obj 413 140 exp~;
#X obj 435 191 -~ 1;
#X obj 646 321 rzero~ 1;
#X obj 646 341 rzero~ 1;
#X obj 646 362 rzero~ 1;
#X obj 635 447 rzero~ 1;
#X obj 635 467 rzero~ 1;
#X obj 635 488 rzero~ 1;
#X obj 635 508 rzero~ 1;
#X obj 635 529 rzero~ 1;
#X obj 635 549 rzero~ 1;
#X obj 635 569 rzero~ 1;
#X obj 635 590 rzero~ 1;
#X obj 646 239 rzero~ 2;
#X obj 646 260 rzero~ 2;
#X obj 646 280 rzero~ 2;
#X obj 646 301 rzero~ 2;
#X obj 646 219 rzero~ 2;
#X text 387 282 identitity sine (4th - snap) derivative >>;
#X obj 942 442 tanh~;
#X floatatom 475 -38 5 0 0 0 - - -;
#X obj 387 -15 metro 104.3;
#X obj 818 771 recc 1;
#X obj 759 740 bng 15 250 50 0 empty empty empty 17 7 0 10 -262144
-1 -1;
#X msg 802 712 start;
#X msg 865 725 stop;
#X obj 334 -53 r lb;
#X connect 0 0 1 0;
#X connect 0 1 2 0;
#X connect 0 2 3 0;
#X connect 4 0 5 0;
#X connect 6 0 4 0;
#X connect 6 0 8 0;
#X connect 9 0 8 0;
#X connect 10 0 7 0;
#X connect 10 0 7 1;
#X connect 12 0 11 0;
#X connect 12 0 11 1;
#X connect 13 0 12 0;
#X connect 13 0 39 1;
#X connect 14 0 17 0;
#X connect 15 0 38 0;
#X connect 16 0 14 0;
#X connect 17 0 18 0;
#X connect 18 0 34 0;
#X connect 19 0 20 0;
#X connect 20 0 21 0;
#X connect 21 0 22 0;
#X connect 21 0 13 0;
#X connect 22 0 23 0;
#X connect 23 0 24 0;
#X connect 24 0 25 0;
#X connect 25 0 26 0;
#X connect 26 0 27 0;
#X connect 27 0 28 0;
#X connect 28 0 29 0;
#X connect 30 0 31 0;
#X connect 31 0 32 0;
#X connect 32 0 33 0;
#X connect 33 0 19 0;
#X connect 34 0 30 0;
#X connect 37 0 38 1;
#X connect 38 0 16 0;
#X connect 40 0 39 0;
#X connect 41 0 39 0;
#X connect 42 0 39 0;
#X connect 43 0 15 0;
